<?xml version="1.0" encoding="utf-8" standalone="no"?>
<!DOCTYPE svg PUBLIC "-//W3C//DTD SVG 1.1//EN"
  "http://www.w3.org/Graphics/SVG/1.1/DTD/svg11.dtd">
<svg xmlns:xlink="http://www.w3.org/1999/xlink" width="1440pt" height="2160pt" viewBox="0 0 1440 2160" xmlns="http://www.w3.org/2000/svg" version="1.1">
 <metadata>
  <rdf:RDF xmlns:dc="http://purl.org/dc/elements/1.1/" xmlns:cc="http://creativecommons.org/ns#" xmlns:rdf="http://www.w3.org/1999/02/22-rdf-syntax-ns#">
   <cc:Work>
    <dc:type rdf:resource="http://purl.org/dc/dcmitype/StillImage"/>
    <dc:date>2026-04-11T03:37:32.728292</dc:date>
    <dc:format>image/svg+xml</dc:format>
    <dc:creator>
     <cc:Agent>
      <dc:title>Matplotlib v3.10.8, https://matplotlib.org/</dc:title>
     </cc:Agent>
    </dc:creator>
   </cc:Work>
  </rdf:RDF>
 </metadata>
 <defs>
  <style type="text/css">*{stroke-linejoin: round; stroke-linecap: butt}</style>
 </defs>
 <g id="figure_1">
  <g id="patch_1">
   <path d="M 0 2160 
L 1440 2160 
L 1440 0 
L 0 0 
z
" style="fill: #ffffff"/>
  </g>
  <g id="axes_1">
   <g id="patch_2">
    <path d="M 50.137685 2080.263013 
L 1217.79 2080.263013 
L 1217.79 10.8 
L 50.137685 10.8 
z
" style="fill: #ffffff"/>
   </g>
   <g id="matplotlib.axis_1">
    <g id="xtick_1">
     <g id="line2d_1">
      <defs>
       <path id="m88d1d138c5" d="M 0 0 
L 0 3.5 
" style="stroke: #000000; stroke-width: 0.8"/>
      </defs>
      <g>
       <use xlink:href="#m88d1d138c5" x="103.21279" y="2080.263013" style="stroke: #000000; stroke-width: 0.8"/>
      </g>
     </g>
     <g id="text_1">
      <!-- 2026-02-01 -->
      <g transform="translate(84.616987 2133.729872) rotate(-45) scale(0.1 -0.1)">
       <defs>
        <path id="DejaVuSans-32" d="M 1228 531 
L 3431 531 
L 3431 0 
L 469 0 
L 469 531 
Q 828 903 1448 1529 
Q 2069 2156 2228 2338 
Q 2531 2678 2651 2914 
Q 2772 3150 2772 3378 
Q 2772 3750 2511 3984 
Q 2250 4219 1831 4219 
Q 1534 4219 1204 4116 
Q 875 4013 500 3803 
L 500 4441 
Q 881 4594 1212 4672 
Q 1544 4750 1819 4750 
Q 2544 4750 2975 4387 
Q 3406 4025 3406 3419 
Q 3406 3131 3298 2873 
Q 3191 2616 2906 2266 
Q 2828 2175 2409 1742 
Q 1991 1309 1228 531 
z
" transform="scale(0.015625)"/>
        <path id="DejaVuSans-30" d="M 2034 4250 
Q 1547 4250 1301 3770 
Q 1056 3291 1056 2328 
Q 1056 1369 1301 889 
Q 1547 409 2034 409 
Q 2525 409 2770 889 
Q 3016 1369 3016 2328 
Q 3016 3291 2770 3770 
Q 2525 4250 2034 4250 
z
M 2034 4750 
Q 2819 4750 3233 4129 
Q 3647 3509 3647 2328 
Q 3647 1150 3233 529 
Q 2819 -91 2034 -91 
Q 1250 -91 836 529 
Q 422 1150 422 2328 
Q 422 3509 836 4129 
Q 1250 4750 2034 4750 
z
" transform="scale(0.015625)"/>
        <path id="DejaVuSans-36" d="M 2113 2584 
Q 1688 2584 1439 2293 
Q 1191 2003 1191 1497 
Q 1191 994 1439 701 
Q 1688 409 2113 409 
Q 2538 409 2786 701 
Q 3034 994 3034 1497 
Q 3034 2003 2786 2293 
Q 2538 2584 2113 2584 
z
M 3366 4563 
L 3366 3988 
Q 3128 4100 2886 4159 
Q 2644 4219 2406 4219 
Q 1781 4219 1451 3797 
Q 1122 3375 1075 2522 
Q 1259 2794 1537 2939 
Q 1816 3084 2150 3084 
Q 2853 3084 3261 2657 
Q 3669 2231 3669 1497 
Q 3669 778 3244 343 
Q 2819 -91 2113 -91 
Q 1303 -91 875 529 
Q 447 1150 447 2328 
Q 447 3434 972 4092 
Q 1497 4750 2381 4750 
Q 2619 4750 2861 4703 
Q 3103 4656 3366 4563 
z
" transform="scale(0.015625)"/>
        <path id="DejaVuSans-2d" d="M 313 2009 
L 1997 2009 
L 1997 1497 
L 313 1497 
L 313 2009 
z
" transform="scale(0.015625)"/>
        <path id="DejaVuSans-31" d="M 794 531 
L 1825 531 
L 1825 4091 
L 703 3866 
L 703 4441 
L 1819 4666 
L 2450 4666 
L 2450 531 
L 3481 531 
L 3481 0 
L 794 0 
L 794 531 
z
" transform="scale(0.015625)"/>
       </defs>
       <use xlink:href="#DejaVuSans-32"/>
       <use xlink:href="#DejaVuSans-30" transform="translate(63.623047 0)"/>
       <use xlink:href="#DejaVuSans-32" transform="translate(127.246094 0)"/>
       <use xlink:href="#DejaVuSans-36" transform="translate(190.869141 0)"/>
       <use xlink:href="#DejaVuSans-2d" transform="translate(254.492188 0)"/>
       <use xlink:href="#DejaVuSans-30" transform="translate(290.576172 0)"/>
       <use xlink:href="#DejaVuSans-32" transform="translate(354.199219 0)"/>
       <use xlink:href="#DejaVuSans-2d" transform="translate(417.822266 0)"/>
       <use xlink:href="#DejaVuSans-30" transform="translate(453.90625 0)"/>
       <use xlink:href="#DejaVuSans-31" transform="translate(517.529297 0)"/>
      </g>
     </g>
    </g>
    <g id="xtick_2">
     <g id="line2d_2">
      <g>
       <use xlink:href="#m88d1d138c5" x="321.757341" y="2080.263013" style="stroke: #000000; stroke-width: 0.8"/>
      </g>
     </g>
     <g id="text_2">
      <!-- 2026-02-15 -->
      <g transform="translate(303.161537 2133.729872) rotate(-45) scale(0.1 -0.1)">
       <defs>
        <path id="DejaVuSans-35" d="M 691 4666 
L 3169 4666 
L 3169 4134 
L 1269 4134 
L 1269 2991 
Q 1406 3038 1543 3061 
Q 1681 3084 1819 3084 
Q 2600 3084 3056 2656 
Q 3513 2228 3513 1497 
Q 3513 744 3044 326 
Q 2575 -91 1722 -91 
Q 1428 -91 1123 -41 
Q 819 9 494 109 
L 494 744 
Q 775 591 1075 516 
Q 1375 441 1709 441 
Q 2250 441 2565 725 
Q 2881 1009 2881 1497 
Q 2881 1984 2565 2268 
Q 2250 2553 1709 2553 
Q 1456 2553 1204 2497 
Q 953 2441 691 2322 
L 691 4666 
z
" transform="scale(0.015625)"/>
       </defs>
       <use xlink:href="#DejaVuSans-32"/>
       <use xlink:href="#DejaVuSans-30" transform="translate(63.623047 0)"/>
       <use xlink:href="#DejaVuSans-32" transform="translate(127.246094 0)"/>
       <use xlink:href="#DejaVuSans-36" transform="translate(190.869141 0)"/>
       <use xlink:href="#DejaVuSans-2d" transform="translate(254.492188 0)"/>
       <use xlink:href="#DejaVuSans-30" transform="translate(290.576172 0)"/>
       <use xlink:href="#DejaVuSans-32" transform="translate(354.199219 0)"/>
       <use xlink:href="#DejaVuSans-2d" transform="translate(417.822266 0)"/>
       <use xlink:href="#DejaVuSans-31" transform="translate(453.90625 0)"/>
       <use xlink:href="#DejaVuSans-35" transform="translate(517.529297 0)"/>
      </g>
     </g>
    </g>
    <g id="xtick_3">
     <g id="line2d_3">
      <g>
       <use xlink:href="#m88d1d138c5" x="540.301892" y="2080.263013" style="stroke: #000000; stroke-width: 0.8"/>
      </g>
     </g>
     <g id="text_3">
      <!-- 2026-03-01 -->
      <g transform="translate(521.706088 2133.729872) rotate(-45) scale(0.1 -0.1)">
       <defs>
        <path id="DejaVuSans-33" d="M 2597 2516 
Q 3050 2419 3304 2112 
Q 3559 1806 3559 1356 
Q 3559 666 3084 287 
Q 2609 -91 1734 -91 
Q 1441 -91 1130 -33 
Q 819 25 488 141 
L 488 750 
Q 750 597 1062 519 
Q 1375 441 1716 441 
Q 2309 441 2620 675 
Q 2931 909 2931 1356 
Q 2931 1769 2642 2001 
Q 2353 2234 1838 2234 
L 1294 2234 
L 1294 2753 
L 1863 2753 
Q 2328 2753 2575 2939 
Q 2822 3125 2822 3475 
Q 2822 3834 2567 4026 
Q 2313 4219 1838 4219 
Q 1578 4219 1281 4162 
Q 984 4106 628 3988 
L 628 4550 
Q 988 4650 1302 4700 
Q 1616 4750 1894 4750 
Q 2613 4750 3031 4423 
Q 3450 4097 3450 3541 
Q 3450 3153 3228 2886 
Q 3006 2619 2597 2516 
z
" transform="scale(0.015625)"/>
       </defs>
       <use xlink:href="#DejaVuSans-32"/>
       <use xlink:href="#DejaVuSans-30" transform="translate(63.623047 0)"/>
       <use xlink:href="#DejaVuSans-32" transform="translate(127.246094 0)"/>
       <use xlink:href="#DejaVuSans-36" transform="translate(190.869141 0)"/>
       <use xlink:href="#DejaVuSans-2d" transform="translate(254.492188 0)"/>
       <use xlink:href="#DejaVuSans-30" transform="translate(290.576172 0)"/>
       <use xlink:href="#DejaVuSans-33" transform="translate(354.199219 0)"/>
       <use xlink:href="#DejaVuSans-2d" transform="translate(417.822266 0)"/>
       <use xlink:href="#DejaVuSans-30" transform="translate(453.90625 0)"/>
       <use xlink:href="#DejaVuSans-31" transform="translate(517.529297 0)"/>
      </g>
     </g>
    </g>
    <g id="xtick_4">
     <g id="line2d_4">
      <g>
       <use xlink:href="#m88d1d138c5" x="758.846443" y="2080.263013" style="stroke: #000000; stroke-width: 0.8"/>
      </g>
     </g>
     <g id="text_4">
      <!-- 2026-03-15 -->
      <g transform="translate(740.250639 2133.729872) rotate(-45) scale(0.1 -0.1)">
       <use xlink:href="#DejaVuSans-32"/>
       <use xlink:href="#DejaVuSans-30" transform="translate(63.623047 0)"/>
       <use xlink:href="#DejaVuSans-32" transform="translate(127.246094 0)"/>
       <use xlink:href="#DejaVuSans-36" transform="translate(190.869141 0)"/>
       <use xlink:href="#DejaVuSans-2d" transform="translate(254.492188 0)"/>
       <use xlink:href="#DejaVuSans-30" transform="translate(290.576172 0)"/>
       <use xlink:href="#DejaVuSans-33" transform="translate(354.199219 0)"/>
       <use xlink:href="#DejaVuSans-2d" transform="translate(417.822266 0)"/>
       <use xlink:href="#DejaVuSans-31" transform="translate(453.90625 0)"/>
       <use xlink:href="#DejaVuSans-35" transform="translate(517.529297 0)"/>
      </g>
     </g>
    </g>
    <g id="xtick_5">
     <g id="line2d_5">
      <g>
       <use xlink:href="#m88d1d138c5" x="1024.221969" y="2080.263013" style="stroke: #000000; stroke-width: 0.8"/>
      </g>
     </g>
     <g id="text_5">
      <!-- 2026-04-01 -->
      <g transform="translate(1005.626166 2133.729872) rotate(-45) scale(0.1 -0.1)">
       <defs>
        <path id="DejaVuSans-34" d="M 2419 4116 
L 825 1625 
L 2419 1625 
L 2419 4116 
z
M 2253 4666 
L 3047 4666 
L 3047 1625 
L 3713 1625 
L 3713 1100 
L 3047 1100 
L 3047 0 
L 2419 0 
L 2419 1100 
L 313 1100 
L 313 1709 
L 2253 4666 
z
" transform="scale(0.015625)"/>
       </defs>
       <use xlink:href="#DejaVuSans-32"/>
       <use xlink:href="#DejaVuSans-30" transform="translate(63.623047 0)"/>
       <use xlink:href="#DejaVuSans-32" transform="translate(127.246094 0)"/>
       <use xlink:href="#DejaVuSans-36" transform="translate(190.869141 0)"/>
       <use xlink:href="#DejaVuSans-2d" transform="translate(254.492188 0)"/>
       <use xlink:href="#DejaVuSans-30" transform="translate(290.576172 0)"/>
       <use xlink:href="#DejaVuSans-34" transform="translate(354.199219 0)"/>
       <use xlink:href="#DejaVuSans-2d" transform="translate(417.822266 0)"/>
       <use xlink:href="#DejaVuSans-30" transform="translate(453.90625 0)"/>
       <use xlink:href="#DejaVuSans-31" transform="translate(517.529297 0)"/>
      </g>
     </g>
    </g>
    <g id="text_6">
     <!-- Dates -->
     <g transform="translate(619.408374 2146.798871) scale(0.1 -0.1)">
      <defs>
       <path id="DejaVuSans-44" d="M 1259 4147 
L 1259 519 
L 2022 519 
Q 2988 519 3436 956 
Q 3884 1394 3884 2338 
Q 3884 3275 3436 3711 
Q 2988 4147 2022 4147 
L 1259 4147 
z
M 628 4666 
L 1925 4666 
Q 3281 4666 3915 4102 
Q 4550 3538 4550 2338 
Q 4550 1131 3912 565 
Q 3275 0 1925 0 
L 628 0 
L 628 4666 
z
" transform="scale(0.015625)"/>
       <path id="DejaVuSans-61" d="M 2194 1759 
Q 1497 1759 1228 1600 
Q 959 1441 959 1056 
Q 959 750 1161 570 
Q 1363 391 1709 391 
Q 2188 391 2477 730 
Q 2766 1069 2766 1631 
L 2766 1759 
L 2194 1759 
z
M 3341 1997 
L 3341 0 
L 2766 0 
L 2766 531 
Q 2569 213 2275 61 
Q 1981 -91 1556 -91 
Q 1019 -91 701 211 
Q 384 513 384 1019 
Q 384 1609 779 1909 
Q 1175 2209 1959 2209 
L 2766 2209 
L 2766 2266 
Q 2766 2663 2505 2880 
Q 2244 3097 1772 3097 
Q 1472 3097 1187 3025 
Q 903 2953 641 2809 
L 641 3341 
Q 956 3463 1253 3523 
Q 1550 3584 1831 3584 
Q 2591 3584 2966 3190 
Q 3341 2797 3341 1997 
z
" transform="scale(0.015625)"/>
       <path id="DejaVuSans-74" d="M 1172 4494 
L 1172 3500 
L 2356 3500 
L 2356 3053 
L 1172 3053 
L 1172 1153 
Q 1172 725 1289 603 
Q 1406 481 1766 481 
L 2356 481 
L 2356 0 
L 1766 0 
Q 1100 0 847 248 
Q 594 497 594 1153 
L 594 3053 
L 172 3053 
L 172 3500 
L 594 3500 
L 594 4494 
L 1172 4494 
z
" transform="scale(0.015625)"/>
       <path id="DejaVuSans-65" d="M 3597 1894 
L 3597 1613 
L 953 1613 
Q 991 1019 1311 708 
Q 1631 397 2203 397 
Q 2534 397 2845 478 
Q 3156 559 3463 722 
L 3463 178 
Q 3153 47 2828 -22 
Q 2503 -91 2169 -91 
Q 1331 -91 842 396 
Q 353 884 353 1716 
Q 353 2575 817 3079 
Q 1281 3584 2069 3584 
Q 2775 3584 3186 3129 
Q 3597 2675 3597 1894 
z
M 3022 2063 
Q 3016 2534 2758 2815 
Q 2500 3097 2075 3097 
Q 1594 3097 1305 2825 
Q 1016 2553 972 2059 
L 3022 2063 
z
" transform="scale(0.015625)"/>
       <path id="DejaVuSans-73" d="M 2834 3397 
L 2834 2853 
Q 2591 2978 2328 3040 
Q 2066 3103 1784 3103 
Q 1356 3103 1142 2972 
Q 928 2841 928 2578 
Q 928 2378 1081 2264 
Q 1234 2150 1697 2047 
L 1894 2003 
Q 2506 1872 2764 1633 
Q 3022 1394 3022 966 
Q 3022 478 2636 193 
Q 2250 -91 1575 -91 
Q 1294 -91 989 -36 
Q 684 19 347 128 
L 347 722 
Q 666 556 975 473 
Q 1284 391 1588 391 
Q 1994 391 2212 530 
Q 2431 669 2431 922 
Q 2431 1156 2273 1281 
Q 2116 1406 1581 1522 
L 1381 1569 
Q 847 1681 609 1914 
Q 372 2147 372 2553 
Q 372 3047 722 3315 
Q 1072 3584 1716 3584 
Q 2034 3584 2315 3537 
Q 2597 3491 2834 3397 
z
" transform="scale(0.015625)"/>
      </defs>
      <use xlink:href="#DejaVuSans-44"/>
      <use xlink:href="#DejaVuSans-61" transform="translate(77.001953 0)"/>
      <use xlink:href="#DejaVuSans-74" transform="translate(138.28125 0)"/>
      <use xlink:href="#DejaVuSans-65" transform="translate(177.490234 0)"/>
      <use xlink:href="#DejaVuSans-73" transform="translate(239.013672 0)"/>
     </g>
    </g>
   </g>
   <g id="matplotlib.axis_2">
    <g id="ytick_1">
     <g id="line2d_6">
      <defs>
       <path id="mb7f0365408" d="M 0 0 
L -3.5 0 
" style="stroke: #000000; stroke-width: 0.8"/>
      </defs>
      <g>
       <use xlink:href="#mb7f0365408" x="50.137685" y="1837.472363" style="stroke: #000000; stroke-width: 0.8"/>
      </g>
     </g>
     <g id="text_7">
      <!-- $\mathdefault{10^{1}}$ -->
      <g transform="translate(25.537685 1841.271582) scale(0.1 -0.1)">
       <use xlink:href="#DejaVuSans-31" transform="translate(0 0.684375)"/>
       <use xlink:href="#DejaVuSans-30" transform="translate(63.623047 0.684375)"/>
       <use xlink:href="#DejaVuSans-31" transform="translate(128.203125 38.965625) scale(0.7)"/>
      </g>
     </g>
    </g>
    <g id="ytick_2">
     <g id="line2d_7">
      <g>
       <use xlink:href="#mb7f0365408" x="50.137685" y="1343.421433" style="stroke: #000000; stroke-width: 0.8"/>
      </g>
     </g>
     <g id="text_8">
      <!-- $\mathdefault{10^{2}}$ -->
      <g transform="translate(25.537685 1347.220651) scale(0.1 -0.1)">
       <use xlink:href="#DejaVuSans-31" transform="translate(0 0.765625)"/>
       <use xlink:href="#DejaVuSans-30" transform="translate(63.623047 0.765625)"/>
       <use xlink:href="#DejaVuSans-32" transform="translate(128.203125 39.046875) scale(0.7)"/>
      </g>
     </g>
    </g>
    <g id="ytick_3">
     <g id="line2d_8">
      <g>
       <use xlink:href="#mb7f0365408" x="50.137685" y="849.370502" style="stroke: #000000; stroke-width: 0.8"/>
      </g>
     </g>
     <g id="text_9">
      <!-- $\mathdefault{10^{3}}$ -->
      <g transform="translate(25.537685 853.169721) scale(0.1 -0.1)">
       <use xlink:href="#DejaVuSans-31" transform="translate(0 0.765625)"/>
       <use xlink:href="#DejaVuSans-30" transform="translate(63.623047 0.765625)"/>
       <use xlink:href="#DejaVuSans-33" transform="translate(128.203125 39.046875) scale(0.7)"/>
      </g>
     </g>
    </g>
    <g id="ytick_4">
     <g id="line2d_9">
      <g>
       <use xlink:href="#mb7f0365408" x="50.137685" y="355.319572" style="stroke: #000000; stroke-width: 0.8"/>
      </g>
     </g>
     <g id="text_10">
      <!-- $\mathdefault{10^{4}}$ -->
      <g transform="translate(25.537685 359.11879) scale(0.1 -0.1)">
       <use xlink:href="#DejaVuSans-31" transform="translate(0 0.684375)"/>
       <use xlink:href="#DejaVuSans-30" transform="translate(63.623047 0.684375)"/>
       <use xlink:href="#DejaVuSans-34" transform="translate(128.203125 38.965625) scale(0.7)"/>
      </g>
     </g>
    </g>
    <g id="ytick_5">
     <g id="line2d_10">
      <defs>
       <path id="mfbe0ea0a51" d="M 0 0 
L -2 0 
" style="stroke: #000000; stroke-width: 0.6"/>
      </defs>
      <g>
       <use xlink:href="#mfbe0ea0a51" x="50.137685" y="2034.074995" style="stroke: #000000; stroke-width: 0.6"/>
      </g>
     </g>
    </g>
    <g id="ytick_6">
     <g id="line2d_11">
      <g>
       <use xlink:href="#mfbe0ea0a51" x="50.137685" y="1986.196512" style="stroke: #000000; stroke-width: 0.6"/>
      </g>
     </g>
    </g>
    <g id="ytick_7">
     <g id="line2d_12">
      <g>
       <use xlink:href="#mfbe0ea0a51" x="50.137685" y="1947.076944" style="stroke: #000000; stroke-width: 0.6"/>
      </g>
     </g>
    </g>
    <g id="ytick_8">
     <g id="line2d_13">
      <g>
       <use xlink:href="#mfbe0ea0a51" x="50.137685" y="1914.00182" style="stroke: #000000; stroke-width: 0.6"/>
      </g>
     </g>
    </g>
    <g id="ytick_9">
     <g id="line2d_14">
      <g>
       <use xlink:href="#mfbe0ea0a51" x="50.137685" y="1885.350845" style="stroke: #000000; stroke-width: 0.6"/>
      </g>
     </g>
    </g>
    <g id="ytick_10">
     <g id="line2d_15">
      <g>
       <use xlink:href="#mfbe0ea0a51" x="50.137685" y="1860.078894" style="stroke: #000000; stroke-width: 0.6"/>
      </g>
     </g>
    </g>
    <g id="ytick_11">
     <g id="line2d_16">
      <g>
       <use xlink:href="#mfbe0ea0a51" x="50.137685" y="1688.748214" style="stroke: #000000; stroke-width: 0.6"/>
      </g>
     </g>
    </g>
    <g id="ytick_12">
     <g id="line2d_17">
      <g>
       <use xlink:href="#mfbe0ea0a51" x="50.137685" y="1601.750163" style="stroke: #000000; stroke-width: 0.6"/>
      </g>
     </g>
    </g>
    <g id="ytick_13">
     <g id="line2d_18">
      <g>
       <use xlink:href="#mfbe0ea0a51" x="50.137685" y="1540.024064" style="stroke: #000000; stroke-width: 0.6"/>
      </g>
     </g>
    </g>
    <g id="ytick_14">
     <g id="line2d_19">
      <g>
       <use xlink:href="#mfbe0ea0a51" x="50.137685" y="1492.145582" style="stroke: #000000; stroke-width: 0.6"/>
      </g>
     </g>
    </g>
    <g id="ytick_15">
     <g id="line2d_20">
      <g>
       <use xlink:href="#mfbe0ea0a51" x="50.137685" y="1453.026014" style="stroke: #000000; stroke-width: 0.6"/>
      </g>
     </g>
    </g>
    <g id="ytick_16">
     <g id="line2d_21">
      <g>
       <use xlink:href="#mfbe0ea0a51" x="50.137685" y="1419.95089" style="stroke: #000000; stroke-width: 0.6"/>
      </g>
     </g>
    </g>
    <g id="ytick_17">
     <g id="line2d_22">
      <g>
       <use xlink:href="#mfbe0ea0a51" x="50.137685" y="1391.299915" style="stroke: #000000; stroke-width: 0.6"/>
      </g>
     </g>
    </g>
    <g id="ytick_18">
     <g id="line2d_23">
      <g>
       <use xlink:href="#mfbe0ea0a51" x="50.137685" y="1366.027963" style="stroke: #000000; stroke-width: 0.6"/>
      </g>
     </g>
    </g>
    <g id="ytick_19">
     <g id="line2d_24">
      <g>
       <use xlink:href="#mfbe0ea0a51" x="50.137685" y="1194.697283" style="stroke: #000000; stroke-width: 0.6"/>
      </g>
     </g>
    </g>
    <g id="ytick_20">
     <g id="line2d_25">
      <g>
       <use xlink:href="#mfbe0ea0a51" x="50.137685" y="1107.699233" style="stroke: #000000; stroke-width: 0.6"/>
      </g>
     </g>
    </g>
    <g id="ytick_21">
     <g id="line2d_26">
      <g>
       <use xlink:href="#mfbe0ea0a51" x="50.137685" y="1045.973134" style="stroke: #000000; stroke-width: 0.6"/>
      </g>
     </g>
    </g>
    <g id="ytick_22">
     <g id="line2d_27">
      <g>
       <use xlink:href="#mfbe0ea0a51" x="50.137685" y="998.094652" style="stroke: #000000; stroke-width: 0.6"/>
      </g>
     </g>
    </g>
    <g id="ytick_23">
     <g id="line2d_28">
      <g>
       <use xlink:href="#mfbe0ea0a51" x="50.137685" y="958.975083" style="stroke: #000000; stroke-width: 0.6"/>
      </g>
     </g>
    </g>
    <g id="ytick_24">
     <g id="line2d_29">
      <g>
       <use xlink:href="#mfbe0ea0a51" x="50.137685" y="925.89996" style="stroke: #000000; stroke-width: 0.6"/>
      </g>
     </g>
    </g>
    <g id="ytick_25">
     <g id="line2d_30">
      <g>
       <use xlink:href="#mfbe0ea0a51" x="50.137685" y="897.248984" style="stroke: #000000; stroke-width: 0.6"/>
      </g>
     </g>
    </g>
    <g id="ytick_26">
     <g id="line2d_31">
      <g>
       <use xlink:href="#mfbe0ea0a51" x="50.137685" y="871.977033" style="stroke: #000000; stroke-width: 0.6"/>
      </g>
     </g>
    </g>
    <g id="ytick_27">
     <g id="line2d_32">
      <g>
       <use xlink:href="#mfbe0ea0a51" x="50.137685" y="700.646353" style="stroke: #000000; stroke-width: 0.6"/>
      </g>
     </g>
    </g>
    <g id="ytick_28">
     <g id="line2d_33">
      <g>
       <use xlink:href="#mfbe0ea0a51" x="50.137685" y="613.648302" style="stroke: #000000; stroke-width: 0.6"/>
      </g>
     </g>
    </g>
    <g id="ytick_29">
     <g id="line2d_34">
      <g>
       <use xlink:href="#mfbe0ea0a51" x="50.137685" y="551.922203" style="stroke: #000000; stroke-width: 0.6"/>
      </g>
     </g>
    </g>
    <g id="ytick_30">
     <g id="line2d_35">
      <g>
       <use xlink:href="#mfbe0ea0a51" x="50.137685" y="504.043721" style="stroke: #000000; stroke-width: 0.6"/>
      </g>
     </g>
    </g>
    <g id="ytick_31">
     <g id="line2d_36">
      <g>
       <use xlink:href="#mfbe0ea0a51" x="50.137685" y="464.924153" style="stroke: #000000; stroke-width: 0.6"/>
      </g>
     </g>
    </g>
    <g id="ytick_32">
     <g id="line2d_37">
      <g>
       <use xlink:href="#mfbe0ea0a51" x="50.137685" y="431.849029" style="stroke: #000000; stroke-width: 0.6"/>
      </g>
     </g>
    </g>
    <g id="ytick_33">
     <g id="line2d_38">
      <g>
       <use xlink:href="#mfbe0ea0a51" x="50.137685" y="403.198054" style="stroke: #000000; stroke-width: 0.6"/>
      </g>
     </g>
    </g>
    <g id="ytick_34">
     <g id="line2d_39">
      <g>
       <use xlink:href="#mfbe0ea0a51" x="50.137685" y="377.926103" style="stroke: #000000; stroke-width: 0.6"/>
      </g>
     </g>
    </g>
    <g id="ytick_35">
     <g id="line2d_40">
      <g>
       <use xlink:href="#mfbe0ea0a51" x="50.137685" y="206.595422" style="stroke: #000000; stroke-width: 0.6"/>
      </g>
     </g>
    </g>
    <g id="ytick_36">
     <g id="line2d_41">
      <g>
       <use xlink:href="#mfbe0ea0a51" x="50.137685" y="119.597372" style="stroke: #000000; stroke-width: 0.6"/>
      </g>
     </g>
    </g>
    <g id="ytick_37">
     <g id="line2d_42">
      <g>
       <use xlink:href="#mfbe0ea0a51" x="50.137685" y="57.871273" style="stroke: #000000; stroke-width: 0.6"/>
      </g>
     </g>
    </g>
    <g id="text_11">
     <!-- Cumulative Users -->
     <g transform="translate(19.457997 1089.65885) rotate(-90) scale(0.1 -0.1)">
      <defs>
       <path id="DejaVuSans-43" d="M 4122 4306 
L 4122 3641 
Q 3803 3938 3442 4084 
Q 3081 4231 2675 4231 
Q 1875 4231 1450 3742 
Q 1025 3253 1025 2328 
Q 1025 1406 1450 917 
Q 1875 428 2675 428 
Q 3081 428 3442 575 
Q 3803 722 4122 1019 
L 4122 359 
Q 3791 134 3420 21 
Q 3050 -91 2638 -91 
Q 1578 -91 968 557 
Q 359 1206 359 2328 
Q 359 3453 968 4101 
Q 1578 4750 2638 4750 
Q 3056 4750 3426 4639 
Q 3797 4528 4122 4306 
z
" transform="scale(0.015625)"/>
       <path id="DejaVuSans-75" d="M 544 1381 
L 544 3500 
L 1119 3500 
L 1119 1403 
Q 1119 906 1312 657 
Q 1506 409 1894 409 
Q 2359 409 2629 706 
Q 2900 1003 2900 1516 
L 2900 3500 
L 3475 3500 
L 3475 0 
L 2900 0 
L 2900 538 
Q 2691 219 2414 64 
Q 2138 -91 1772 -91 
Q 1169 -91 856 284 
Q 544 659 544 1381 
z
M 1991 3584 
L 1991 3584 
z
" transform="scale(0.015625)"/>
       <path id="DejaVuSans-6d" d="M 3328 2828 
Q 3544 3216 3844 3400 
Q 4144 3584 4550 3584 
Q 5097 3584 5394 3201 
Q 5691 2819 5691 2113 
L 5691 0 
L 5113 0 
L 5113 2094 
Q 5113 2597 4934 2840 
Q 4756 3084 4391 3084 
Q 3944 3084 3684 2787 
Q 3425 2491 3425 1978 
L 3425 0 
L 2847 0 
L 2847 2094 
Q 2847 2600 2669 2842 
Q 2491 3084 2119 3084 
Q 1678 3084 1418 2786 
Q 1159 2488 1159 1978 
L 1159 0 
L 581 0 
L 581 3500 
L 1159 3500 
L 1159 2956 
Q 1356 3278 1631 3431 
Q 1906 3584 2284 3584 
Q 2666 3584 2933 3390 
Q 3200 3197 3328 2828 
z
" transform="scale(0.015625)"/>
       <path id="DejaVuSans-6c" d="M 603 4863 
L 1178 4863 
L 1178 0 
L 603 0 
L 603 4863 
z
" transform="scale(0.015625)"/>
       <path id="DejaVuSans-69" d="M 603 3500 
L 1178 3500 
L 1178 0 
L 603 0 
L 603 3500 
z
M 603 4863 
L 1178 4863 
L 1178 4134 
L 603 4134 
L 603 4863 
z
" transform="scale(0.015625)"/>
       <path id="DejaVuSans-76" d="M 191 3500 
L 800 3500 
L 1894 563 
L 2988 3500 
L 3597 3500 
L 2284 0 
L 1503 0 
L 191 3500 
z
" transform="scale(0.015625)"/>
       <path id="DejaVuSans-20" transform="scale(0.015625)"/>
       <path id="DejaVuSans-55" d="M 556 4666 
L 1191 4666 
L 1191 1831 
Q 1191 1081 1462 751 
Q 1734 422 2344 422 
Q 2950 422 3222 751 
Q 3494 1081 3494 1831 
L 3494 4666 
L 4128 4666 
L 4128 1753 
Q 4128 841 3676 375 
Q 3225 -91 2344 -91 
Q 1459 -91 1007 375 
Q 556 841 556 1753 
L 556 4666 
z
" transform="scale(0.015625)"/>
       <path id="DejaVuSans-72" d="M 2631 2963 
Q 2534 3019 2420 3045 
Q 2306 3072 2169 3072 
Q 1681 3072 1420 2755 
Q 1159 2438 1159 1844 
L 1159 0 
L 581 0 
L 581 3500 
L 1159 3500 
L 1159 2956 
Q 1341 3275 1631 3429 
Q 1922 3584 2338 3584 
Q 2397 3584 2469 3576 
Q 2541 3569 2628 3553 
L 2631 2963 
z
" transform="scale(0.015625)"/>
      </defs>
      <use xlink:href="#DejaVuSans-43"/>
      <use xlink:href="#DejaVuSans-75" transform="translate(69.824219 0)"/>
      <use xlink:href="#DejaVuSans-6d" transform="translate(133.203125 0)"/>
      <use xlink:href="#DejaVuSans-75" transform="translate(230.615234 0)"/>
      <use xlink:href="#DejaVuSans-6c" transform="translate(293.994141 0)"/>
      <use xlink:href="#DejaVuSans-61" transform="translate(321.777344 0)"/>
      <use xlink:href="#DejaVuSans-74" transform="translate(383.056641 0)"/>
      <use xlink:href="#DejaVuSans-69" transform="translate(422.265625 0)"/>
      <use xlink:href="#DejaVuSans-76" transform="translate(450.048828 0)"/>
      <use xlink:href="#DejaVuSans-65" transform="translate(509.228516 0)"/>
      <use xlink:href="#DejaVuSans-20" transform="translate(570.751953 0)"/>
      <use xlink:href="#DejaVuSans-55" transform="translate(602.539062 0)"/>
      <use xlink:href="#DejaVuSans-73" transform="translate(675.732422 0)"/>
      <use xlink:href="#DejaVuSans-65" transform="translate(727.832031 0)"/>
      <use xlink:href="#DejaVuSans-72" transform="translate(789.355469 0)"/>
      <use xlink:href="#DejaVuSans-73" transform="translate(830.46875 0)"/>
     </g>
    </g>
   </g>
   <g id="line2d_43">
    <path d="M 118.823115 1300.755278 
L 134.43344 993.425428 
L 150.043765 809.893626 
L 165.65409 733.632094 
L 181.264415 658.773084 
L 196.87474 629.52717 
L 212.485065 629.450169 
L 228.095391 265.211541 
L 243.705716 265.211541 
L 259.316041 265.211541 
L 274.926366 265.197443 
L 290.536691 265.197443 
L 306.147016 259.260714 
L 321.757341 226.772123 
L 337.367666 197.644346 
L 352.977991 186.369762 
L 368.588316 174.444911 
L 384.198641 161.307277 
L 399.808966 155.51393 
L 415.419291 130.354747 
L 431.029616 110.824726 
L 446.639942 110.824726 
L 462.250267 110.824726 
L 477.860592 110.824726 
L 493.470917 110.824726 
L 509.081242 110.824726 
L 524.691567 104.873178 
L 540.301892 104.873178 
L 555.912217 104.873178 
L 571.522542 104.873178 
L 587.132867 104.873178 
L 602.743192 104.873178 
L 618.353517 104.873178 
L 633.963842 104.873178 
L 649.574167 104.873178 
L 665.184493 104.873178 
L 680.794818 104.873178 
L 696.405143 104.873178 
L 712.015468 104.873178 
L 727.625793 104.873178 
L 743.236118 104.873178 
L 758.846443 104.873178 
L 774.456768 104.873178 
L 790.067093 104.873178 
L 805.677418 104.873178 
L 821.287743 104.873178 
L 836.898068 104.866501 
L 852.508393 104.866501 
L 868.118718 104.866501 
L 883.729044 104.866501 
L 899.339369 104.866501 
L 914.949694 104.866501 
L 930.560019 104.866501 
L 946.170344 104.866501 
L 961.780669 104.866501 
L 977.390994 104.866501 
L 993.001319 104.866501 
L 1008.611644 104.866501 
L 1024.221969 104.866501 
L 1039.832294 104.866501 
L 1055.442619 104.866501 
L 1071.052944 104.866501 
L 1086.663269 104.866501 
L 1102.273594 104.866501 
L 1117.88392 104.866501 
L 1133.494245 104.866501 
L 1149.10457 104.866501 
L 1164.714895 104.866501 
" clip-path="url(#p7da5564376)" style="fill: none; stroke: #0000ff; stroke-width: 1.5; stroke-linecap: square"/>
   </g>
   <g id="line2d_44">
    <path d="M 134.43344 1280.625189 
L 150.043765 888.833647 
L 165.65409 887.035976 
L 181.264415 816.418021 
L 196.87474 663.863906 
L 212.485065 637.850109 
L 228.095391 637.850109 
L 243.705716 581.187095 
L 259.316041 483.164928 
L 274.926366 479.038949 
L 290.536691 479.038949 
L 306.147016 477.896232 
L 321.757341 469.953359 
L 337.367666 441.985306 
L 352.977991 441.985306 
L 368.588316 441.985306 
L 384.198641 391.32916 
L 399.808966 327.280976 
L 415.419291 327.280976 
L 431.029616 327.262149 
L 446.639942 315.485981 
L 462.250267 315.485981 
L 477.860592 303.529001 
L 493.470917 303.529001 
L 509.081242 303.529001 
L 524.691567 303.495294 
L 540.301892 303.444743 
L 555.912217 303.343677 
L 571.522542 303.343677 
L 587.132867 303.175339 
L 602.743192 303.175339 
L 618.353517 303.175339 
L 633.963842 303.175339 
L 649.574167 303.175339 
L 665.184493 303.175339 
L 680.794818 303.175339 
L 696.405143 303.175339 
L 712.015468 303.175339 
L 727.625793 303.175339 
L 743.236118 303.175339 
L 758.846443 303.175339 
L 774.456768 303.175339 
L 790.067093 303.175339 
L 805.677418 303.175339 
L 821.287743 303.175339 
L 836.898068 303.175339 
L 852.508393 303.175339 
L 868.118718 303.175339 
L 883.729044 303.175339 
L 899.339369 303.175339 
L 914.949694 303.175339 
L 930.560019 303.175339 
L 946.170344 303.175339 
L 961.780669 303.175339 
L 977.390994 303.175339 
L 993.001319 303.175339 
L 1008.611644 303.175339 
L 1024.221969 303.175339 
L 1039.832294 303.175339 
L 1055.442619 303.175339 
L 1071.052944 303.175339 
L 1086.663269 303.175339 
L 1102.273594 303.175339 
L 1117.88392 303.175339 
L 1133.494245 303.175339 
L 1149.10457 303.175339 
L 1164.714895 303.175339 
" clip-path="url(#p7da5564376)" style="fill: none; stroke: #008000; stroke-width: 1.5; stroke-linecap: square"/>
   </g>
   <g id="line2d_45">
    <path d="M 181.264415 1370.84982 
L 196.87474 1028.963995 
L 212.485065 787.055163 
L 228.095391 787.055163 
L 243.705716 787.055163 
L 259.316041 787.055163 
L 274.926366 770.684823 
L 290.536691 749.600344 
L 306.147016 749.600344 
L 321.757341 749.600344 
L 337.367666 729.052253 
L 352.977991 729.052253 
L 368.588316 716.563731 
L 384.198641 716.563731 
L 399.808966 673.948724 
L 415.419291 635.461621 
L 431.029616 625.861937 
L 446.639942 594.306392 
L 462.250267 553.051629 
L 477.860592 536.754396 
L 493.470917 536.754396 
L 509.081242 525.129866 
L 524.691567 436.998554 
L 540.301892 389.308534 
L 555.912217 380.782033 
L 571.522542 372.744293 
L 587.132867 372.372271 
L 602.743192 370.636965 
L 618.353517 370.636965 
L 633.963842 370.636965 
L 649.574167 370.636965 
L 665.184493 370.636965 
L 680.794818 370.636965 
L 696.405143 369.877855 
L 712.015468 369.877855 
L 727.625793 369.877855 
L 743.236118 369.877855 
L 758.846443 369.877855 
L 774.456768 369.877855 
L 790.067093 369.877855 
L 805.677418 369.877855 
L 821.287743 369.877855 
L 836.898068 369.877855 
L 852.508393 369.877855 
L 868.118718 369.877855 
L 883.729044 369.877855 
L 899.339369 369.877855 
L 914.949694 369.854893 
L 930.560019 368.961306 
L 946.170344 368.961306 
L 961.780669 367.412104 
L 977.390994 367.412104 
L 993.001319 367.412104 
L 1008.611644 367.412104 
L 1024.221969 367.412104 
L 1039.832294 367.412104 
L 1055.442619 367.412104 
L 1071.052944 367.412104 
L 1086.663269 367.412104 
L 1102.273594 367.412104 
L 1117.88392 367.412104 
L 1133.494245 367.412104 
L 1149.10457 367.412104 
L 1164.714895 367.412104 
" clip-path="url(#p7da5564376)" style="fill: none; stroke: #ff0000; stroke-width: 1.5; stroke-linecap: square"/>
   </g>
   <g id="line2d_46">
    <path d="M 196.87474 1736.626696 
L 212.485065 951.59379 
L 228.095391 933.385495 
L 243.705716 913.397573 
L 259.316041 890.906741 
L 274.926366 890.126982 
L 290.536691 886.780391 
L 306.147016 884.746598 
L 321.757341 876.311798 
L 337.367666 874.615635 
L 352.977991 873.412246 
L 368.588316 873.412246 
L 384.198641 855.684854 
L 399.808966 855.02296 
L 415.419291 846.387445 
L 431.029616 824.289359 
L 446.639942 738.183996 
L 462.250267 733.007454 
L 477.860592 640.995431 
L 493.470917 635.937196 
L 509.081242 574.588343 
L 524.691567 513.071007 
L 540.301892 512.84734 
L 555.912217 512.802635 
L 571.522542 512.802635 
L 587.132867 512.088612 
L 602.743192 511.865967 
L 618.353517 511.865967 
L 633.963842 511.821465 
L 649.574167 462.082209 
L 665.184493 462.082209 
L 680.794818 462.082209 
L 696.405143 460.359927 
L 712.015468 459.591132 
L 727.625793 459.591132 
L 743.236118 459.451646 
L 758.846443 459.033733 
L 774.456768 459.033733 
L 790.067093 459.033733 
L 805.677418 458.755575 
L 821.287743 456.199572 
L 836.898068 455.479732 
L 852.508393 455.445514 
L 868.118718 455.445514 
L 883.729044 455.445514 
L 899.339369 455.445514 
L 914.949694 455.445514 
L 930.560019 455.411301 
L 946.170344 455.411301 
L 961.780669 455.411301 
L 977.390994 455.411301 
L 993.001319 455.411301 
L 1008.611644 455.411301 
L 1024.221969 455.411301 
L 1039.832294 455.411301 
L 1055.442619 455.411301 
L 1071.052944 455.411301 
L 1086.663269 455.411301 
L 1102.273594 455.411301 
L 1117.88392 455.377094 
L 1133.494245 455.377094 
L 1149.10457 455.377094 
L 1164.714895 455.377094 
" clip-path="url(#p7da5564376)" style="fill: none; stroke: #00ffff; stroke-width: 1.5; stroke-linecap: square"/>
   </g>
   <g id="line2d_47">
    <path d="M 103.21279 1035.504541 
L 118.823115 906.007898 
L 134.43344 830.879906 
L 150.043765 744.934285 
L 165.65409 724.208625 
L 181.264415 699.256202 
L 196.87474 653.627846 
L 212.485065 629.52717 
L 228.095391 629.52717 
L 243.705716 629.52717 
L 259.316041 624.578704 
L 274.926366 608.350167 
L 290.536691 575.963947 
L 306.147016 575.664152 
L 321.757341 557.409506 
L 337.367666 548.992053 
L 352.977991 547.620698 
L 368.588316 546.467127 
L 384.198641 546.467127 
L 399.808966 546.414839 
L 415.419291 546.258052 
L 431.029616 546.258052 
L 446.639942 546.258052 
L 462.250267 546.258052 
L 477.860592 546.258052 
L 493.470917 546.101379 
L 509.081242 546.101379 
L 524.691567 545.840511 
L 540.301892 545.788376 
L 555.912217 545.788376 
L 571.522542 539.977191 
L 587.132867 531.71607 
L 602.743192 531.179721 
L 618.353517 528.614125 
L 633.963842 527.558105 
L 649.574167 527.558105 
L 665.184493 527.558105 
L 680.794818 525.79371 
L 696.405143 520.77143 
L 712.015468 517.31993 
L 727.625793 509.652125 
L 743.236118 508.685225 
L 758.846443 508.685225 
L 774.456768 508.685225 
L 790.067093 507.112363 
L 805.677418 503.229925 
L 821.287743 501.526692 
L 836.898068 501.526692 
L 852.508393 501.526692 
L 868.118718 501.526692 
L 883.729044 501.526692 
L 899.339369 501.526692 
L 914.949694 501.526692 
L 930.560019 501.526692 
L 946.170344 501.526692 
L 961.780669 501.526692 
L 977.390994 501.526692 
L 993.001319 501.526692 
L 1008.611644 501.526692 
L 1024.221969 501.526692 
L 1039.832294 501.526692 
L 1055.442619 501.526692 
L 1071.052944 501.526692 
L 1086.663269 501.526692 
L 1102.273594 501.526692 
L 1117.88392 501.526692 
L 1133.494245 501.526692 
L 1149.10457 501.526692 
L 1164.714895 501.526692 
" clip-path="url(#p7da5564376)" style="fill: none; stroke: #ff00ff; stroke-width: 1.5; stroke-linecap: square"/>
   </g>
   <g id="line2d_48">
    <path d="M 150.043765 1947.076944 
L 165.65409 1295.54295 
L 181.264415 841.368185 
L 196.87474 777.17581 
L 212.485065 688.955172 
L 228.095391 688.955172 
L 243.705716 686.12927 
L 259.316041 686.12927 
L 274.926366 686.12927 
L 290.536691 686.12927 
L 306.147016 678.83518 
L 321.757341 669.263744 
L 337.367666 663.773544 
L 352.977991 663.773544 
L 368.588316 648.182641 
L 384.198641 643.118224 
L 399.808966 642.054202 
L 415.419291 642.054202 
L 431.029616 617.618474 
L 446.639942 617.618474 
L 462.250267 609.680038 
L 477.860592 606.059801 
L 493.470917 589.076812 
L 509.081242 585.785506 
L 524.691567 559.566499 
L 540.301892 558.347069 
L 555.912217 553.267434 
L 571.522542 553.267434 
L 587.132867 553.267434 
L 602.743192 553.267434 
L 618.353517 553.267434 
L 633.963842 553.267434 
L 649.574167 553.267434 
L 665.184493 553.267434 
L 680.794818 553.267434 
L 696.405143 553.267434 
L 712.015468 552.513066 
L 727.625793 549.468802 
L 743.236118 539.672989 
L 758.846443 539.672989 
L 774.456768 539.268057 
L 790.067093 539.268057 
L 805.677418 539.268057 
L 821.287743 539.268057 
L 836.898068 539.268057 
L 852.508393 531.131029 
L 868.118718 531.131029 
L 883.729044 531.131029 
L 899.339369 530.887732 
L 914.949694 530.887732 
L 930.560019 530.887732 
L 946.170344 530.887732 
L 961.780669 530.887732 
L 977.390994 525.082527 
L 993.001319 524.326521 
L 1008.611644 524.326521 
L 1024.221969 524.326521 
L 1039.832294 524.279359 
L 1055.442619 524.279359 
L 1071.052944 524.279359 
L 1086.663269 524.279359 
L 1102.273594 523.620177 
L 1117.88392 523.620177 
L 1133.494245 523.620177 
L 1149.10457 523.620177 
L 1164.714895 523.620177 
" clip-path="url(#p7da5564376)" style="fill: none; stroke: #ffff00; stroke-width: 1.5; stroke-linecap: square"/>
   </g>
   <g id="line2d_49">
    <path d="M 103.21279 1640.869731 
L 118.823115 1581.300069 
L 134.43344 1216.115093 
L 150.043765 1006.407023 
L 165.65409 910.810707 
L 181.264415 776.869509 
L 196.87474 714.036722 
L 212.485065 689.769456 
L 228.095391 689.769456 
L 243.705716 689.769456 
L 259.316041 689.769456 
L 274.926366 676.138654 
L 290.536691 676.138654 
L 306.147016 675.947335 
L 321.757341 652.682062 
L 337.367666 646.926165 
L 352.977991 612.222625 
L 368.588316 574.528734 
L 384.198641 553.267434 
L 399.808966 548.463571 
L 415.419291 543.455295 
L 431.029616 541.045307 
L 446.639942 535.061775 
L 462.250267 535.012193 
L 477.860592 535.012193 
L 493.470917 535.012193 
L 509.081242 535.012193 
L 524.691567 535.012193 
L 540.301892 535.012193 
L 555.912217 535.012193 
L 571.522542 535.012193 
L 587.132867 534.467552 
L 602.743192 534.418108 
L 618.353517 534.418108 
L 633.963842 534.418108 
L 649.574167 533.579293 
L 665.184493 533.530053 
L 680.794818 533.530053 
L 696.405143 533.530053 
L 712.015468 533.530053 
L 727.625793 533.480825 
L 743.236118 533.480825 
L 758.846443 533.480825 
L 774.456768 533.480825 
L 790.067093 533.382401 
L 805.677418 533.382401 
L 821.287743 533.382401 
L 836.898068 533.136539 
L 852.508393 533.136539 
L 868.118718 532.155899 
L 883.729044 531.862579 
L 899.339369 531.862579 
L 914.949694 531.862579 
L 930.560019 530.79049 
L 946.170344 530.79049 
L 961.780669 530.693293 
L 977.390994 530.693293 
L 993.001319 530.693293 
L 1008.611644 530.693293 
L 1024.221969 530.693293 
L 1039.832294 530.693293 
L 1055.442619 530.693293 
L 1071.052944 530.693293 
L 1086.663269 530.693293 
L 1102.273594 530.693293 
L 1117.88392 530.693293 
L 1133.494245 530.693293 
L 1149.10457 530.693293 
L 1164.714895 530.693293 
" clip-path="url(#p7da5564376)" style="fill: none; stroke: #000000; stroke-width: 1.5; stroke-linecap: square"/>
   </g>
   <g id="line2d_50">
    <path d="M 103.21279 1885.350845 
L 118.823115 1885.350845 
L 134.43344 1885.350845 
L 150.043765 1300.755278 
L 165.65409 1203.456197 
L 181.264415 1157.373237 
L 196.87474 1147.678777 
L 212.485065 1132.703147 
L 228.095391 1131.101919 
L 243.705716 1086.599929 
L 259.316041 1080.843779 
L 274.926366 995.959673 
L 290.536691 905.171392 
L 306.147016 887.291866 
L 321.757341 869.842054 
L 337.367666 849.156046 
L 352.977991 828.141591 
L 368.588316 820.50507 
L 384.198641 820.50507 
L 399.808966 820.50507 
L 415.419291 820.50507 
L 431.029616 773.981256 
L 446.639942 773.981256 
L 462.250267 764.528888 
L 477.860592 763.663711 
L 493.470917 763.663711 
L 509.081242 763.663711 
L 524.691567 545.736253 
L 540.301892 545.736253 
L 555.912217 545.736253 
L 571.522542 545.736253 
L 587.132867 545.736253 
L 602.743192 545.736253 
L 618.353517 544.437281 
L 633.963842 544.437281 
L 649.574167 544.437281 
L 665.184493 544.437281 
L 680.794818 544.437281 
L 696.405143 544.437281 
L 712.015468 544.437281 
L 727.625793 544.437281 
L 743.236118 544.437281 
L 758.846443 544.437281 
L 774.456768 544.437281 
L 790.067093 544.437281 
L 805.677418 544.437281 
L 821.287743 544.437281 
L 836.898068 544.437281 
L 852.508393 544.437281 
L 868.118718 544.437281 
L 883.729044 544.437281 
L 899.339369 544.437281 
L 914.949694 544.437281 
L 930.560019 544.437281 
L 946.170344 544.437281 
L 961.780669 544.437281 
L 977.390994 544.437281 
L 993.001319 544.437281 
L 1008.611644 544.437281 
L 1024.221969 544.437281 
L 1039.832294 544.437281 
L 1055.442619 544.437281 
L 1071.052944 544.437281 
L 1086.663269 544.437281 
L 1102.273594 544.437281 
L 1117.88392 544.437281 
L 1133.494245 544.437281 
L 1149.10457 544.437281 
L 1164.714895 544.437281 
" clip-path="url(#p7da5564376)" style="fill: none; stroke: #0000ff; stroke-width: 1.5; stroke-linecap: square"/>
   </g>
   <g id="line2d_51">
    <path d="M 103.21279 1534.725928 
L 118.823115 1368.425347 
L 134.43344 1256.423382 
L 150.043765 952.285931 
L 165.65409 894.05443 
L 181.264415 867.028065 
L 196.87474 817.710021 
L 212.485065 804.952798 
L 228.095391 768.907889 
L 243.705716 755.198566 
L 259.316041 743.357571 
L 274.926366 732.136002 
L 290.536691 709.181879 
L 306.147016 685.128972 
L 321.757341 669.17108 
L 337.367666 668.431204 
L 352.977991 662.961998 
L 368.588316 658.244168 
L 384.198641 641.809406 
L 399.808966 639.054398 
L 415.419291 636.891521 
L 431.029616 636.811831 
L 446.639942 636.811831 
L 462.250267 629.604198 
L 477.860592 629.604198 
L 493.470917 620.848366 
L 509.081242 620.848366 
L 524.691567 596.342053 
L 540.301892 595.880696 
L 555.912217 595.880696 
L 571.522542 595.880696 
L 587.132867 595.880696 
L 602.743192 595.880696 
L 618.353517 595.880696 
L 633.963842 595.880696 
L 649.574167 595.880696 
L 665.184493 595.880696 
L 680.794818 595.880696 
L 696.405143 595.880696 
L 712.015468 595.880696 
L 727.625793 595.880696 
L 743.236118 595.880696 
L 758.846443 592.289863 
L 774.456768 591.772531 
L 790.067093 591.256443 
L 805.677418 591.127614 
L 821.287743 585.283603 
L 836.898068 585.283603 
L 852.508393 583.722679 
L 868.118718 583.722679 
L 883.729044 581.248583 
L 899.339369 581.248583 
L 914.949694 581.248583 
L 930.560019 581.248583 
L 946.170344 581.187095 
L 961.780669 581.187095 
L 977.390994 578.256186 
L 993.001319 578.256186 
L 1008.611644 578.256186 
L 1024.221969 578.256186 
L 1039.832294 578.256186 
L 1055.442619 578.256186 
L 1071.052944 578.256186 
L 1086.663269 578.256186 
L 1102.273594 578.256186 
L 1117.88392 578.256186 
L 1133.494245 578.256186 
L 1149.10457 576.264162 
L 1164.714895 576.264162 
" clip-path="url(#p7da5564376)" style="fill: none; stroke: #008000; stroke-width: 1.5; stroke-linecap: square"/>
   </g>
   <g id="line2d_52">
    <path d="M 103.21279 1252.174459 
L 118.823115 1029.460096 
L 134.43344 994.266855 
L 150.043765 922.856453 
L 165.65409 876.311798 
L 181.264415 802.696953 
L 196.87474 802.696953 
L 212.485065 791.268783 
L 228.095391 764.384449 
L 243.705716 730.157304 
L 259.316041 725.770842 
L 274.926366 696.713197 
L 290.536691 696.713197 
L 306.147016 696.713197 
L 321.757341 696.713197 
L 337.367666 696.713197 
L 352.977991 696.713197 
L 368.588316 696.713197 
L 384.198641 696.713197 
L 399.808966 696.713197 
L 415.419291 696.713197 
L 431.029616 696.713197 
L 446.639942 696.713197 
L 462.250267 696.713197 
L 477.860592 696.713197 
L 493.470917 696.713197 
L 509.081242 696.713197 
L 524.691567 696.713197 
L 540.301892 669.541976 
L 555.912217 660.367701 
L 571.522542 656.927554 
L 587.132867 656.840066 
L 602.743192 654.750992 
L 618.353517 654.750992 
L 633.963842 654.750992 
L 649.574167 654.750992 
L 665.184493 654.750992 
L 680.794818 654.750992 
L 696.405143 654.750992 
L 712.015468 654.750992 
L 727.625793 654.750992 
L 743.236118 654.750992 
L 758.846443 654.750992 
L 774.456768 654.750992 
L 790.067093 654.750992 
L 805.677418 654.750992 
L 821.287743 654.750992 
L 836.898068 654.750992 
L 852.508393 654.750992 
L 868.118718 654.750992 
L 883.729044 654.750992 
L 899.339369 654.750992 
L 914.949694 654.750992 
L 930.560019 654.750992 
L 946.170344 654.750992 
L 961.780669 654.750992 
L 977.390994 654.750992 
L 993.001319 654.750992 
L 1008.611644 654.750992 
L 1024.221969 654.750992 
L 1039.832294 654.750992 
L 1055.442619 654.750992 
L 1071.052944 654.750992 
L 1086.663269 654.750992 
L 1102.273594 654.750992 
L 1117.88392 654.750992 
L 1133.494245 654.750992 
L 1149.10457 654.750992 
L 1164.714895 654.750992 
" clip-path="url(#p7da5564376)" style="fill: none; stroke: #ff0000; stroke-width: 1.5; stroke-linecap: square"/>
   </g>
   <g id="line2d_53">
    <path d="M 337.367666 1640.869731 
L 352.977991 1066.799044 
L 368.588316 1019.749679 
L 384.198641 994.688809 
L 399.808966 986.810227 
L 415.419291 948.166183 
L 431.029616 948.166183 
L 446.639942 919.260331 
L 462.250267 833.056227 
L 477.860592 780.418647 
L 493.470917 761.373484 
L 509.081242 750.816771 
L 524.691567 750.816771 
L 540.301892 750.816771 
L 555.912217 750.816771 
L 571.522542 750.816771 
L 587.132867 750.816771 
L 602.743192 750.816771 
L 618.353517 750.816771 
L 633.963842 750.816771 
L 649.574167 742.834563 
L 665.184493 729.788321 
L 680.794818 724.328392 
L 696.405143 724.328392 
L 712.015468 720.646336 
L 727.625793 720.646336 
L 743.236118 720.646336 
L 758.846443 709.517048 
L 774.456768 700.753661 
L 790.067093 691.304618 
L 805.677418 684.332077 
L 821.287743 680.684458 
L 836.898068 680.684458 
L 852.508393 679.029092 
L 868.118718 679.029092 
L 883.729044 664.406876 
L 899.339369 662.961998 
L 914.949694 662.961998 
L 930.560019 662.78207 
L 946.170344 659.126421 
L 961.780669 658.508463 
L 977.390994 657.716552 
L 993.001319 657.716552 
L 1008.611644 657.716552 
L 1024.221969 657.716552 
L 1039.832294 657.716552 
L 1055.442619 657.716552 
L 1071.052944 657.190231 
L 1086.663269 657.015077 
L 1102.273594 656.840066 
L 1117.88392 656.840066 
L 1133.494245 656.840066 
L 1149.10457 656.665197 
L 1164.714895 656.665197 
" clip-path="url(#p7da5564376)" style="fill: none; stroke: #00ffff; stroke-width: 1.5; stroke-linecap: square"/>
   </g>
   <g id="line2d_54">
    <path d="M 118.823115 1986.196512 
L 134.43344 1594.714661 
L 150.043765 1345.577869 
L 165.65409 1307.90806 
L 181.264415 1300.755278 
L 196.87474 1259.303474 
L 212.485065 1246.637027 
L 228.095391 1246.637027 
L 243.705716 1246.637027 
L 259.316041 1205.702957 
L 274.926366 1154.685557 
L 290.536691 1095.196846 
L 306.147016 1075.238025 
L 321.757341 1003.74711 
L 337.367666 962.581279 
L 352.977991 945.462984 
L 368.588316 935.618891 
L 384.198641 926.206698 
L 399.808966 911.382877 
L 415.419291 901.58375 
L 431.029616 884.241148 
L 446.639942 867.72811 
L 462.250267 850.01516 
L 477.860592 822.957252 
L 493.470917 816.602117 
L 509.081242 807.762182 
L 524.691567 773.830314 
L 540.301892 773.830314 
L 555.912217 757.703228 
L 571.522542 744.275912 
L 587.132867 732.011797 
L 602.743192 727.101661 
L 618.353517 724.928235 
L 633.963842 721.235959 
L 649.574167 713.808462 
L 665.184493 710.413398 
L 680.794818 706.739846 
L 696.405143 703.998132 
L 712.015468 701.506328 
L 727.625793 696.187176 
L 743.236118 687.537569 
L 758.846443 687.537569 
L 774.456768 687.537569 
L 790.067093 683.142258 
L 805.677418 683.142258 
L 821.287743 680.196258 
L 836.898068 672.814964 
L 852.508393 668.893327 
L 868.118718 667.877968 
L 883.729044 667.234322 
L 899.339369 666.775755 
L 914.949694 665.952795 
L 930.560019 664.860403 
L 946.170344 664.044743 
L 961.780669 664.044743 
L 977.390994 661.616205 
L 993.001319 660.45664 
L 1008.611644 660.45664 
L 1024.221969 660.45664 
L 1039.832294 660.45664 
L 1055.442619 660.45664 
L 1071.052944 660.45664 
L 1086.663269 660.45664 
L 1102.273594 660.45664 
L 1117.88392 660.45664 
L 1133.494245 660.45664 
L 1149.10457 660.45664 
L 1164.714895 660.45664 
" clip-path="url(#p7da5564376)" style="fill: none; stroke: #ff00ff; stroke-width: 1.5; stroke-linecap: square"/>
   </g>
   <g id="line2d_55">
    <path d="M 134.43344 1375.782534 
L 150.043765 1375.782534 
L 165.65409 1168.473829 
L 181.264415 1078.334235 
L 196.87474 1030.955319 
L 212.485065 825.054292 
L 228.095391 809.358776 
L 243.705716 808.647712 
L 259.316041 808.647712 
L 274.926366 808.293061 
L 290.536691 808.293061 
L 306.147016 808.293061 
L 321.757341 781.041925 
L 337.367666 759.954408 
L 352.977991 759.954408 
L 368.588316 750.005054 
L 384.198641 743.357571 
L 399.808966 743.357571 
L 415.419291 743.357571 
L 431.029616 743.357571 
L 446.639942 743.357571 
L 462.250267 743.357571 
L 477.860592 743.357571 
L 493.470917 740.367542 
L 509.081242 705.419451 
L 524.691567 665.223916 
L 540.301892 665.223916 
L 555.912217 665.223916 
L 571.522542 665.223916 
L 587.132867 665.223916 
L 602.743192 665.223916 
L 618.353517 665.223916 
L 633.963842 665.223916 
L 649.574167 665.223916 
L 665.184493 665.223916 
L 680.794818 665.223916 
L 696.405143 665.223916 
L 712.015468 665.223916 
L 727.625793 665.223916 
L 743.236118 665.223916 
L 758.846443 665.223916 
L 774.456768 665.223916 
L 790.067093 665.223916 
L 805.677418 665.223916 
L 821.287743 665.223916 
L 836.898068 665.223916 
L 852.508393 665.223916 
L 868.118718 665.223916 
L 883.729044 665.223916 
L 899.339369 665.223916 
L 914.949694 665.223916 
L 930.560019 665.223916 
L 946.170344 665.223916 
L 961.780669 665.223916 
L 977.390994 665.223916 
L 993.001319 665.223916 
L 1008.611644 665.223916 
L 1024.221969 665.223916 
L 1039.832294 665.223916 
L 1055.442619 665.223916 
L 1071.052944 665.223916 
L 1086.663269 665.223916 
L 1102.273594 665.223916 
L 1117.88392 665.223916 
L 1133.494245 665.223916 
L 1149.10457 665.223916 
L 1164.714895 665.223916 
" clip-path="url(#p7da5564376)" style="fill: none; stroke: #ffff00; stroke-width: 1.5; stroke-linecap: square"/>
   </g>
   <g id="line2d_56">
    <path d="M 165.65409 1127.15036 
L 181.264415 1125.58989 
L 196.87474 995.535215 
L 212.485065 995.535215 
L 228.095391 969.980757 
L 243.705716 956.486331 
L 259.316041 945.462984 
L 274.926366 935.618891 
L 290.536691 934.978402 
L 306.147016 871.500754 
L 321.757341 808.647712 
L 337.367666 802.86964 
L 352.977991 802.86964 
L 368.588316 802.696953 
L 384.198641 802.524405 
L 399.808966 801.320438 
L 415.419291 801.320438 
L 431.029616 801.320438 
L 446.639942 720.528606 
L 462.250267 690.17776 
L 477.860592 690.17776 
L 493.470917 690.17776 
L 509.081242 690.17776 
L 524.691567 690.17776 
L 540.301892 690.075611 
L 555.912217 687.436669 
L 571.522542 683.241158 
L 587.132867 683.241158 
L 602.743192 683.241158 
L 618.353517 682.352694 
L 633.963842 682.352694 
L 649.574167 682.155757 
L 665.184493 681.369808 
L 680.794818 681.369808 
L 696.405143 680.977911 
L 712.015468 680.977911 
L 727.625793 680.977911 
L 743.236118 680.977911 
L 758.846443 680.977911 
L 774.456768 680.977911 
L 790.067093 680.977911 
L 805.677418 680.977911 
L 821.287743 680.977911 
L 836.898068 680.977911 
L 852.508393 680.977911 
L 868.118718 680.977911 
L 883.729044 680.293809 
L 899.339369 680.293809 
L 914.949694 680.293809 
L 930.560019 680.293809 
L 946.170344 680.293809 
L 961.780669 680.293809 
L 977.390994 680.293809 
L 993.001319 680.293809 
L 1008.611644 680.293809 
L 1024.221969 678.738289 
L 1039.832294 678.447881 
L 1055.442619 678.447881 
L 1071.052944 678.447881 
L 1086.663269 672.909216 
L 1102.273594 672.909216 
L 1117.88392 672.909216 
L 1133.494245 671.687164 
L 1149.10457 671.687164 
L 1164.714895 671.687164 
" clip-path="url(#p7da5564376)" style="fill: none; stroke: #000000; stroke-width: 1.5; stroke-linecap: square"/>
   </g>
   <g id="line2d_57">
    <path d="M 103.21279 1467.829372 
L 118.823115 1467.829372 
L 134.43344 1378.292078 
L 150.043765 1378.292078 
L 165.65409 1378.292078 
L 181.264415 1378.292078 
L 196.87474 1102.052497 
L 212.485065 1054.732048 
L 228.095391 975.702792 
L 243.705716 909.670924 
L 259.316041 855.02296 
L 274.926366 843.445293 
L 290.536691 843.445293 
L 306.147016 814.950914 
L 321.757341 814.950914 
L 337.367666 814.950914 
L 352.977991 784.820105 
L 368.588316 784.820105 
L 384.198641 784.820105 
L 399.808966 784.820105 
L 415.419291 781.198028 
L 431.029616 751.223784 
L 446.639942 751.223784 
L 462.250267 751.223784 
L 477.860592 742.182592 
L 493.470917 742.182592 
L 509.081242 742.182592 
L 524.691567 718.303916 
L 540.301892 718.303916 
L 555.912217 718.303916 
L 571.522542 718.303916 
L 587.132867 718.303916 
L 602.743192 716.910641 
L 618.353517 716.910641 
L 633.963842 716.910641 
L 649.574167 716.910641 
L 665.184493 716.910641 
L 680.794818 716.910641 
L 696.405143 716.910641 
L 712.015468 716.910641 
L 727.625793 716.910641 
L 743.236118 716.910641 
L 758.846443 716.910641 
L 774.456768 716.910641 
L 790.067093 716.910641 
L 805.677418 716.910641 
L 821.287743 716.910641 
L 836.898068 716.910641 
L 852.508393 716.910641 
L 868.118718 716.910641 
L 883.729044 716.910641 
L 899.339369 716.910641 
L 914.949694 716.910641 
L 930.560019 716.910641 
L 946.170344 716.910641 
L 961.780669 716.910641 
L 977.390994 716.910641 
L 993.001319 716.910641 
L 1008.611644 716.910641 
L 1024.221969 716.910641 
L 1039.832294 716.910641 
L 1055.442619 716.910641 
L 1071.052944 716.910641 
L 1086.663269 716.910641 
L 1102.273594 716.910641 
L 1117.88392 716.910641 
L 1133.494245 716.910641 
L 1149.10457 716.910641 
L 1164.714895 716.910641 
" clip-path="url(#p7da5564376)" style="fill: none; stroke: #0000ff; stroke-width: 1.5; stroke-linecap: square"/>
   </g>
   <g id="line2d_58">
    <path d="M 352.977991 964.407363 
L 368.588316 964.407363 
L 384.198641 964.407363 
L 399.808966 964.407363 
L 415.419291 964.407363 
L 431.029616 964.407363 
L 446.639942 964.407363 
L 462.250267 964.407363 
L 477.860592 964.407363 
L 493.470917 964.407363 
L 509.081242 964.407363 
L 524.691567 964.407363 
L 540.301892 964.407363 
L 555.912217 964.407363 
L 571.522542 964.407363 
L 587.132867 964.407363 
L 602.743192 964.407363 
L 618.353517 964.407363 
L 633.963842 964.407363 
L 649.574167 964.407363 
L 665.184493 964.407363 
L 680.794818 964.407363 
L 696.405143 964.407363 
L 712.015468 964.407363 
L 727.625793 964.407363 
L 743.236118 964.407363 
L 758.846443 964.407363 
L 774.456768 964.407363 
L 790.067093 964.407363 
L 805.677418 964.407363 
L 821.287743 964.407363 
L 836.898068 964.407363 
L 852.508393 964.407363 
L 868.118718 964.407363 
L 883.729044 724.688097 
L 899.339369 724.688097 
L 914.949694 724.688097 
L 930.560019 724.688097 
L 946.170344 724.688097 
L 961.780669 724.688097 
L 977.390994 724.688097 
L 993.001319 724.688097 
L 1008.611644 724.688097 
L 1024.221969 724.688097 
L 1039.832294 724.688097 
L 1055.442619 724.688097 
L 1071.052944 724.688097 
L 1086.663269 724.448227 
L 1102.273594 724.448227 
L 1117.88392 724.448227 
L 1133.494245 724.448227 
L 1149.10457 724.448227 
L 1164.714895 724.448227 
" clip-path="url(#p7da5564376)" style="fill: none; stroke: #008000; stroke-width: 1.5; stroke-linecap: square"/>
   </g>
   <g id="line2d_59">
    <path d="M 103.21279 1914.00182 
L 118.823115 1914.00182 
L 134.43344 1601.750163 
L 150.043765 1370.84982 
L 165.65409 1238.589949 
L 181.264415 1129.512552 
L 196.87474 1128.722261 
L 212.485065 1079.585338 
L 228.095391 1068.579664 
L 243.705716 1068.579664 
L 259.316041 993.425428 
L 274.926366 944.124049 
L 290.536691 899.40542 
L 306.147016 890.386587 
L 321.757341 851.093914 
L 337.367666 846.175948 
L 352.977991 843.863138 
L 368.588316 837.882603 
L 384.198641 837.882603 
L 399.808966 819.756157 
L 415.419291 805.476763 
L 431.029616 795.733851 
L 446.639942 785.775138 
L 462.250267 776.869509 
L 477.860592 772.476596 
L 493.470917 771.429578 
L 509.081242 762.945386 
L 524.691567 751.088027 
L 540.301892 748.390774 
L 555.912217 748.390774 
L 571.522542 748.390774 
L 587.132867 748.390774 
L 602.743192 748.390774 
L 618.353517 748.390774 
L 633.963842 748.390774 
L 649.574167 748.390774 
L 665.184493 748.122905 
L 680.794818 748.122905 
L 696.405143 748.122905 
L 712.015468 747.989095 
L 727.625793 747.989095 
L 743.236118 747.989095 
L 758.846443 747.989095 
L 774.456768 747.989095 
L 790.067093 747.989095 
L 805.677418 747.989095 
L 821.287743 747.989095 
L 836.898068 747.989095 
L 852.508393 747.989095 
L 868.118718 747.187986 
L 883.729044 747.187986 
L 899.339369 747.187986 
L 914.949694 747.187986 
L 930.560019 747.187986 
L 946.170344 747.054758 
L 961.780669 747.054758 
L 977.390994 747.054758 
L 993.001319 747.054758 
L 1008.611644 747.054758 
L 1024.221969 747.054758 
L 1039.832294 747.054758 
L 1055.442619 747.054758 
L 1071.052944 746.78855 
L 1086.663269 746.78855 
L 1102.273594 746.78855 
L 1117.88392 746.78855 
L 1133.494245 746.78855 
L 1149.10457 746.65557 
L 1164.714895 746.65557 
" clip-path="url(#p7da5564376)" style="fill: none; stroke: #ff0000; stroke-width: 1.5; stroke-linecap: square"/>
   </g>
   <g id="line2d_60">
    <path d="M 306.147016 1594.714661 
L 321.757341 1269.699591 
L 337.367666 1269.699591 
L 352.977991 1164.709459 
L 368.588316 1155.577715 
L 384.198641 1155.577715 
L 399.808966 1155.577715 
L 415.419291 1155.577715 
L 431.029616 1155.577715 
L 446.639942 1152.031128 
L 462.250267 1152.031128 
L 477.860592 1152.031128 
L 493.470917 1152.031128 
L 509.081242 1152.031128 
L 524.691567 1152.031128 
L 540.301892 1081.475778 
L 555.912217 1081.475778 
L 571.522542 1081.475778 
L 587.132867 1081.475778 
L 602.743192 1081.475778 
L 618.353517 1081.475778 
L 633.963842 1081.475778 
L 649.574167 1081.475778 
L 665.184493 1070.375186 
L 680.794818 1070.375186 
L 696.405143 1070.375186 
L 712.015468 1070.375186 
L 727.625793 1070.375186 
L 743.236118 1043.307713 
L 758.846443 1043.307713 
L 774.456768 1043.307713 
L 790.067093 1043.307713 
L 805.677418 1043.307713 
L 821.287743 1043.307713 
L 836.898068 1043.307713 
L 852.508393 1043.307713 
L 868.118718 1043.307713 
L 883.729044 983.577569 
L 899.339369 935.298408 
L 914.949694 935.298408 
L 930.560019 935.298408 
L 946.170344 935.298408 
L 961.780669 877.042851 
L 977.390994 877.042851 
L 993.001319 877.042851 
L 1008.611644 877.042851 
L 1024.221969 877.042851 
L 1039.832294 877.042851 
L 1055.442619 774.889143 
L 1071.052944 768.171821 
L 1086.663269 768.171821 
L 1102.273594 768.171821 
L 1117.88392 768.171821 
L 1133.494245 762.945386 
L 1149.10457 762.945386 
L 1164.714895 762.945386 
" clip-path="url(#p7da5564376)" style="fill: none; stroke: #00ffff; stroke-width: 1.5; stroke-linecap: square"/>
   </g>
   <g id="line2d_61">
    <path d="M 118.823115 1471.695487 
L 134.43344 1319.105223 
L 150.043765 1238.589949 
L 165.65409 1177.193188 
L 181.264415 1173.274109 
L 196.87474 1120.975442 
L 212.485065 1026.990983 
L 228.095391 1012.744805 
L 243.705716 1012.744805 
L 259.316041 1002.429417 
L 274.926366 991.752409 
L 290.536691 980.788402 
L 306.147016 972.251292 
L 321.757341 962.21792 
L 337.367666 962.21792 
L 352.977991 951.59379 
L 368.588316 931.489487 
L 384.198641 920.751398 
L 399.808966 903.784421 
L 415.419291 880.984428 
L 431.029616 867.961967 
L 446.639942 866.562634 
L 462.250267 847.235523 
L 477.860592 837.476232 
L 493.470917 826.785429 
L 509.081242 819.756157 
L 524.691567 816.970783 
L 540.301892 816.970783 
L 555.912217 816.970783 
L 571.522542 816.970783 
L 587.132867 816.970783 
L 602.743192 816.970783 
L 618.353517 816.970783 
L 633.963842 816.970783 
L 649.574167 816.970783 
L 665.184493 816.970783 
L 680.794818 816.970783 
L 696.405143 816.970783 
L 712.015468 816.970783 
L 727.625793 816.970783 
L 743.236118 816.970783 
L 758.846443 816.970783 
L 774.456768 816.970783 
L 790.067093 816.970783 
L 805.677418 816.970783 
L 821.287743 816.970783 
L 836.898068 816.970783 
L 852.508393 816.970783 
L 868.118718 816.970783 
L 883.729044 816.970783 
L 899.339369 816.970783 
L 914.949694 816.970783 
L 930.560019 816.970783 
L 946.170344 816.970783 
L 961.780669 816.970783 
L 977.390994 816.970783 
L 993.001319 816.970783 
L 1008.611644 816.970783 
L 1024.221969 816.970783 
L 1039.832294 816.970783 
L 1055.442619 816.970783 
L 1071.052944 816.970783 
L 1086.663269 816.970783 
L 1102.273594 816.970783 
L 1117.88392 816.970783 
L 1133.494245 816.970783 
L 1149.10457 816.970783 
L 1164.714895 816.970783 
" clip-path="url(#p7da5564376)" style="fill: none; stroke: #ff00ff; stroke-width: 1.5; stroke-linecap: square"/>
   </g>
   <g id="line2d_62">
    <path d="M 103.21279 1534.725928 
L 118.823115 1534.725928 
L 134.43344 1086.599929 
L 150.043765 953.328347 
L 165.65409 873.652385 
L 181.264415 873.652385 
L 196.87474 837.679321 
L 212.485065 837.679321 
L 228.095391 818.451815 
L 243.705716 818.451815 
L 259.316041 818.451815 
L 274.926366 818.451815 
L 290.536691 818.451815 
L 306.147016 818.451815 
L 321.757341 818.451815 
L 337.367666 818.451815 
L 352.977991 818.451815 
L 368.588316 818.451815 
L 384.198641 818.451815 
L 399.808966 818.451815 
L 415.419291 818.451815 
L 431.029616 818.451815 
L 446.639942 818.451815 
L 462.250267 818.451815 
L 477.860592 818.451815 
L 493.470917 818.451815 
L 509.081242 818.451815 
L 524.691567 818.451815 
L 540.301892 818.451815 
L 555.912217 818.451815 
L 571.522542 818.451815 
L 587.132867 818.451815 
L 602.743192 818.451815 
L 618.353517 818.451815 
L 633.963842 818.451815 
L 649.574167 818.451815 
L 665.184493 818.451815 
L 680.794818 818.451815 
L 696.405143 818.451815 
L 712.015468 818.451815 
L 727.625793 818.451815 
L 743.236118 818.451815 
L 758.846443 817.895229 
L 774.456768 817.895229 
L 790.067093 817.895229 
L 805.677418 817.895229 
L 821.287743 817.895229 
L 836.898068 817.895229 
L 852.508393 817.895229 
L 868.118718 817.895229 
L 883.729044 817.895229 
L 899.339369 817.895229 
L 914.949694 817.895229 
L 930.560019 817.895229 
L 946.170344 817.895229 
L 961.780669 817.895229 
L 977.390994 817.895229 
L 993.001319 817.895229 
L 1008.611644 817.895229 
L 1024.221969 817.895229 
L 1039.832294 817.895229 
L 1055.442619 817.895229 
L 1071.052944 817.895229 
L 1086.663269 817.895229 
L 1102.273594 817.895229 
L 1117.88392 817.895229 
L 1133.494245 817.895229 
L 1149.10457 817.895229 
L 1164.714895 817.895229 
" clip-path="url(#p7da5564376)" style="fill: none; stroke: #ffff00; stroke-width: 1.5; stroke-linecap: square"/>
   </g>
   <g id="patch_3">
    <path d="M 50.137685 2080.263013 
L 50.137685 10.8 
" style="fill: none; stroke: #000000; stroke-width: 0.8; stroke-linejoin: miter; stroke-linecap: square"/>
   </g>
   <g id="patch_4">
    <path d="M 1217.79 2080.263013 
L 1217.79 10.8 
" style="fill: none; stroke: #000000; stroke-width: 0.8; stroke-linejoin: miter; stroke-linecap: square"/>
   </g>
   <g id="patch_5">
    <path d="M 50.137685 2080.263013 
L 1217.79 2080.263013 
" style="fill: none; stroke: #000000; stroke-width: 0.8; stroke-linejoin: miter; stroke-linecap: square"/>
   </g>
   <g id="patch_6">
    <path d="M 50.137685 10.8 
L 1217.79 10.8 
" style="fill: none; stroke: #000000; stroke-width: 0.8; stroke-linejoin: miter; stroke-linecap: square"/>
   </g>
   <g id="text_12">
    <!-- OpenCode -->
    <g style="fill: #ffff00" transform="translate(1241.143046 820.654604) scale(0.1 -0.1)">
     <defs>
      <path id="DejaVuSans-Bold-4f" d="M 2719 3878 
Q 2169 3878 1866 3472 
Q 1563 3066 1563 2328 
Q 1563 1594 1866 1187 
Q 2169 781 2719 781 
Q 3272 781 3575 1187 
Q 3878 1594 3878 2328 
Q 3878 3066 3575 3472 
Q 3272 3878 2719 3878 
z
M 2719 4750 
Q 3844 4750 4481 4106 
Q 5119 3463 5119 2328 
Q 5119 1197 4481 553 
Q 3844 -91 2719 -91 
Q 1597 -91 958 553 
Q 319 1197 319 2328 
Q 319 3463 958 4106 
Q 1597 4750 2719 4750 
z
" transform="scale(0.015625)"/>
      <path id="DejaVuSans-Bold-70" d="M 1656 506 
L 1656 -1331 
L 538 -1331 
L 538 3500 
L 1656 3500 
L 1656 2988 
Q 1888 3294 2169 3439 
Q 2450 3584 2816 3584 
Q 3463 3584 3878 3070 
Q 4294 2556 4294 1747 
Q 4294 938 3878 423 
Q 3463 -91 2816 -91 
Q 2450 -91 2169 54 
Q 1888 200 1656 506 
z
M 2400 2772 
Q 2041 2772 1848 2508 
Q 1656 2244 1656 1747 
Q 1656 1250 1848 986 
Q 2041 722 2400 722 
Q 2759 722 2948 984 
Q 3138 1247 3138 1747 
Q 3138 2247 2948 2509 
Q 2759 2772 2400 2772 
z
" transform="scale(0.015625)"/>
      <path id="DejaVuSans-Bold-65" d="M 4031 1759 
L 4031 1441 
L 1416 1441 
Q 1456 1047 1700 850 
Q 1944 653 2381 653 
Q 2734 653 3104 758 
Q 3475 863 3866 1075 
L 3866 213 
Q 3469 63 3072 -14 
Q 2675 -91 2278 -91 
Q 1328 -91 801 392 
Q 275 875 275 1747 
Q 275 2603 792 3093 
Q 1309 3584 2216 3584 
Q 3041 3584 3536 3087 
Q 4031 2591 4031 1759 
z
M 2881 2131 
Q 2881 2450 2695 2645 
Q 2509 2841 2209 2841 
Q 1884 2841 1681 2658 
Q 1478 2475 1428 2131 
L 2881 2131 
z
" transform="scale(0.015625)"/>
      <path id="DejaVuSans-Bold-6e" d="M 4056 2131 
L 4056 0 
L 2931 0 
L 2931 347 
L 2931 1631 
Q 2931 2084 2911 2256 
Q 2891 2428 2841 2509 
Q 2775 2619 2662 2680 
Q 2550 2741 2406 2741 
Q 2056 2741 1856 2470 
Q 1656 2200 1656 1722 
L 1656 0 
L 538 0 
L 538 3500 
L 1656 3500 
L 1656 2988 
Q 1909 3294 2193 3439 
Q 2478 3584 2822 3584 
Q 3428 3584 3742 3212 
Q 4056 2841 4056 2131 
z
" transform="scale(0.015625)"/>
      <path id="DejaVuSans-Bold-43" d="M 4288 256 
Q 3956 84 3597 -3 
Q 3238 -91 2847 -91 
Q 1681 -91 1000 561 
Q 319 1213 319 2328 
Q 319 3447 1000 4098 
Q 1681 4750 2847 4750 
Q 3238 4750 3597 4662 
Q 3956 4575 4288 4403 
L 4288 3438 
Q 3953 3666 3628 3772 
Q 3303 3878 2944 3878 
Q 2300 3878 1931 3465 
Q 1563 3053 1563 2328 
Q 1563 1606 1931 1193 
Q 2300 781 2944 781 
Q 3303 781 3628 887 
Q 3953 994 4288 1222 
L 4288 256 
z
" transform="scale(0.015625)"/>
      <path id="DejaVuSans-Bold-6f" d="M 2203 2784 
Q 1831 2784 1636 2517 
Q 1441 2250 1441 1747 
Q 1441 1244 1636 976 
Q 1831 709 2203 709 
Q 2569 709 2762 976 
Q 2956 1244 2956 1747 
Q 2956 2250 2762 2517 
Q 2569 2784 2203 2784 
z
M 2203 3584 
Q 3106 3584 3614 3096 
Q 4122 2609 4122 1747 
Q 4122 884 3614 396 
Q 3106 -91 2203 -91 
Q 1297 -91 786 396 
Q 275 884 275 1747 
Q 275 2609 786 3096 
Q 1297 3584 2203 3584 
z
" transform="scale(0.015625)"/>
      <path id="DejaVuSans-Bold-64" d="M 2919 2988 
L 2919 4863 
L 4044 4863 
L 4044 0 
L 2919 0 
L 2919 506 
Q 2688 197 2409 53 
Q 2131 -91 1766 -91 
Q 1119 -91 703 423 
Q 288 938 288 1747 
Q 288 2556 703 3070 
Q 1119 3584 1766 3584 
Q 2128 3584 2408 3439 
Q 2688 3294 2919 2988 
z
M 2181 722 
Q 2541 722 2730 984 
Q 2919 1247 2919 1747 
Q 2919 2247 2730 2509 
Q 2541 2772 2181 2772 
Q 1825 2772 1636 2509 
Q 1447 2247 1447 1747 
Q 1447 1247 1636 984 
Q 1825 722 2181 722 
z
" transform="scale(0.015625)"/>
     </defs>
     <use xlink:href="#DejaVuSans-Bold-4f"/>
     <use xlink:href="#DejaVuSans-Bold-70" transform="translate(85.009766 0)"/>
     <use xlink:href="#DejaVuSans-Bold-65" transform="translate(156.591797 0)"/>
     <use xlink:href="#DejaVuSans-Bold-6e" transform="translate(224.414062 0)"/>
     <use xlink:href="#DejaVuSans-Bold-43" transform="translate(295.605469 0)"/>
     <use xlink:href="#DejaVuSans-Bold-6f" transform="translate(368.994141 0)"/>
     <use xlink:href="#DejaVuSans-Bold-64" transform="translate(437.695312 0)"/>
     <use xlink:href="#DejaVuSans-Bold-65" transform="translate(509.277344 0)"/>
    </g>
   </g>
   <g id="text_13">
    <!-- Max1234-ITA -->
    <g style="fill: #ff00ff" transform="translate(1241.143046 800.20451) scale(0.1 -0.1)">
     <defs>
      <path id="DejaVuSans-Bold-4d" d="M 588 4666 
L 2119 4666 
L 3181 2169 
L 4250 4666 
L 5778 4666 
L 5778 0 
L 4641 0 
L 4641 3413 
L 3566 897 
L 2803 897 
L 1728 3413 
L 1728 0 
L 588 0 
L 588 4666 
z
" transform="scale(0.015625)"/>
      <path id="DejaVuSans-Bold-61" d="M 2106 1575 
Q 1756 1575 1579 1456 
Q 1403 1338 1403 1106 
Q 1403 894 1545 773 
Q 1688 653 1941 653 
Q 2256 653 2472 879 
Q 2688 1106 2688 1447 
L 2688 1575 
L 2106 1575 
z
M 3816 1997 
L 3816 0 
L 2688 0 
L 2688 519 
Q 2463 200 2181 54 
Q 1900 -91 1497 -91 
Q 953 -91 614 226 
Q 275 544 275 1050 
Q 275 1666 698 1953 
Q 1122 2241 2028 2241 
L 2688 2241 
L 2688 2328 
Q 2688 2594 2478 2717 
Q 2269 2841 1825 2841 
Q 1466 2841 1156 2769 
Q 847 2697 581 2553 
L 581 3406 
Q 941 3494 1303 3539 
Q 1666 3584 2028 3584 
Q 2975 3584 3395 3211 
Q 3816 2838 3816 1997 
z
" transform="scale(0.015625)"/>
      <path id="DejaVuSans-Bold-78" d="M 1422 1791 
L 159 3500 
L 1344 3500 
L 2059 2463 
L 2784 3500 
L 3969 3500 
L 2706 1797 
L 4031 0 
L 2847 0 
L 2059 1106 
L 1281 0 
L 97 0 
L 1422 1791 
z
" transform="scale(0.015625)"/>
      <path id="DejaVuSans-Bold-31" d="M 750 831 
L 1813 831 
L 1813 3847 
L 722 3622 
L 722 4441 
L 1806 4666 
L 2950 4666 
L 2950 831 
L 4013 831 
L 4013 0 
L 750 0 
L 750 831 
z
" transform="scale(0.015625)"/>
      <path id="DejaVuSans-Bold-32" d="M 1844 884 
L 3897 884 
L 3897 0 
L 506 0 
L 506 884 
L 2209 2388 
Q 2438 2594 2547 2791 
Q 2656 2988 2656 3200 
Q 2656 3528 2436 3728 
Q 2216 3928 1850 3928 
Q 1569 3928 1234 3808 
Q 900 3688 519 3450 
L 519 4475 
Q 925 4609 1322 4679 
Q 1719 4750 2100 4750 
Q 2938 4750 3402 4381 
Q 3866 4013 3866 3353 
Q 3866 2972 3669 2642 
Q 3472 2313 2841 1759 
L 1844 884 
z
" transform="scale(0.015625)"/>
      <path id="DejaVuSans-Bold-33" d="M 2981 2516 
Q 3453 2394 3698 2092 
Q 3944 1791 3944 1325 
Q 3944 631 3412 270 
Q 2881 -91 1863 -91 
Q 1503 -91 1142 -33 
Q 781 25 428 141 
L 428 1069 
Q 766 900 1098 814 
Q 1431 728 1753 728 
Q 2231 728 2486 893 
Q 2741 1059 2741 1369 
Q 2741 1688 2480 1852 
Q 2219 2016 1709 2016 
L 1228 2016 
L 1228 2791 
L 1734 2791 
Q 2188 2791 2409 2933 
Q 2631 3075 2631 3366 
Q 2631 3634 2415 3781 
Q 2200 3928 1806 3928 
Q 1516 3928 1219 3862 
Q 922 3797 628 3669 
L 628 4550 
Q 984 4650 1334 4700 
Q 1684 4750 2022 4750 
Q 2931 4750 3382 4451 
Q 3834 4153 3834 3553 
Q 3834 3144 3618 2883 
Q 3403 2622 2981 2516 
z
" transform="scale(0.015625)"/>
      <path id="DejaVuSans-Bold-34" d="M 2356 3675 
L 1038 1722 
L 2356 1722 
L 2356 3675 
z
M 2156 4666 
L 3494 4666 
L 3494 1722 
L 4159 1722 
L 4159 850 
L 3494 850 
L 3494 0 
L 2356 0 
L 2356 850 
L 288 850 
L 288 1881 
L 2156 4666 
z
" transform="scale(0.015625)"/>
      <path id="DejaVuSans-Bold-2d" d="M 347 2297 
L 2309 2297 
L 2309 1388 
L 347 1388 
L 347 2297 
z
" transform="scale(0.015625)"/>
      <path id="DejaVuSans-Bold-49" d="M 588 4666 
L 1791 4666 
L 1791 0 
L 588 0 
L 588 4666 
z
" transform="scale(0.015625)"/>
      <path id="DejaVuSans-Bold-54" d="M 31 4666 
L 4331 4666 
L 4331 3756 
L 2784 3756 
L 2784 0 
L 1581 0 
L 1581 3756 
L 31 3756 
L 31 4666 
z
" transform="scale(0.015625)"/>
      <path id="DejaVuSans-Bold-41" d="M 3419 850 
L 1538 850 
L 1241 0 
L 31 0 
L 1759 4666 
L 3194 4666 
L 4922 0 
L 3713 0 
L 3419 850 
z
M 1838 1716 
L 3116 1716 
L 2478 3572 
L 1838 1716 
z
" transform="scale(0.015625)"/>
     </defs>
     <use xlink:href="#DejaVuSans-Bold-4d"/>
     <use xlink:href="#DejaVuSans-Bold-61" transform="translate(99.511719 0)"/>
     <use xlink:href="#DejaVuSans-Bold-78" transform="translate(166.992188 0)"/>
     <use xlink:href="#DejaVuSans-Bold-31" transform="translate(231.494141 0)"/>
     <use xlink:href="#DejaVuSans-Bold-32" transform="translate(301.074219 0)"/>
     <use xlink:href="#DejaVuSans-Bold-33" transform="translate(370.654297 0)"/>
     <use xlink:href="#DejaVuSans-Bold-34" transform="translate(440.234375 0)"/>
     <use xlink:href="#DejaVuSans-Bold-2d" transform="translate(509.814453 0)"/>
     <use xlink:href="#DejaVuSans-Bold-49" transform="translate(551.318359 0)"/>
     <use xlink:href="#DejaVuSans-Bold-54" transform="translate(588.525391 0)"/>
     <use xlink:href="#DejaVuSans-Bold-41" transform="translate(648.988281 0)"/>
    </g>
   </g>
   <g id="text_14">
    <!-- Aury88 -->
    <g style="fill: #00ffff" transform="translate(1241.143046 765.626636) scale(0.1 -0.1)">
     <defs>
      <path id="DejaVuSans-Bold-75" d="M 500 1363 
L 500 3500 
L 1625 3500 
L 1625 3150 
Q 1625 2866 1622 2436 
Q 1619 2006 1619 1863 
Q 1619 1441 1641 1255 
Q 1663 1069 1716 984 
Q 1784 875 1895 815 
Q 2006 756 2150 756 
Q 2500 756 2700 1025 
Q 2900 1294 2900 1772 
L 2900 3500 
L 4019 3500 
L 4019 0 
L 2900 0 
L 2900 506 
Q 2647 200 2364 54 
Q 2081 -91 1741 -91 
Q 1134 -91 817 281 
Q 500 653 500 1363 
z
" transform="scale(0.015625)"/>
      <path id="DejaVuSans-Bold-72" d="M 3138 2547 
Q 2991 2616 2845 2648 
Q 2700 2681 2553 2681 
Q 2122 2681 1889 2404 
Q 1656 2128 1656 1613 
L 1656 0 
L 538 0 
L 538 3500 
L 1656 3500 
L 1656 2925 
Q 1872 3269 2151 3426 
Q 2431 3584 2822 3584 
Q 2878 3584 2943 3579 
Q 3009 3575 3134 3559 
L 3138 2547 
z
" transform="scale(0.015625)"/>
      <path id="DejaVuSans-Bold-79" d="M 78 3500 
L 1197 3500 
L 2138 1125 
L 2938 3500 
L 4056 3500 
L 2584 -331 
Q 2363 -916 2067 -1148 
Q 1772 -1381 1288 -1381 
L 641 -1381 
L 641 -647 
L 991 -647 
Q 1275 -647 1404 -556 
Q 1534 -466 1606 -231 
L 1638 -134 
L 78 3500 
z
" transform="scale(0.015625)"/>
      <path id="DejaVuSans-Bold-38" d="M 2228 2088 
Q 1891 2088 1709 1903 
Q 1528 1719 1528 1375 
Q 1528 1031 1709 848 
Q 1891 666 2228 666 
Q 2563 666 2741 848 
Q 2919 1031 2919 1375 
Q 2919 1722 2741 1905 
Q 2563 2088 2228 2088 
z
M 1350 2484 
Q 925 2613 709 2878 
Q 494 3144 494 3541 
Q 494 4131 934 4440 
Q 1375 4750 2228 4750 
Q 3075 4750 3515 4442 
Q 3956 4134 3956 3541 
Q 3956 3144 3739 2878 
Q 3522 2613 3097 2484 
Q 3572 2353 3814 2058 
Q 4056 1763 4056 1313 
Q 4056 619 3595 264 
Q 3134 -91 2228 -91 
Q 1319 -91 855 264 
Q 391 619 391 1313 
Q 391 1763 633 2058 
Q 875 2353 1350 2484 
z
M 1631 3419 
Q 1631 3141 1786 2991 
Q 1941 2841 2228 2841 
Q 2509 2841 2662 2991 
Q 2816 3141 2816 3419 
Q 2816 3697 2662 3845 
Q 2509 3994 2228 3994 
Q 1941 3994 1786 3844 
Q 1631 3694 1631 3419 
z
" transform="scale(0.015625)"/>
     </defs>
     <use xlink:href="#DejaVuSans-Bold-41"/>
     <use xlink:href="#DejaVuSans-Bold-75" transform="translate(77.392578 0)"/>
     <use xlink:href="#DejaVuSans-Bold-72" transform="translate(148.583984 0)"/>
     <use xlink:href="#DejaVuSans-Bold-79" transform="translate(197.900391 0)"/>
     <use xlink:href="#DejaVuSans-Bold-38" transform="translate(263.085938 0)"/>
     <use xlink:href="#DejaVuSans-Bold-38" transform="translate(332.666016 0)"/>
    </g>
   </g>
   <g id="text_15">
    <!-- nicola_yubo -->
    <g style="fill: #ff0000" transform="translate(1241.143046 745.115604) scale(0.1 -0.1)">
     <defs>
      <path id="DejaVuSans-Bold-69" d="M 538 3500 
L 1656 3500 
L 1656 0 
L 538 0 
L 538 3500 
z
M 538 4863 
L 1656 4863 
L 1656 3950 
L 538 3950 
L 538 4863 
z
" transform="scale(0.015625)"/>
      <path id="DejaVuSans-Bold-63" d="M 3366 3391 
L 3366 2478 
Q 3138 2634 2908 2709 
Q 2678 2784 2431 2784 
Q 1963 2784 1702 2511 
Q 1441 2238 1441 1747 
Q 1441 1256 1702 982 
Q 1963 709 2431 709 
Q 2694 709 2930 787 
Q 3166 866 3366 1019 
L 3366 103 
Q 3103 6 2833 -42 
Q 2563 -91 2291 -91 
Q 1344 -91 809 395 
Q 275 881 275 1747 
Q 275 2613 809 3098 
Q 1344 3584 2291 3584 
Q 2566 3584 2833 3536 
Q 3100 3488 3366 3391 
z
" transform="scale(0.015625)"/>
      <path id="DejaVuSans-Bold-6c" d="M 538 4863 
L 1656 4863 
L 1656 0 
L 538 0 
L 538 4863 
z
" transform="scale(0.015625)"/>
      <path id="DejaVuSans-Bold-5f" d="M 3200 -916 
L 3200 -1509 
L 0 -1509 
L 0 -916 
L 3200 -916 
z
" transform="scale(0.015625)"/>
      <path id="DejaVuSans-Bold-62" d="M 2400 722 
Q 2759 722 2948 984 
Q 3138 1247 3138 1747 
Q 3138 2247 2948 2509 
Q 2759 2772 2400 2772 
Q 2041 2772 1848 2508 
Q 1656 2244 1656 1747 
Q 1656 1250 1848 986 
Q 2041 722 2400 722 
z
M 1656 2988 
Q 1888 3294 2169 3439 
Q 2450 3584 2816 3584 
Q 3463 3584 3878 3070 
Q 4294 2556 4294 1747 
Q 4294 938 3878 423 
Q 3463 -91 2816 -91 
Q 2450 -91 2169 54 
Q 1888 200 1656 506 
L 1656 0 
L 538 0 
L 538 4863 
L 1656 4863 
L 1656 2988 
z
" transform="scale(0.015625)"/>
     </defs>
     <use xlink:href="#DejaVuSans-Bold-6e"/>
     <use xlink:href="#DejaVuSans-Bold-69" transform="translate(71.191406 0)"/>
     <use xlink:href="#DejaVuSans-Bold-63" transform="translate(105.46875 0)"/>
     <use xlink:href="#DejaVuSans-Bold-6f" transform="translate(164.746094 0)"/>
     <use xlink:href="#DejaVuSans-Bold-6c" transform="translate(233.447266 0)"/>
     <use xlink:href="#DejaVuSans-Bold-61" transform="translate(267.724609 0)"/>
     <use xlink:href="#DejaVuSans-Bold-5f" transform="translate(335.205078 0)"/>
     <use xlink:href="#DejaVuSans-Bold-79" transform="translate(385.205078 0)"/>
     <use xlink:href="#DejaVuSans-Bold-75" transform="translate(450.390625 0)"/>
     <use xlink:href="#DejaVuSans-Bold-62" transform="translate(521.582031 0)"/>
     <use xlink:href="#DejaVuSans-Bold-6f" transform="translate(593.164062 0)"/>
    </g>
   </g>
   <g id="text_16">
    <!-- Bwoah33 -->
    <g style="fill: #008000" transform="translate(1241.143046 724.804571) scale(0.1 -0.1)">
     <defs>
      <path id="DejaVuSans-Bold-42" d="M 2456 2859 
Q 2741 2859 2887 2984 
Q 3034 3109 3034 3353 
Q 3034 3594 2887 3720 
Q 2741 3847 2456 3847 
L 1791 3847 
L 1791 2859 
L 2456 2859 
z
M 2497 819 
Q 2859 819 3042 972 
Q 3225 1125 3225 1434 
Q 3225 1738 3044 1889 
Q 2863 2041 2497 2041 
L 1791 2041 
L 1791 819 
L 2497 819 
z
M 3616 2497 
Q 4003 2384 4215 2081 
Q 4428 1778 4428 1338 
Q 4428 663 3972 331 
Q 3516 0 2584 0 
L 588 0 
L 588 4666 
L 2394 4666 
Q 3366 4666 3802 4372 
Q 4238 4078 4238 3431 
Q 4238 3091 4078 2852 
Q 3919 2613 3616 2497 
z
" transform="scale(0.015625)"/>
      <path id="DejaVuSans-Bold-77" d="M 225 3500 
L 1313 3500 
L 1900 1088 
L 2491 3500 
L 3425 3500 
L 4013 1113 
L 4603 3500 
L 5691 3500 
L 4769 0 
L 3547 0 
L 2956 2406 
L 2369 0 
L 1147 0 
L 225 3500 
z
" transform="scale(0.015625)"/>
      <path id="DejaVuSans-Bold-68" d="M 4056 2131 
L 4056 0 
L 2931 0 
L 2931 347 
L 2931 1625 
Q 2931 2084 2911 2256 
Q 2891 2428 2841 2509 
Q 2775 2619 2662 2680 
Q 2550 2741 2406 2741 
Q 2056 2741 1856 2470 
Q 1656 2200 1656 1722 
L 1656 0 
L 538 0 
L 538 4863 
L 1656 4863 
L 1656 2988 
Q 1909 3294 2193 3439 
Q 2478 3584 2822 3584 
Q 3428 3584 3742 3212 
Q 4056 2841 4056 2131 
z
" transform="scale(0.015625)"/>
     </defs>
     <use xlink:href="#DejaVuSans-Bold-42"/>
     <use xlink:href="#DejaVuSans-Bold-77" transform="translate(76.220703 0)"/>
     <use xlink:href="#DejaVuSans-Bold-6f" transform="translate(168.603516 0)"/>
     <use xlink:href="#DejaVuSans-Bold-61" transform="translate(237.304688 0)"/>
     <use xlink:href="#DejaVuSans-Bold-68" transform="translate(304.785156 0)"/>
     <use xlink:href="#DejaVuSans-Bold-33" transform="translate(375.976562 0)"/>
     <use xlink:href="#DejaVuSans-Bold-33" transform="translate(445.556641 0)"/>
    </g>
   </g>
   <g id="text_17">
    <!-- AlessioMela -->
    <g style="fill: #0000ff" transform="translate(1241.143046 704.354477) scale(0.1 -0.1)">
     <defs>
      <path id="DejaVuSans-Bold-73" d="M 3272 3391 
L 3272 2541 
Q 2913 2691 2578 2766 
Q 2244 2841 1947 2841 
Q 1628 2841 1473 2761 
Q 1319 2681 1319 2516 
Q 1319 2381 1436 2309 
Q 1553 2238 1856 2203 
L 2053 2175 
Q 2913 2066 3209 1816 
Q 3506 1566 3506 1031 
Q 3506 472 3093 190 
Q 2681 -91 1863 -91 
Q 1516 -91 1145 -36 
Q 775 19 384 128 
L 384 978 
Q 719 816 1070 734 
Q 1422 653 1784 653 
Q 2113 653 2278 743 
Q 2444 834 2444 1013 
Q 2444 1163 2330 1236 
Q 2216 1309 1875 1350 
L 1678 1375 
Q 931 1469 631 1722 
Q 331 1975 331 2491 
Q 331 3047 712 3315 
Q 1094 3584 1881 3584 
Q 2191 3584 2531 3537 
Q 2872 3491 3272 3391 
z
" transform="scale(0.015625)"/>
     </defs>
     <use xlink:href="#DejaVuSans-Bold-41"/>
     <use xlink:href="#DejaVuSans-Bold-6c" transform="translate(77.392578 0)"/>
     <use xlink:href="#DejaVuSans-Bold-65" transform="translate(111.669922 0)"/>
     <use xlink:href="#DejaVuSans-Bold-73" transform="translate(179.492188 0)"/>
     <use xlink:href="#DejaVuSans-Bold-73" transform="translate(239.013672 0)"/>
     <use xlink:href="#DejaVuSans-Bold-69" transform="translate(298.535156 0)"/>
     <use xlink:href="#DejaVuSans-Bold-6f" transform="translate(332.8125 0)"/>
     <use xlink:href="#DejaVuSans-Bold-4d" transform="translate(401.513672 0)"/>
     <use xlink:href="#DejaVuSans-Bold-65" transform="translate(501.025391 0)"/>
     <use xlink:href="#DejaVuSans-Bold-6c" transform="translate(568.847656 0)"/>
     <use xlink:href="#DejaVuSans-Bold-61" transform="translate(603.125 0)"/>
    </g>
   </g>
   <g id="text_18">
    <!-- DnaX -->
    <g transform="translate(1241.143046 674.446539) scale(0.1 -0.1)">
     <defs>
      <path id="DejaVuSans-Bold-44" d="M 1791 3756 
L 1791 909 
L 2222 909 
Q 2959 909 3348 1275 
Q 3738 1641 3738 2338 
Q 3738 3031 3350 3393 
Q 2963 3756 2222 3756 
L 1791 3756 
z
M 588 4666 
L 1856 4666 
Q 2919 4666 3439 4514 
Q 3959 4363 4331 4000 
Q 4659 3684 4818 3271 
Q 4978 2859 4978 2338 
Q 4978 1809 4818 1395 
Q 4659 981 4331 666 
Q 3956 303 3431 151 
Q 2906 0 1856 0 
L 588 0 
L 588 4666 
z
" transform="scale(0.015625)"/>
      <path id="DejaVuSans-Bold-58" d="M 3188 2381 
L 4806 0 
L 3553 0 
L 2463 1594 
L 1381 0 
L 122 0 
L 1741 2381 
L 184 4666 
L 1441 4666 
L 2463 3163 
L 3481 4666 
L 4744 4666 
L 3188 2381 
z
" transform="scale(0.015625)"/>
     </defs>
     <use xlink:href="#DejaVuSans-Bold-44"/>
     <use xlink:href="#DejaVuSans-Bold-6e" transform="translate(83.007812 0)"/>
     <use xlink:href="#DejaVuSans-Bold-61" transform="translate(154.199219 0)"/>
     <use xlink:href="#DejaVuSans-Bold-58" transform="translate(221.679688 0)"/>
    </g>
   </g>
   <g id="text_19">
    <!-- AlexTies -->
    <g style="fill: #ffff00" transform="translate(1241.143046 653.996444) scale(0.1 -0.1)">
     <use xlink:href="#DejaVuSans-Bold-41"/>
     <use xlink:href="#DejaVuSans-Bold-6c" transform="translate(77.392578 0)"/>
     <use xlink:href="#DejaVuSans-Bold-65" transform="translate(111.669922 0)"/>
     <use xlink:href="#DejaVuSans-Bold-78" transform="translate(179.492188 0)"/>
     <use xlink:href="#DejaVuSans-Bold-54" transform="translate(243.994141 0)"/>
     <use xlink:href="#DejaVuSans-Bold-69" transform="translate(312.207031 0)"/>
     <use xlink:href="#DejaVuSans-Bold-65" transform="translate(346.484375 0)"/>
     <use xlink:href="#DejaVuSans-Bold-73" transform="translate(414.306641 0)"/>
    </g>
   </g>
   <g id="text_20">
    <!-- alesarrett -->
    <g style="fill: #ff00ff" transform="translate(1241.143046 633.546349) scale(0.1 -0.1)">
     <defs>
      <path id="DejaVuSans-Bold-74" d="M 1759 4494 
L 1759 3500 
L 2913 3500 
L 2913 2700 
L 1759 2700 
L 1759 1216 
Q 1759 972 1856 886 
Q 1953 800 2241 800 
L 2816 800 
L 2816 0 
L 1856 0 
Q 1194 0 917 276 
Q 641 553 641 1216 
L 641 2700 
L 84 2700 
L 84 3500 
L 641 3500 
L 641 4494 
L 1759 4494 
z
" transform="scale(0.015625)"/>
     </defs>
     <use xlink:href="#DejaVuSans-Bold-61"/>
     <use xlink:href="#DejaVuSans-Bold-6c" transform="translate(67.480469 0)"/>
     <use xlink:href="#DejaVuSans-Bold-65" transform="translate(101.757812 0)"/>
     <use xlink:href="#DejaVuSans-Bold-73" transform="translate(169.580078 0)"/>
     <use xlink:href="#DejaVuSans-Bold-61" transform="translate(229.101562 0)"/>
     <use xlink:href="#DejaVuSans-Bold-72" transform="translate(296.582031 0)"/>
     <use xlink:href="#DejaVuSans-Bold-72" transform="translate(345.898438 0)"/>
     <use xlink:href="#DejaVuSans-Bold-65" transform="translate(395.214844 0)"/>
     <use xlink:href="#DejaVuSans-Bold-74" transform="translate(463.037109 0)"/>
     <use xlink:href="#DejaVuSans-Bold-74" transform="translate(510.839844 0)"/>
    </g>
   </g>
   <g id="text_21">
    <!-- Yiyi_ -->
    <g style="fill: #00ffff" transform="translate(1241.143046 612.957192) scale(0.1 -0.1)">
     <defs>
      <path id="DejaVuSans-Bold-59" d="M -63 4666 
L 1253 4666 
L 2316 3003 
L 3378 4666 
L 4697 4666 
L 2919 1966 
L 2919 0 
L 1716 0 
L 1716 1966 
L -63 4666 
z
" transform="scale(0.015625)"/>
     </defs>
     <use xlink:href="#DejaVuSans-Bold-59"/>
     <use xlink:href="#DejaVuSans-Bold-69" transform="translate(72.412109 0)"/>
     <use xlink:href="#DejaVuSans-Bold-79" transform="translate(106.689453 0)"/>
     <use xlink:href="#DejaVuSans-Bold-69" transform="translate(171.875 0)"/>
     <use xlink:href="#DejaVuSans-Bold-5f" transform="translate(206.152344 0)"/>
    </g>
   </g>
   <g id="text_22">
    <!-- Yiyi -->
    <g style="fill: #ff0000" transform="translate(1241.143046 592.607098) scale(0.1 -0.1)">
     <use xlink:href="#DejaVuSans-Bold-59"/>
     <use xlink:href="#DejaVuSans-Bold-69" transform="translate(72.412109 0)"/>
     <use xlink:href="#DejaVuSans-Bold-79" transform="translate(106.689453 0)"/>
     <use xlink:href="#DejaVuSans-Bold-69" transform="translate(171.875 0)"/>
    </g>
   </g>
   <g id="text_23">
    <!-- MarcoR -->
    <g style="fill: #008000" transform="translate(1241.143046 572.196066) scale(0.1 -0.1)">
     <defs>
      <path id="DejaVuSans-Bold-52" d="M 2297 2597 
Q 2675 2597 2839 2737 
Q 3003 2878 3003 3200 
Q 3003 3519 2839 3656 
Q 2675 3794 2297 3794 
L 1791 3794 
L 1791 2597 
L 2297 2597 
z
M 1791 1766 
L 1791 0 
L 588 0 
L 588 4666 
L 2425 4666 
Q 3347 4666 3776 4356 
Q 4206 4047 4206 3378 
Q 4206 2916 3982 2619 
Q 3759 2322 3309 2181 
Q 3556 2125 3751 1926 
Q 3947 1728 4147 1325 
L 4800 0 
L 3519 0 
L 2950 1159 
Q 2778 1509 2601 1637 
Q 2425 1766 2131 1766 
L 1791 1766 
z
" transform="scale(0.015625)"/>
     </defs>
     <use xlink:href="#DejaVuSans-Bold-4d"/>
     <use xlink:href="#DejaVuSans-Bold-61" transform="translate(99.511719 0)"/>
     <use xlink:href="#DejaVuSans-Bold-72" transform="translate(166.992188 0)"/>
     <use xlink:href="#DejaVuSans-Bold-63" transform="translate(216.308594 0)"/>
     <use xlink:href="#DejaVuSans-Bold-6f" transform="translate(275.585938 0)"/>
     <use xlink:href="#DejaVuSans-Bold-52" transform="translate(344.287109 0)"/>
    </g>
   </g>
   <g id="text_24">
    <!-- Cybermanx -->
    <g style="fill: #0000ff" transform="translate(1241.143046 547.157593) scale(0.1 -0.1)">
     <defs>
      <path id="DejaVuSans-Bold-6d" d="M 3781 2919 
Q 3994 3244 4286 3414 
Q 4578 3584 4928 3584 
Q 5531 3584 5847 3212 
Q 6163 2841 6163 2131 
L 6163 0 
L 5038 0 
L 5038 1825 
Q 5041 1866 5042 1909 
Q 5044 1953 5044 2034 
Q 5044 2406 4934 2573 
Q 4825 2741 4581 2741 
Q 4263 2741 4089 2478 
Q 3916 2216 3909 1719 
L 3909 0 
L 2784 0 
L 2784 1825 
Q 2784 2406 2684 2573 
Q 2584 2741 2328 2741 
Q 2006 2741 1831 2477 
Q 1656 2213 1656 1722 
L 1656 0 
L 531 0 
L 531 3500 
L 1656 3500 
L 1656 2988 
Q 1863 3284 2130 3434 
Q 2397 3584 2719 3584 
Q 3081 3584 3359 3409 
Q 3638 3234 3781 2919 
z
" transform="scale(0.015625)"/>
     </defs>
     <use xlink:href="#DejaVuSans-Bold-43"/>
     <use xlink:href="#DejaVuSans-Bold-79" transform="translate(73.388672 0)"/>
     <use xlink:href="#DejaVuSans-Bold-62" transform="translate(138.574219 0)"/>
     <use xlink:href="#DejaVuSans-Bold-65" transform="translate(210.15625 0)"/>
     <use xlink:href="#DejaVuSans-Bold-72" transform="translate(277.978516 0)"/>
     <use xlink:href="#DejaVuSans-Bold-6d" transform="translate(327.294922 0)"/>
     <use xlink:href="#DejaVuSans-Bold-61" transform="translate(431.494141 0)"/>
     <use xlink:href="#DejaVuSans-Bold-6e" transform="translate(498.974609 0)"/>
     <use xlink:href="#DejaVuSans-Bold-78" transform="translate(570.166016 0)"/>
    </g>
   </g>
   <g id="text_25">
    <!-- Clown Pennywise -->
    <g transform="translate(1241.143046 526.707499) scale(0.1 -0.1)">
     <defs>
      <path id="DejaVuSans-Bold-20" transform="scale(0.015625)"/>
      <path id="DejaVuSans-Bold-50" d="M 588 4666 
L 2584 4666 
Q 3475 4666 3951 4270 
Q 4428 3875 4428 3144 
Q 4428 2409 3951 2014 
Q 3475 1619 2584 1619 
L 1791 1619 
L 1791 0 
L 588 0 
L 588 4666 
z
M 1791 3794 
L 1791 2491 
L 2456 2491 
Q 2806 2491 2997 2661 
Q 3188 2831 3188 3144 
Q 3188 3456 2997 3625 
Q 2806 3794 2456 3794 
L 1791 3794 
z
" transform="scale(0.015625)"/>
     </defs>
     <use xlink:href="#DejaVuSans-Bold-43"/>
     <use xlink:href="#DejaVuSans-Bold-6c" transform="translate(73.388672 0)"/>
     <use xlink:href="#DejaVuSans-Bold-6f" transform="translate(107.666016 0)"/>
     <use xlink:href="#DejaVuSans-Bold-77" transform="translate(176.367188 0)"/>
     <use xlink:href="#DejaVuSans-Bold-6e" transform="translate(268.75 0)"/>
     <use xlink:href="#DejaVuSans-Bold-20" transform="translate(339.941406 0)"/>
     <use xlink:href="#DejaVuSans-Bold-50" transform="translate(374.755859 0)"/>
     <use xlink:href="#DejaVuSans-Bold-65" transform="translate(448.046875 0)"/>
     <use xlink:href="#DejaVuSans-Bold-6e" transform="translate(515.869141 0)"/>
     <use xlink:href="#DejaVuSans-Bold-6e" transform="translate(587.060547 0)"/>
     <use xlink:href="#DejaVuSans-Bold-79" transform="translate(658.251953 0)"/>
     <use xlink:href="#DejaVuSans-Bold-77" transform="translate(723.4375 0)"/>
     <use xlink:href="#DejaVuSans-Bold-69" transform="translate(815.820312 0)"/>
     <use xlink:href="#DejaVuSans-Bold-73" transform="translate(850.097656 0)"/>
     <use xlink:href="#DejaVuSans-Bold-65" transform="translate(909.619141 0)"/>
    </g>
   </g>
   <g id="text_26">
    <!-- toponomastica_comune_arenzano -->
    <g style="fill: #ffff00" transform="translate(1241.143046 506.157404) scale(0.1 -0.1)">
     <defs>
      <path id="DejaVuSans-Bold-7a" d="M 366 3500 
L 3419 3500 
L 3419 2719 
L 1575 800 
L 3419 800 
L 3419 0 
L 288 0 
L 288 781 
L 2131 2700 
L 366 2700 
L 366 3500 
z
" transform="scale(0.015625)"/>
     </defs>
     <use xlink:href="#DejaVuSans-Bold-74"/>
     <use xlink:href="#DejaVuSans-Bold-6f" transform="translate(47.802734 0)"/>
     <use xlink:href="#DejaVuSans-Bold-70" transform="translate(116.503906 0)"/>
     <use xlink:href="#DejaVuSans-Bold-6f" transform="translate(188.085938 0)"/>
     <use xlink:href="#DejaVuSans-Bold-6e" transform="translate(256.787109 0)"/>
     <use xlink:href="#DejaVuSans-Bold-6f" transform="translate(327.978516 0)"/>
     <use xlink:href="#DejaVuSans-Bold-6d" transform="translate(396.679688 0)"/>
     <use xlink:href="#DejaVuSans-Bold-61" transform="translate(500.878906 0)"/>
     <use xlink:href="#DejaVuSans-Bold-73" transform="translate(568.359375 0)"/>
     <use xlink:href="#DejaVuSans-Bold-74" transform="translate(627.880859 0)"/>
     <use xlink:href="#DejaVuSans-Bold-69" transform="translate(675.683594 0)"/>
     <use xlink:href="#DejaVuSans-Bold-63" transform="translate(709.960938 0)"/>
     <use xlink:href="#DejaVuSans-Bold-61" transform="translate(769.238281 0)"/>
     <use xlink:href="#DejaVuSans-Bold-5f" transform="translate(836.71875 0)"/>
     <use xlink:href="#DejaVuSans-Bold-63" transform="translate(886.71875 0)"/>
     <use xlink:href="#DejaVuSans-Bold-6f" transform="translate(945.996094 0)"/>
     <use xlink:href="#DejaVuSans-Bold-6d" transform="translate(1014.697266 0)"/>
     <use xlink:href="#DejaVuSans-Bold-75" transform="translate(1118.896484 0)"/>
     <use xlink:href="#DejaVuSans-Bold-6e" transform="translate(1190.087891 0)"/>
     <use xlink:href="#DejaVuSans-Bold-65" transform="translate(1261.279297 0)"/>
     <use xlink:href="#DejaVuSans-Bold-5f" transform="translate(1329.101562 0)"/>
     <use xlink:href="#DejaVuSans-Bold-61" transform="translate(1379.101562 0)"/>
     <use xlink:href="#DejaVuSans-Bold-72" transform="translate(1446.582031 0)"/>
     <use xlink:href="#DejaVuSans-Bold-65" transform="translate(1495.898438 0)"/>
     <use xlink:href="#DejaVuSans-Bold-6e" transform="translate(1563.720703 0)"/>
     <use xlink:href="#DejaVuSans-Bold-7a" transform="translate(1634.912109 0)"/>
     <use xlink:href="#DejaVuSans-Bold-61" transform="translate(1693.115234 0)"/>
     <use xlink:href="#DejaVuSans-Bold-6e" transform="translate(1760.595703 0)"/>
     <use xlink:href="#DejaVuSans-Bold-6f" transform="translate(1831.787109 0)"/>
    </g>
   </g>
   <g id="text_27">
    <!-- Martj9 -->
    <g style="fill: #ff00ff" transform="translate(1241.143046 485.807309) scale(0.1 -0.1)">
     <defs>
      <path id="DejaVuSans-Bold-6a" d="M 538 3500 
L 1656 3500 
L 1656 63 
Q 1656 -641 1318 -1011 
Q 981 -1381 341 -1381 
L -213 -1381 
L -213 -647 
L -19 -647 
Q 300 -647 419 -503 
Q 538 -359 538 63 
L 538 3500 
z
M 538 4863 
L 1656 4863 
L 1656 3950 
L 538 3950 
L 538 4863 
z
" transform="scale(0.015625)"/>
      <path id="DejaVuSans-Bold-39" d="M 641 103 
L 641 966 
Q 928 831 1190 764 
Q 1453 697 1709 697 
Q 2247 697 2547 995 
Q 2847 1294 2900 1881 
Q 2688 1725 2447 1647 
Q 2206 1569 1925 1569 
Q 1209 1569 770 1986 
Q 331 2403 331 3084 
Q 331 3838 820 4291 
Q 1309 4744 2131 4744 
Q 3044 4744 3544 4128 
Q 4044 3513 4044 2388 
Q 4044 1231 3459 570 
Q 2875 -91 1856 -91 
Q 1528 -91 1228 -42 
Q 928 6 641 103 
z
M 2125 2350 
Q 2441 2350 2600 2554 
Q 2759 2759 2759 3169 
Q 2759 3575 2600 3781 
Q 2441 3988 2125 3988 
Q 1809 3988 1650 3781 
Q 1491 3575 1491 3169 
Q 1491 2759 1650 2554 
Q 1809 2350 2125 2350 
z
" transform="scale(0.015625)"/>
     </defs>
     <use xlink:href="#DejaVuSans-Bold-4d"/>
     <use xlink:href="#DejaVuSans-Bold-61" transform="translate(99.511719 0)"/>
     <use xlink:href="#DejaVuSans-Bold-72" transform="translate(166.992188 0)"/>
     <use xlink:href="#DejaVuSans-Bold-74" transform="translate(216.308594 0)"/>
     <use xlink:href="#DejaVuSans-Bold-6a" transform="translate(264.111328 0)"/>
     <use xlink:href="#DejaVuSans-Bold-39" transform="translate(298.388672 0)"/>
    </g>
   </g>
   <g id="text_28">
    <!-- mircozorzo -->
    <g style="fill: #00ffff" transform="translate(1241.143046 458.136469) scale(0.1 -0.1)">
     <use xlink:href="#DejaVuSans-Bold-6d"/>
     <use xlink:href="#DejaVuSans-Bold-69" transform="translate(104.199219 0)"/>
     <use xlink:href="#DejaVuSans-Bold-72" transform="translate(138.476562 0)"/>
     <use xlink:href="#DejaVuSans-Bold-63" transform="translate(187.792969 0)"/>
     <use xlink:href="#DejaVuSans-Bold-6f" transform="translate(247.070312 0)"/>
     <use xlink:href="#DejaVuSans-Bold-7a" transform="translate(315.771484 0)"/>
     <use xlink:href="#DejaVuSans-Bold-6f" transform="translate(373.974609 0)"/>
     <use xlink:href="#DejaVuSans-Bold-72" transform="translate(442.675781 0)"/>
     <use xlink:href="#DejaVuSans-Bold-7a" transform="translate(491.992188 0)"/>
     <use xlink:href="#DejaVuSans-Bold-6f" transform="translate(550.195312 0)"/>
    </g>
   </g>
   <g id="text_29">
    <!-- alessandrocarmeli -->
    <g style="fill: #ff0000" transform="translate(1241.143046 370.171479) scale(0.1 -0.1)">
     <use xlink:href="#DejaVuSans-Bold-61"/>
     <use xlink:href="#DejaVuSans-Bold-6c" transform="translate(67.480469 0)"/>
     <use xlink:href="#DejaVuSans-Bold-65" transform="translate(101.757812 0)"/>
     <use xlink:href="#DejaVuSans-Bold-73" transform="translate(169.580078 0)"/>
     <use xlink:href="#DejaVuSans-Bold-73" transform="translate(229.101562 0)"/>
     <use xlink:href="#DejaVuSans-Bold-61" transform="translate(288.623047 0)"/>
     <use xlink:href="#DejaVuSans-Bold-6e" transform="translate(356.103516 0)"/>
     <use xlink:href="#DejaVuSans-Bold-64" transform="translate(427.294922 0)"/>
     <use xlink:href="#DejaVuSans-Bold-72" transform="translate(498.876953 0)"/>
     <use xlink:href="#DejaVuSans-Bold-6f" transform="translate(548.193359 0)"/>
     <use xlink:href="#DejaVuSans-Bold-63" transform="translate(616.894531 0)"/>
     <use xlink:href="#DejaVuSans-Bold-61" transform="translate(676.171875 0)"/>
     <use xlink:href="#DejaVuSans-Bold-72" transform="translate(743.652344 0)"/>
     <use xlink:href="#DejaVuSans-Bold-6d" transform="translate(792.96875 0)"/>
     <use xlink:href="#DejaVuSans-Bold-65" transform="translate(897.167969 0)"/>
     <use xlink:href="#DejaVuSans-Bold-6c" transform="translate(964.990234 0)"/>
     <use xlink:href="#DejaVuSans-Bold-69" transform="translate(999.267578 0)"/>
    </g>
   </g>
   <g id="text_30">
    <!-- Cascafico -->
    <g style="fill: #008000" transform="translate(1241.143046 305.934714) scale(0.1 -0.1)">
     <defs>
      <path id="DejaVuSans-Bold-66" d="M 2841 4863 
L 2841 4128 
L 2222 4128 
Q 1984 4128 1890 4042 
Q 1797 3956 1797 3744 
L 1797 3500 
L 2753 3500 
L 2753 2700 
L 1797 2700 
L 1797 0 
L 678 0 
L 678 2700 
L 122 2700 
L 122 3500 
L 678 3500 
L 678 3744 
Q 678 4316 997 4589 
Q 1316 4863 1984 4863 
L 2841 4863 
z
" transform="scale(0.015625)"/>
     </defs>
     <use xlink:href="#DejaVuSans-Bold-43"/>
     <use xlink:href="#DejaVuSans-Bold-61" transform="translate(73.388672 0)"/>
     <use xlink:href="#DejaVuSans-Bold-73" transform="translate(140.869141 0)"/>
     <use xlink:href="#DejaVuSans-Bold-63" transform="translate(200.390625 0)"/>
     <use xlink:href="#DejaVuSans-Bold-61" transform="translate(259.667969 0)"/>
     <use xlink:href="#DejaVuSans-Bold-66" transform="translate(327.148438 0)"/>
     <use xlink:href="#DejaVuSans-Bold-69" transform="translate(370.654297 0)"/>
     <use xlink:href="#DejaVuSans-Bold-63" transform="translate(404.931641 0)"/>
     <use xlink:href="#DejaVuSans-Bold-6f" transform="translate(464.208984 0)"/>
    </g>
   </g>
   <g id="text_31">
    <!-- giopera -->
    <g style="fill: #0000ff" transform="translate(1241.143046 107.586813) scale(0.1 -0.1)">
     <defs>
      <path id="DejaVuSans-Bold-67" d="M 2919 594 
Q 2688 288 2409 144 
Q 2131 0 1766 0 
Q 1125 0 706 504 
Q 288 1009 288 1791 
Q 288 2575 706 3076 
Q 1125 3578 1766 3578 
Q 2131 3578 2409 3434 
Q 2688 3291 2919 2981 
L 2919 3500 
L 4044 3500 
L 4044 353 
Q 4044 -491 3511 -936 
Q 2978 -1381 1966 -1381 
Q 1638 -1381 1331 -1331 
Q 1025 -1281 716 -1178 
L 716 -306 
Q 1009 -475 1290 -558 
Q 1572 -641 1856 -641 
Q 2406 -641 2662 -400 
Q 2919 -159 2919 353 
L 2919 594 
z
M 2181 2772 
Q 1834 2772 1640 2515 
Q 1447 2259 1447 1791 
Q 1447 1309 1634 1061 
Q 1822 813 2181 813 
Q 2531 813 2725 1069 
Q 2919 1325 2919 1791 
Q 2919 2259 2725 2515 
Q 2531 2772 2181 2772 
z
" transform="scale(0.015625)"/>
     </defs>
     <use xlink:href="#DejaVuSans-Bold-67"/>
     <use xlink:href="#DejaVuSans-Bold-69" transform="translate(71.582031 0)"/>
     <use xlink:href="#DejaVuSans-Bold-6f" transform="translate(105.859375 0)"/>
     <use xlink:href="#DejaVuSans-Bold-70" transform="translate(174.560547 0)"/>
     <use xlink:href="#DejaVuSans-Bold-65" transform="translate(246.142578 0)"/>
     <use xlink:href="#DejaVuSans-Bold-72" transform="translate(313.964844 0)"/>
     <use xlink:href="#DejaVuSans-Bold-61" transform="translate(363.28125 0)"/>
    </g>
   </g>
  </g>
 </g>
 <defs>
  <clipPath id="p7da5564376">
   <rect x="50.137685" y="10.8" width="1167.652315" height="2069.463013"/>
  </clipPath>
 </defs>
</svg>
