<?xml version="1.0" encoding="utf-8" standalone="no"?>
<!DOCTYPE svg PUBLIC "-//W3C//DTD SVG 1.1//EN"
  "http://www.w3.org/Graphics/SVG/1.1/DTD/svg11.dtd">
<svg xmlns:xlink="http://www.w3.org/1999/xlink" width="1440pt" height="2160pt" viewBox="0 0 1440 2160" xmlns="http://www.w3.org/2000/svg" version="1.1">
 <metadata>
  <rdf:RDF xmlns:dc="http://purl.org/dc/elements/1.1/" xmlns:cc="http://creativecommons.org/ns#" xmlns:rdf="http://www.w3.org/1999/02/22-rdf-syntax-ns#">
   <cc:Work>
    <dc:type rdf:resource="http://purl.org/dc/dcmitype/StillImage"/>
    <dc:date>2026-03-31T03:50:17.993068</dc:date>
    <dc:format>image/svg+xml</dc:format>
    <dc:creator>
     <cc:Agent>
      <dc:title>Matplotlib v3.10.8, https://matplotlib.org/</dc:title>
     </cc:Agent>
    </dc:creator>
   </cc:Work>
  </rdf:RDF>
 </metadata>
 <defs>
  <style type="text/css">*{stroke-linejoin: round; stroke-linecap: butt}</style>
 </defs>
 <g id="figure_1">
  <g id="patch_1">
   <path d="M 0 2160 
L 1440 2160 
L 1440 0 
L 0 0 
z
" style="fill: #ffffff"/>
  </g>
  <g id="axes_1">
   <g id="patch_2">
    <path d="M 50.137685 2080.263013 
L 1217.79 2080.263013 
L 1217.79 10.8 
L 50.137685 10.8 
z
" style="fill: #ffffff"/>
   </g>
   <g id="matplotlib.axis_1">
    <g id="xtick_1">
     <g id="line2d_1">
      <defs>
       <path id="m2a62d42906" d="M 0 0 
L 0 3.5 
" style="stroke: #000000; stroke-width: 0.8"/>
      </defs>
      <g>
       <use xlink:href="#m2a62d42906" x="103.21279" y="2080.263013" style="stroke: #000000; stroke-width: 0.8"/>
      </g>
     </g>
     <g id="text_1">
      <!-- 2026-02-01 -->
      <g transform="translate(84.616987 2133.729872) rotate(-45) scale(0.1 -0.1)">
       <defs>
        <path id="DejaVuSans-32" d="M 1228 531 
L 3431 531 
L 3431 0 
L 469 0 
L 469 531 
Q 828 903 1448 1529 
Q 2069 2156 2228 2338 
Q 2531 2678 2651 2914 
Q 2772 3150 2772 3378 
Q 2772 3750 2511 3984 
Q 2250 4219 1831 4219 
Q 1534 4219 1204 4116 
Q 875 4013 500 3803 
L 500 4441 
Q 881 4594 1212 4672 
Q 1544 4750 1819 4750 
Q 2544 4750 2975 4387 
Q 3406 4025 3406 3419 
Q 3406 3131 3298 2873 
Q 3191 2616 2906 2266 
Q 2828 2175 2409 1742 
Q 1991 1309 1228 531 
z
" transform="scale(0.015625)"/>
        <path id="DejaVuSans-30" d="M 2034 4250 
Q 1547 4250 1301 3770 
Q 1056 3291 1056 2328 
Q 1056 1369 1301 889 
Q 1547 409 2034 409 
Q 2525 409 2770 889 
Q 3016 1369 3016 2328 
Q 3016 3291 2770 3770 
Q 2525 4250 2034 4250 
z
M 2034 4750 
Q 2819 4750 3233 4129 
Q 3647 3509 3647 2328 
Q 3647 1150 3233 529 
Q 2819 -91 2034 -91 
Q 1250 -91 836 529 
Q 422 1150 422 2328 
Q 422 3509 836 4129 
Q 1250 4750 2034 4750 
z
" transform="scale(0.015625)"/>
        <path id="DejaVuSans-36" d="M 2113 2584 
Q 1688 2584 1439 2293 
Q 1191 2003 1191 1497 
Q 1191 994 1439 701 
Q 1688 409 2113 409 
Q 2538 409 2786 701 
Q 3034 994 3034 1497 
Q 3034 2003 2786 2293 
Q 2538 2584 2113 2584 
z
M 3366 4563 
L 3366 3988 
Q 3128 4100 2886 4159 
Q 2644 4219 2406 4219 
Q 1781 4219 1451 3797 
Q 1122 3375 1075 2522 
Q 1259 2794 1537 2939 
Q 1816 3084 2150 3084 
Q 2853 3084 3261 2657 
Q 3669 2231 3669 1497 
Q 3669 778 3244 343 
Q 2819 -91 2113 -91 
Q 1303 -91 875 529 
Q 447 1150 447 2328 
Q 447 3434 972 4092 
Q 1497 4750 2381 4750 
Q 2619 4750 2861 4703 
Q 3103 4656 3366 4563 
z
" transform="scale(0.015625)"/>
        <path id="DejaVuSans-2d" d="M 313 2009 
L 1997 2009 
L 1997 1497 
L 313 1497 
L 313 2009 
z
" transform="scale(0.015625)"/>
        <path id="DejaVuSans-31" d="M 794 531 
L 1825 531 
L 1825 4091 
L 703 3866 
L 703 4441 
L 1819 4666 
L 2450 4666 
L 2450 531 
L 3481 531 
L 3481 0 
L 794 0 
L 794 531 
z
" transform="scale(0.015625)"/>
       </defs>
       <use xlink:href="#DejaVuSans-32"/>
       <use xlink:href="#DejaVuSans-30" transform="translate(63.623047 0)"/>
       <use xlink:href="#DejaVuSans-32" transform="translate(127.246094 0)"/>
       <use xlink:href="#DejaVuSans-36" transform="translate(190.869141 0)"/>
       <use xlink:href="#DejaVuSans-2d" transform="translate(254.492188 0)"/>
       <use xlink:href="#DejaVuSans-30" transform="translate(290.576172 0)"/>
       <use xlink:href="#DejaVuSans-32" transform="translate(354.199219 0)"/>
       <use xlink:href="#DejaVuSans-2d" transform="translate(417.822266 0)"/>
       <use xlink:href="#DejaVuSans-30" transform="translate(453.90625 0)"/>
       <use xlink:href="#DejaVuSans-31" transform="translate(517.529297 0)"/>
      </g>
     </g>
    </g>
    <g id="xtick_2">
     <g id="line2d_2">
      <g>
       <use xlink:href="#m2a62d42906" x="233.572698" y="2080.263013" style="stroke: #000000; stroke-width: 0.8"/>
      </g>
     </g>
     <g id="text_2">
      <!-- 2026-02-08 -->
      <g transform="translate(214.976894 2133.729872) rotate(-45) scale(0.1 -0.1)">
       <defs>
        <path id="DejaVuSans-38" d="M 2034 2216 
Q 1584 2216 1326 1975 
Q 1069 1734 1069 1313 
Q 1069 891 1326 650 
Q 1584 409 2034 409 
Q 2484 409 2743 651 
Q 3003 894 3003 1313 
Q 3003 1734 2745 1975 
Q 2488 2216 2034 2216 
z
M 1403 2484 
Q 997 2584 770 2862 
Q 544 3141 544 3541 
Q 544 4100 942 4425 
Q 1341 4750 2034 4750 
Q 2731 4750 3128 4425 
Q 3525 4100 3525 3541 
Q 3525 3141 3298 2862 
Q 3072 2584 2669 2484 
Q 3125 2378 3379 2068 
Q 3634 1759 3634 1313 
Q 3634 634 3220 271 
Q 2806 -91 2034 -91 
Q 1263 -91 848 271 
Q 434 634 434 1313 
Q 434 1759 690 2068 
Q 947 2378 1403 2484 
z
M 1172 3481 
Q 1172 3119 1398 2916 
Q 1625 2713 2034 2713 
Q 2441 2713 2670 2916 
Q 2900 3119 2900 3481 
Q 2900 3844 2670 4047 
Q 2441 4250 2034 4250 
Q 1625 4250 1398 4047 
Q 1172 3844 1172 3481 
z
" transform="scale(0.015625)"/>
       </defs>
       <use xlink:href="#DejaVuSans-32"/>
       <use xlink:href="#DejaVuSans-30" transform="translate(63.623047 0)"/>
       <use xlink:href="#DejaVuSans-32" transform="translate(127.246094 0)"/>
       <use xlink:href="#DejaVuSans-36" transform="translate(190.869141 0)"/>
       <use xlink:href="#DejaVuSans-2d" transform="translate(254.492188 0)"/>
       <use xlink:href="#DejaVuSans-30" transform="translate(290.576172 0)"/>
       <use xlink:href="#DejaVuSans-32" transform="translate(354.199219 0)"/>
       <use xlink:href="#DejaVuSans-2d" transform="translate(417.822266 0)"/>
       <use xlink:href="#DejaVuSans-30" transform="translate(453.90625 0)"/>
       <use xlink:href="#DejaVuSans-38" transform="translate(517.529297 0)"/>
      </g>
     </g>
    </g>
    <g id="xtick_3">
     <g id="line2d_3">
      <g>
       <use xlink:href="#m2a62d42906" x="363.932605" y="2080.263013" style="stroke: #000000; stroke-width: 0.8"/>
      </g>
     </g>
     <g id="text_3">
      <!-- 2026-02-15 -->
      <g transform="translate(345.336802 2133.729872) rotate(-45) scale(0.1 -0.1)">
       <defs>
        <path id="DejaVuSans-35" d="M 691 4666 
L 3169 4666 
L 3169 4134 
L 1269 4134 
L 1269 2991 
Q 1406 3038 1543 3061 
Q 1681 3084 1819 3084 
Q 2600 3084 3056 2656 
Q 3513 2228 3513 1497 
Q 3513 744 3044 326 
Q 2575 -91 1722 -91 
Q 1428 -91 1123 -41 
Q 819 9 494 109 
L 494 744 
Q 775 591 1075 516 
Q 1375 441 1709 441 
Q 2250 441 2565 725 
Q 2881 1009 2881 1497 
Q 2881 1984 2565 2268 
Q 2250 2553 1709 2553 
Q 1456 2553 1204 2497 
Q 953 2441 691 2322 
L 691 4666 
z
" transform="scale(0.015625)"/>
       </defs>
       <use xlink:href="#DejaVuSans-32"/>
       <use xlink:href="#DejaVuSans-30" transform="translate(63.623047 0)"/>
       <use xlink:href="#DejaVuSans-32" transform="translate(127.246094 0)"/>
       <use xlink:href="#DejaVuSans-36" transform="translate(190.869141 0)"/>
       <use xlink:href="#DejaVuSans-2d" transform="translate(254.492188 0)"/>
       <use xlink:href="#DejaVuSans-30" transform="translate(290.576172 0)"/>
       <use xlink:href="#DejaVuSans-32" transform="translate(354.199219 0)"/>
       <use xlink:href="#DejaVuSans-2d" transform="translate(417.822266 0)"/>
       <use xlink:href="#DejaVuSans-31" transform="translate(453.90625 0)"/>
       <use xlink:href="#DejaVuSans-35" transform="translate(517.529297 0)"/>
      </g>
     </g>
    </g>
    <g id="xtick_4">
     <g id="line2d_4">
      <g>
       <use xlink:href="#m2a62d42906" x="494.292513" y="2080.263013" style="stroke: #000000; stroke-width: 0.8"/>
      </g>
     </g>
     <g id="text_4">
      <!-- 2026-02-22 -->
      <g transform="translate(475.696709 2133.729872) rotate(-45) scale(0.1 -0.1)">
       <use xlink:href="#DejaVuSans-32"/>
       <use xlink:href="#DejaVuSans-30" transform="translate(63.623047 0)"/>
       <use xlink:href="#DejaVuSans-32" transform="translate(127.246094 0)"/>
       <use xlink:href="#DejaVuSans-36" transform="translate(190.869141 0)"/>
       <use xlink:href="#DejaVuSans-2d" transform="translate(254.492188 0)"/>
       <use xlink:href="#DejaVuSans-30" transform="translate(290.576172 0)"/>
       <use xlink:href="#DejaVuSans-32" transform="translate(354.199219 0)"/>
       <use xlink:href="#DejaVuSans-2d" transform="translate(417.822266 0)"/>
       <use xlink:href="#DejaVuSans-32" transform="translate(453.90625 0)"/>
       <use xlink:href="#DejaVuSans-32" transform="translate(517.529297 0)"/>
      </g>
     </g>
    </g>
    <g id="xtick_5">
     <g id="line2d_5">
      <g>
       <use xlink:href="#m2a62d42906" x="624.65242" y="2080.263013" style="stroke: #000000; stroke-width: 0.8"/>
      </g>
     </g>
     <g id="text_5">
      <!-- 2026-03-01 -->
      <g transform="translate(606.056617 2133.729872) rotate(-45) scale(0.1 -0.1)">
       <defs>
        <path id="DejaVuSans-33" d="M 2597 2516 
Q 3050 2419 3304 2112 
Q 3559 1806 3559 1356 
Q 3559 666 3084 287 
Q 2609 -91 1734 -91 
Q 1441 -91 1130 -33 
Q 819 25 488 141 
L 488 750 
Q 750 597 1062 519 
Q 1375 441 1716 441 
Q 2309 441 2620 675 
Q 2931 909 2931 1356 
Q 2931 1769 2642 2001 
Q 2353 2234 1838 2234 
L 1294 2234 
L 1294 2753 
L 1863 2753 
Q 2328 2753 2575 2939 
Q 2822 3125 2822 3475 
Q 2822 3834 2567 4026 
Q 2313 4219 1838 4219 
Q 1578 4219 1281 4162 
Q 984 4106 628 3988 
L 628 4550 
Q 988 4650 1302 4700 
Q 1616 4750 1894 4750 
Q 2613 4750 3031 4423 
Q 3450 4097 3450 3541 
Q 3450 3153 3228 2886 
Q 3006 2619 2597 2516 
z
" transform="scale(0.015625)"/>
       </defs>
       <use xlink:href="#DejaVuSans-32"/>
       <use xlink:href="#DejaVuSans-30" transform="translate(63.623047 0)"/>
       <use xlink:href="#DejaVuSans-32" transform="translate(127.246094 0)"/>
       <use xlink:href="#DejaVuSans-36" transform="translate(190.869141 0)"/>
       <use xlink:href="#DejaVuSans-2d" transform="translate(254.492188 0)"/>
       <use xlink:href="#DejaVuSans-30" transform="translate(290.576172 0)"/>
       <use xlink:href="#DejaVuSans-33" transform="translate(354.199219 0)"/>
       <use xlink:href="#DejaVuSans-2d" transform="translate(417.822266 0)"/>
       <use xlink:href="#DejaVuSans-30" transform="translate(453.90625 0)"/>
       <use xlink:href="#DejaVuSans-31" transform="translate(517.529297 0)"/>
      </g>
     </g>
    </g>
    <g id="xtick_6">
     <g id="line2d_6">
      <g>
       <use xlink:href="#m2a62d42906" x="755.012328" y="2080.263013" style="stroke: #000000; stroke-width: 0.8"/>
      </g>
     </g>
     <g id="text_6">
      <!-- 2026-03-08 -->
      <g transform="translate(736.416525 2133.729872) rotate(-45) scale(0.1 -0.1)">
       <use xlink:href="#DejaVuSans-32"/>
       <use xlink:href="#DejaVuSans-30" transform="translate(63.623047 0)"/>
       <use xlink:href="#DejaVuSans-32" transform="translate(127.246094 0)"/>
       <use xlink:href="#DejaVuSans-36" transform="translate(190.869141 0)"/>
       <use xlink:href="#DejaVuSans-2d" transform="translate(254.492188 0)"/>
       <use xlink:href="#DejaVuSans-30" transform="translate(290.576172 0)"/>
       <use xlink:href="#DejaVuSans-33" transform="translate(354.199219 0)"/>
       <use xlink:href="#DejaVuSans-2d" transform="translate(417.822266 0)"/>
       <use xlink:href="#DejaVuSans-30" transform="translate(453.90625 0)"/>
       <use xlink:href="#DejaVuSans-38" transform="translate(517.529297 0)"/>
      </g>
     </g>
    </g>
    <g id="xtick_7">
     <g id="line2d_7">
      <g>
       <use xlink:href="#m2a62d42906" x="885.372236" y="2080.263013" style="stroke: #000000; stroke-width: 0.8"/>
      </g>
     </g>
     <g id="text_7">
      <!-- 2026-03-15 -->
      <g transform="translate(866.776432 2133.729872) rotate(-45) scale(0.1 -0.1)">
       <use xlink:href="#DejaVuSans-32"/>
       <use xlink:href="#DejaVuSans-30" transform="translate(63.623047 0)"/>
       <use xlink:href="#DejaVuSans-32" transform="translate(127.246094 0)"/>
       <use xlink:href="#DejaVuSans-36" transform="translate(190.869141 0)"/>
       <use xlink:href="#DejaVuSans-2d" transform="translate(254.492188 0)"/>
       <use xlink:href="#DejaVuSans-30" transform="translate(290.576172 0)"/>
       <use xlink:href="#DejaVuSans-33" transform="translate(354.199219 0)"/>
       <use xlink:href="#DejaVuSans-2d" transform="translate(417.822266 0)"/>
       <use xlink:href="#DejaVuSans-31" transform="translate(453.90625 0)"/>
       <use xlink:href="#DejaVuSans-35" transform="translate(517.529297 0)"/>
      </g>
     </g>
    </g>
    <g id="xtick_8">
     <g id="line2d_8">
      <g>
       <use xlink:href="#m2a62d42906" x="1015.732143" y="2080.263013" style="stroke: #000000; stroke-width: 0.8"/>
      </g>
     </g>
     <g id="text_8">
      <!-- 2026-03-22 -->
      <g transform="translate(997.13634 2133.729872) rotate(-45) scale(0.1 -0.1)">
       <use xlink:href="#DejaVuSans-32"/>
       <use xlink:href="#DejaVuSans-30" transform="translate(63.623047 0)"/>
       <use xlink:href="#DejaVuSans-32" transform="translate(127.246094 0)"/>
       <use xlink:href="#DejaVuSans-36" transform="translate(190.869141 0)"/>
       <use xlink:href="#DejaVuSans-2d" transform="translate(254.492188 0)"/>
       <use xlink:href="#DejaVuSans-30" transform="translate(290.576172 0)"/>
       <use xlink:href="#DejaVuSans-33" transform="translate(354.199219 0)"/>
       <use xlink:href="#DejaVuSans-2d" transform="translate(417.822266 0)"/>
       <use xlink:href="#DejaVuSans-32" transform="translate(453.90625 0)"/>
       <use xlink:href="#DejaVuSans-32" transform="translate(517.529297 0)"/>
      </g>
     </g>
    </g>
    <g id="xtick_9">
     <g id="line2d_9">
      <g>
       <use xlink:href="#m2a62d42906" x="1201.960583" y="2080.263013" style="stroke: #000000; stroke-width: 0.8"/>
      </g>
     </g>
     <g id="text_9">
      <!-- 2026-04-01 -->
      <g transform="translate(1183.364779 2133.729872) rotate(-45) scale(0.1 -0.1)">
       <defs>
        <path id="DejaVuSans-34" d="M 2419 4116 
L 825 1625 
L 2419 1625 
L 2419 4116 
z
M 2253 4666 
L 3047 4666 
L 3047 1625 
L 3713 1625 
L 3713 1100 
L 3047 1100 
L 3047 0 
L 2419 0 
L 2419 1100 
L 313 1100 
L 313 1709 
L 2253 4666 
z
" transform="scale(0.015625)"/>
       </defs>
       <use xlink:href="#DejaVuSans-32"/>
       <use xlink:href="#DejaVuSans-30" transform="translate(63.623047 0)"/>
       <use xlink:href="#DejaVuSans-32" transform="translate(127.246094 0)"/>
       <use xlink:href="#DejaVuSans-36" transform="translate(190.869141 0)"/>
       <use xlink:href="#DejaVuSans-2d" transform="translate(254.492188 0)"/>
       <use xlink:href="#DejaVuSans-30" transform="translate(290.576172 0)"/>
       <use xlink:href="#DejaVuSans-34" transform="translate(354.199219 0)"/>
       <use xlink:href="#DejaVuSans-2d" transform="translate(417.822266 0)"/>
       <use xlink:href="#DejaVuSans-30" transform="translate(453.90625 0)"/>
       <use xlink:href="#DejaVuSans-31" transform="translate(517.529297 0)"/>
      </g>
     </g>
    </g>
    <g id="text_10">
     <!-- Dates -->
     <g transform="translate(619.408374 2146.798871) scale(0.1 -0.1)">
      <defs>
       <path id="DejaVuSans-44" d="M 1259 4147 
L 1259 519 
L 2022 519 
Q 2988 519 3436 956 
Q 3884 1394 3884 2338 
Q 3884 3275 3436 3711 
Q 2988 4147 2022 4147 
L 1259 4147 
z
M 628 4666 
L 1925 4666 
Q 3281 4666 3915 4102 
Q 4550 3538 4550 2338 
Q 4550 1131 3912 565 
Q 3275 0 1925 0 
L 628 0 
L 628 4666 
z
" transform="scale(0.015625)"/>
       <path id="DejaVuSans-61" d="M 2194 1759 
Q 1497 1759 1228 1600 
Q 959 1441 959 1056 
Q 959 750 1161 570 
Q 1363 391 1709 391 
Q 2188 391 2477 730 
Q 2766 1069 2766 1631 
L 2766 1759 
L 2194 1759 
z
M 3341 1997 
L 3341 0 
L 2766 0 
L 2766 531 
Q 2569 213 2275 61 
Q 1981 -91 1556 -91 
Q 1019 -91 701 211 
Q 384 513 384 1019 
Q 384 1609 779 1909 
Q 1175 2209 1959 2209 
L 2766 2209 
L 2766 2266 
Q 2766 2663 2505 2880 
Q 2244 3097 1772 3097 
Q 1472 3097 1187 3025 
Q 903 2953 641 2809 
L 641 3341 
Q 956 3463 1253 3523 
Q 1550 3584 1831 3584 
Q 2591 3584 2966 3190 
Q 3341 2797 3341 1997 
z
" transform="scale(0.015625)"/>
       <path id="DejaVuSans-74" d="M 1172 4494 
L 1172 3500 
L 2356 3500 
L 2356 3053 
L 1172 3053 
L 1172 1153 
Q 1172 725 1289 603 
Q 1406 481 1766 481 
L 2356 481 
L 2356 0 
L 1766 0 
Q 1100 0 847 248 
Q 594 497 594 1153 
L 594 3053 
L 172 3053 
L 172 3500 
L 594 3500 
L 594 4494 
L 1172 4494 
z
" transform="scale(0.015625)"/>
       <path id="DejaVuSans-65" d="M 3597 1894 
L 3597 1613 
L 953 1613 
Q 991 1019 1311 708 
Q 1631 397 2203 397 
Q 2534 397 2845 478 
Q 3156 559 3463 722 
L 3463 178 
Q 3153 47 2828 -22 
Q 2503 -91 2169 -91 
Q 1331 -91 842 396 
Q 353 884 353 1716 
Q 353 2575 817 3079 
Q 1281 3584 2069 3584 
Q 2775 3584 3186 3129 
Q 3597 2675 3597 1894 
z
M 3022 2063 
Q 3016 2534 2758 2815 
Q 2500 3097 2075 3097 
Q 1594 3097 1305 2825 
Q 1016 2553 972 2059 
L 3022 2063 
z
" transform="scale(0.015625)"/>
       <path id="DejaVuSans-73" d="M 2834 3397 
L 2834 2853 
Q 2591 2978 2328 3040 
Q 2066 3103 1784 3103 
Q 1356 3103 1142 2972 
Q 928 2841 928 2578 
Q 928 2378 1081 2264 
Q 1234 2150 1697 2047 
L 1894 2003 
Q 2506 1872 2764 1633 
Q 3022 1394 3022 966 
Q 3022 478 2636 193 
Q 2250 -91 1575 -91 
Q 1294 -91 989 -36 
Q 684 19 347 128 
L 347 722 
Q 666 556 975 473 
Q 1284 391 1588 391 
Q 1994 391 2212 530 
Q 2431 669 2431 922 
Q 2431 1156 2273 1281 
Q 2116 1406 1581 1522 
L 1381 1569 
Q 847 1681 609 1914 
Q 372 2147 372 2553 
Q 372 3047 722 3315 
Q 1072 3584 1716 3584 
Q 2034 3584 2315 3537 
Q 2597 3491 2834 3397 
z
" transform="scale(0.015625)"/>
      </defs>
      <use xlink:href="#DejaVuSans-44"/>
      <use xlink:href="#DejaVuSans-61" transform="translate(77.001953 0)"/>
      <use xlink:href="#DejaVuSans-74" transform="translate(138.28125 0)"/>
      <use xlink:href="#DejaVuSans-65" transform="translate(177.490234 0)"/>
      <use xlink:href="#DejaVuSans-73" transform="translate(239.013672 0)"/>
     </g>
    </g>
   </g>
   <g id="matplotlib.axis_2">
    <g id="ytick_1">
     <g id="line2d_10">
      <defs>
       <path id="m8079d5a39c" d="M 0 0 
L -3.5 0 
" style="stroke: #000000; stroke-width: 0.8"/>
      </defs>
      <g>
       <use xlink:href="#m8079d5a39c" x="50.137685" y="1837.472363" style="stroke: #000000; stroke-width: 0.8"/>
      </g>
     </g>
     <g id="text_11">
      <!-- $\mathdefault{10^{1}}$ -->
      <g transform="translate(25.537685 1841.271582) scale(0.1 -0.1)">
       <use xlink:href="#DejaVuSans-31" transform="translate(0 0.684375)"/>
       <use xlink:href="#DejaVuSans-30" transform="translate(63.623047 0.684375)"/>
       <use xlink:href="#DejaVuSans-31" transform="translate(128.203125 38.965625) scale(0.7)"/>
      </g>
     </g>
    </g>
    <g id="ytick_2">
     <g id="line2d_11">
      <g>
       <use xlink:href="#m8079d5a39c" x="50.137685" y="1343.421433" style="stroke: #000000; stroke-width: 0.8"/>
      </g>
     </g>
     <g id="text_12">
      <!-- $\mathdefault{10^{2}}$ -->
      <g transform="translate(25.537685 1347.220651) scale(0.1 -0.1)">
       <use xlink:href="#DejaVuSans-31" transform="translate(0 0.765625)"/>
       <use xlink:href="#DejaVuSans-30" transform="translate(63.623047 0.765625)"/>
       <use xlink:href="#DejaVuSans-32" transform="translate(128.203125 39.046875) scale(0.7)"/>
      </g>
     </g>
    </g>
    <g id="ytick_3">
     <g id="line2d_12">
      <g>
       <use xlink:href="#m8079d5a39c" x="50.137685" y="849.370502" style="stroke: #000000; stroke-width: 0.8"/>
      </g>
     </g>
     <g id="text_13">
      <!-- $\mathdefault{10^{3}}$ -->
      <g transform="translate(25.537685 853.169721) scale(0.1 -0.1)">
       <use xlink:href="#DejaVuSans-31" transform="translate(0 0.765625)"/>
       <use xlink:href="#DejaVuSans-30" transform="translate(63.623047 0.765625)"/>
       <use xlink:href="#DejaVuSans-33" transform="translate(128.203125 39.046875) scale(0.7)"/>
      </g>
     </g>
    </g>
    <g id="ytick_4">
     <g id="line2d_13">
      <g>
       <use xlink:href="#m8079d5a39c" x="50.137685" y="355.319572" style="stroke: #000000; stroke-width: 0.8"/>
      </g>
     </g>
     <g id="text_14">
      <!-- $\mathdefault{10^{4}}$ -->
      <g transform="translate(25.537685 359.11879) scale(0.1 -0.1)">
       <use xlink:href="#DejaVuSans-31" transform="translate(0 0.684375)"/>
       <use xlink:href="#DejaVuSans-30" transform="translate(63.623047 0.684375)"/>
       <use xlink:href="#DejaVuSans-34" transform="translate(128.203125 38.965625) scale(0.7)"/>
      </g>
     </g>
    </g>
    <g id="ytick_5">
     <g id="line2d_14">
      <defs>
       <path id="m9a0b61f73b" d="M 0 0 
L -2 0 
" style="stroke: #000000; stroke-width: 0.6"/>
      </defs>
      <g>
       <use xlink:href="#m9a0b61f73b" x="50.137685" y="2034.074995" style="stroke: #000000; stroke-width: 0.6"/>
      </g>
     </g>
    </g>
    <g id="ytick_6">
     <g id="line2d_15">
      <g>
       <use xlink:href="#m9a0b61f73b" x="50.137685" y="1986.196512" style="stroke: #000000; stroke-width: 0.6"/>
      </g>
     </g>
    </g>
    <g id="ytick_7">
     <g id="line2d_16">
      <g>
       <use xlink:href="#m9a0b61f73b" x="50.137685" y="1947.076944" style="stroke: #000000; stroke-width: 0.6"/>
      </g>
     </g>
    </g>
    <g id="ytick_8">
     <g id="line2d_17">
      <g>
       <use xlink:href="#m9a0b61f73b" x="50.137685" y="1914.00182" style="stroke: #000000; stroke-width: 0.6"/>
      </g>
     </g>
    </g>
    <g id="ytick_9">
     <g id="line2d_18">
      <g>
       <use xlink:href="#m9a0b61f73b" x="50.137685" y="1885.350845" style="stroke: #000000; stroke-width: 0.6"/>
      </g>
     </g>
    </g>
    <g id="ytick_10">
     <g id="line2d_19">
      <g>
       <use xlink:href="#m9a0b61f73b" x="50.137685" y="1860.078894" style="stroke: #000000; stroke-width: 0.6"/>
      </g>
     </g>
    </g>
    <g id="ytick_11">
     <g id="line2d_20">
      <g>
       <use xlink:href="#m9a0b61f73b" x="50.137685" y="1688.748214" style="stroke: #000000; stroke-width: 0.6"/>
      </g>
     </g>
    </g>
    <g id="ytick_12">
     <g id="line2d_21">
      <g>
       <use xlink:href="#m9a0b61f73b" x="50.137685" y="1601.750163" style="stroke: #000000; stroke-width: 0.6"/>
      </g>
     </g>
    </g>
    <g id="ytick_13">
     <g id="line2d_22">
      <g>
       <use xlink:href="#m9a0b61f73b" x="50.137685" y="1540.024064" style="stroke: #000000; stroke-width: 0.6"/>
      </g>
     </g>
    </g>
    <g id="ytick_14">
     <g id="line2d_23">
      <g>
       <use xlink:href="#m9a0b61f73b" x="50.137685" y="1492.145582" style="stroke: #000000; stroke-width: 0.6"/>
      </g>
     </g>
    </g>
    <g id="ytick_15">
     <g id="line2d_24">
      <g>
       <use xlink:href="#m9a0b61f73b" x="50.137685" y="1453.026014" style="stroke: #000000; stroke-width: 0.6"/>
      </g>
     </g>
    </g>
    <g id="ytick_16">
     <g id="line2d_25">
      <g>
       <use xlink:href="#m9a0b61f73b" x="50.137685" y="1419.95089" style="stroke: #000000; stroke-width: 0.6"/>
      </g>
     </g>
    </g>
    <g id="ytick_17">
     <g id="line2d_26">
      <g>
       <use xlink:href="#m9a0b61f73b" x="50.137685" y="1391.299915" style="stroke: #000000; stroke-width: 0.6"/>
      </g>
     </g>
    </g>
    <g id="ytick_18">
     <g id="line2d_27">
      <g>
       <use xlink:href="#m9a0b61f73b" x="50.137685" y="1366.027963" style="stroke: #000000; stroke-width: 0.6"/>
      </g>
     </g>
    </g>
    <g id="ytick_19">
     <g id="line2d_28">
      <g>
       <use xlink:href="#m9a0b61f73b" x="50.137685" y="1194.697283" style="stroke: #000000; stroke-width: 0.6"/>
      </g>
     </g>
    </g>
    <g id="ytick_20">
     <g id="line2d_29">
      <g>
       <use xlink:href="#m9a0b61f73b" x="50.137685" y="1107.699233" style="stroke: #000000; stroke-width: 0.6"/>
      </g>
     </g>
    </g>
    <g id="ytick_21">
     <g id="line2d_30">
      <g>
       <use xlink:href="#m9a0b61f73b" x="50.137685" y="1045.973134" style="stroke: #000000; stroke-width: 0.6"/>
      </g>
     </g>
    </g>
    <g id="ytick_22">
     <g id="line2d_31">
      <g>
       <use xlink:href="#m9a0b61f73b" x="50.137685" y="998.094652" style="stroke: #000000; stroke-width: 0.6"/>
      </g>
     </g>
    </g>
    <g id="ytick_23">
     <g id="line2d_32">
      <g>
       <use xlink:href="#m9a0b61f73b" x="50.137685" y="958.975083" style="stroke: #000000; stroke-width: 0.6"/>
      </g>
     </g>
    </g>
    <g id="ytick_24">
     <g id="line2d_33">
      <g>
       <use xlink:href="#m9a0b61f73b" x="50.137685" y="925.89996" style="stroke: #000000; stroke-width: 0.6"/>
      </g>
     </g>
    </g>
    <g id="ytick_25">
     <g id="line2d_34">
      <g>
       <use xlink:href="#m9a0b61f73b" x="50.137685" y="897.248984" style="stroke: #000000; stroke-width: 0.6"/>
      </g>
     </g>
    </g>
    <g id="ytick_26">
     <g id="line2d_35">
      <g>
       <use xlink:href="#m9a0b61f73b" x="50.137685" y="871.977033" style="stroke: #000000; stroke-width: 0.6"/>
      </g>
     </g>
    </g>
    <g id="ytick_27">
     <g id="line2d_36">
      <g>
       <use xlink:href="#m9a0b61f73b" x="50.137685" y="700.646353" style="stroke: #000000; stroke-width: 0.6"/>
      </g>
     </g>
    </g>
    <g id="ytick_28">
     <g id="line2d_37">
      <g>
       <use xlink:href="#m9a0b61f73b" x="50.137685" y="613.648302" style="stroke: #000000; stroke-width: 0.6"/>
      </g>
     </g>
    </g>
    <g id="ytick_29">
     <g id="line2d_38">
      <g>
       <use xlink:href="#m9a0b61f73b" x="50.137685" y="551.922203" style="stroke: #000000; stroke-width: 0.6"/>
      </g>
     </g>
    </g>
    <g id="ytick_30">
     <g id="line2d_39">
      <g>
       <use xlink:href="#m9a0b61f73b" x="50.137685" y="504.043721" style="stroke: #000000; stroke-width: 0.6"/>
      </g>
     </g>
    </g>
    <g id="ytick_31">
     <g id="line2d_40">
      <g>
       <use xlink:href="#m9a0b61f73b" x="50.137685" y="464.924153" style="stroke: #000000; stroke-width: 0.6"/>
      </g>
     </g>
    </g>
    <g id="ytick_32">
     <g id="line2d_41">
      <g>
       <use xlink:href="#m9a0b61f73b" x="50.137685" y="431.849029" style="stroke: #000000; stroke-width: 0.6"/>
      </g>
     </g>
    </g>
    <g id="ytick_33">
     <g id="line2d_42">
      <g>
       <use xlink:href="#m9a0b61f73b" x="50.137685" y="403.198054" style="stroke: #000000; stroke-width: 0.6"/>
      </g>
     </g>
    </g>
    <g id="ytick_34">
     <g id="line2d_43">
      <g>
       <use xlink:href="#m9a0b61f73b" x="50.137685" y="377.926103" style="stroke: #000000; stroke-width: 0.6"/>
      </g>
     </g>
    </g>
    <g id="ytick_35">
     <g id="line2d_44">
      <g>
       <use xlink:href="#m9a0b61f73b" x="50.137685" y="206.595422" style="stroke: #000000; stroke-width: 0.6"/>
      </g>
     </g>
    </g>
    <g id="ytick_36">
     <g id="line2d_45">
      <g>
       <use xlink:href="#m9a0b61f73b" x="50.137685" y="119.597372" style="stroke: #000000; stroke-width: 0.6"/>
      </g>
     </g>
    </g>
    <g id="ytick_37">
     <g id="line2d_46">
      <g>
       <use xlink:href="#m9a0b61f73b" x="50.137685" y="57.871273" style="stroke: #000000; stroke-width: 0.6"/>
      </g>
     </g>
    </g>
    <g id="text_15">
     <!-- Cumulative Users -->
     <g transform="translate(19.457997 1089.65885) rotate(-90) scale(0.1 -0.1)">
      <defs>
       <path id="DejaVuSans-43" d="M 4122 4306 
L 4122 3641 
Q 3803 3938 3442 4084 
Q 3081 4231 2675 4231 
Q 1875 4231 1450 3742 
Q 1025 3253 1025 2328 
Q 1025 1406 1450 917 
Q 1875 428 2675 428 
Q 3081 428 3442 575 
Q 3803 722 4122 1019 
L 4122 359 
Q 3791 134 3420 21 
Q 3050 -91 2638 -91 
Q 1578 -91 968 557 
Q 359 1206 359 2328 
Q 359 3453 968 4101 
Q 1578 4750 2638 4750 
Q 3056 4750 3426 4639 
Q 3797 4528 4122 4306 
z
" transform="scale(0.015625)"/>
       <path id="DejaVuSans-75" d="M 544 1381 
L 544 3500 
L 1119 3500 
L 1119 1403 
Q 1119 906 1312 657 
Q 1506 409 1894 409 
Q 2359 409 2629 706 
Q 2900 1003 2900 1516 
L 2900 3500 
L 3475 3500 
L 3475 0 
L 2900 0 
L 2900 538 
Q 2691 219 2414 64 
Q 2138 -91 1772 -91 
Q 1169 -91 856 284 
Q 544 659 544 1381 
z
M 1991 3584 
L 1991 3584 
z
" transform="scale(0.015625)"/>
       <path id="DejaVuSans-6d" d="M 3328 2828 
Q 3544 3216 3844 3400 
Q 4144 3584 4550 3584 
Q 5097 3584 5394 3201 
Q 5691 2819 5691 2113 
L 5691 0 
L 5113 0 
L 5113 2094 
Q 5113 2597 4934 2840 
Q 4756 3084 4391 3084 
Q 3944 3084 3684 2787 
Q 3425 2491 3425 1978 
L 3425 0 
L 2847 0 
L 2847 2094 
Q 2847 2600 2669 2842 
Q 2491 3084 2119 3084 
Q 1678 3084 1418 2786 
Q 1159 2488 1159 1978 
L 1159 0 
L 581 0 
L 581 3500 
L 1159 3500 
L 1159 2956 
Q 1356 3278 1631 3431 
Q 1906 3584 2284 3584 
Q 2666 3584 2933 3390 
Q 3200 3197 3328 2828 
z
" transform="scale(0.015625)"/>
       <path id="DejaVuSans-6c" d="M 603 4863 
L 1178 4863 
L 1178 0 
L 603 0 
L 603 4863 
z
" transform="scale(0.015625)"/>
       <path id="DejaVuSans-69" d="M 603 3500 
L 1178 3500 
L 1178 0 
L 603 0 
L 603 3500 
z
M 603 4863 
L 1178 4863 
L 1178 4134 
L 603 4134 
L 603 4863 
z
" transform="scale(0.015625)"/>
       <path id="DejaVuSans-76" d="M 191 3500 
L 800 3500 
L 1894 563 
L 2988 3500 
L 3597 3500 
L 2284 0 
L 1503 0 
L 191 3500 
z
" transform="scale(0.015625)"/>
       <path id="DejaVuSans-20" transform="scale(0.015625)"/>
       <path id="DejaVuSans-55" d="M 556 4666 
L 1191 4666 
L 1191 1831 
Q 1191 1081 1462 751 
Q 1734 422 2344 422 
Q 2950 422 3222 751 
Q 3494 1081 3494 1831 
L 3494 4666 
L 4128 4666 
L 4128 1753 
Q 4128 841 3676 375 
Q 3225 -91 2344 -91 
Q 1459 -91 1007 375 
Q 556 841 556 1753 
L 556 4666 
z
" transform="scale(0.015625)"/>
       <path id="DejaVuSans-72" d="M 2631 2963 
Q 2534 3019 2420 3045 
Q 2306 3072 2169 3072 
Q 1681 3072 1420 2755 
Q 1159 2438 1159 1844 
L 1159 0 
L 581 0 
L 581 3500 
L 1159 3500 
L 1159 2956 
Q 1341 3275 1631 3429 
Q 1922 3584 2338 3584 
Q 2397 3584 2469 3576 
Q 2541 3569 2628 3553 
L 2631 2963 
z
" transform="scale(0.015625)"/>
      </defs>
      <use xlink:href="#DejaVuSans-43"/>
      <use xlink:href="#DejaVuSans-75" transform="translate(69.824219 0)"/>
      <use xlink:href="#DejaVuSans-6d" transform="translate(133.203125 0)"/>
      <use xlink:href="#DejaVuSans-75" transform="translate(230.615234 0)"/>
      <use xlink:href="#DejaVuSans-6c" transform="translate(293.994141 0)"/>
      <use xlink:href="#DejaVuSans-61" transform="translate(321.777344 0)"/>
      <use xlink:href="#DejaVuSans-74" transform="translate(383.056641 0)"/>
      <use xlink:href="#DejaVuSans-69" transform="translate(422.265625 0)"/>
      <use xlink:href="#DejaVuSans-76" transform="translate(450.048828 0)"/>
      <use xlink:href="#DejaVuSans-65" transform="translate(509.228516 0)"/>
      <use xlink:href="#DejaVuSans-20" transform="translate(570.751953 0)"/>
      <use xlink:href="#DejaVuSans-55" transform="translate(602.539062 0)"/>
      <use xlink:href="#DejaVuSans-73" transform="translate(675.732422 0)"/>
      <use xlink:href="#DejaVuSans-65" transform="translate(727.832031 0)"/>
      <use xlink:href="#DejaVuSans-72" transform="translate(789.355469 0)"/>
      <use xlink:href="#DejaVuSans-73" transform="translate(830.46875 0)"/>
     </g>
    </g>
   </g>
   <g id="line2d_47">
    <path d="M 121.835634 1300.755278 
L 140.458478 993.425428 
L 159.081322 809.893626 
L 177.704166 733.632094 
L 196.32701 658.773084 
L 214.949854 629.52717 
L 233.572698 629.450169 
L 252.195542 265.211541 
L 270.818385 265.211541 
L 289.441229 265.211541 
L 308.064073 265.197443 
L 326.686917 265.197443 
L 345.309761 259.260714 
L 363.932605 226.772123 
L 382.555449 197.644346 
L 401.178293 186.369762 
L 419.801137 174.444911 
L 438.423981 161.307277 
L 457.046825 155.51393 
L 475.669669 130.354747 
L 494.292513 110.824726 
L 512.915357 110.824726 
L 531.538201 110.824726 
L 550.161045 110.824726 
L 568.783889 110.824726 
L 587.406733 110.824726 
L 606.029576 104.873178 
L 624.65242 104.873178 
L 643.275264 104.873178 
L 661.898108 104.873178 
L 680.520952 104.873178 
L 699.143796 104.873178 
L 717.76664 104.873178 
L 736.389484 104.873178 
L 755.012328 104.873178 
L 773.635172 104.873178 
L 792.258016 104.873178 
L 810.88086 104.873178 
L 829.503704 104.873178 
L 848.126548 104.873178 
L 866.749392 104.873178 
L 885.372236 104.873178 
L 903.99508 104.873178 
L 922.617924 104.873178 
L 941.240767 104.873178 
L 959.863611 104.873178 
L 978.486455 104.866501 
L 997.109299 104.866501 
L 1015.732143 104.866501 
L 1034.354987 104.866501 
L 1052.977831 104.866501 
L 1071.600675 104.866501 
L 1090.223519 104.866501 
L 1108.846363 104.866501 
L 1127.469207 104.866501 
L 1146.092051 104.866501 
L 1164.714895 104.866501 
" clip-path="url(#p76db1b2357)" style="fill: none; stroke: #0000ff; stroke-width: 1.5; stroke-linecap: square"/>
   </g>
   <g id="line2d_48">
    <path d="M 140.458478 1280.625189 
L 159.081322 888.833647 
L 177.704166 887.035976 
L 196.32701 816.418021 
L 214.949854 663.863906 
L 233.572698 637.850109 
L 252.195542 637.850109 
L 270.818385 581.187095 
L 289.441229 483.164928 
L 308.064073 479.038949 
L 326.686917 479.038949 
L 345.309761 477.896232 
L 363.932605 469.953359 
L 382.555449 441.985306 
L 401.178293 441.985306 
L 419.801137 441.985306 
L 438.423981 391.32916 
L 457.046825 327.280976 
L 475.669669 327.280976 
L 494.292513 327.262149 
L 512.915357 315.485981 
L 531.538201 315.485981 
L 550.161045 303.529001 
L 568.783889 303.529001 
L 587.406733 303.529001 
L 606.029576 303.495294 
L 624.65242 303.444743 
L 643.275264 303.343677 
L 661.898108 303.343677 
L 680.520952 303.175339 
L 699.143796 303.175339 
L 717.76664 303.175339 
L 736.389484 303.175339 
L 755.012328 303.175339 
L 773.635172 303.175339 
L 792.258016 303.175339 
L 810.88086 303.175339 
L 829.503704 303.175339 
L 848.126548 303.175339 
L 866.749392 303.175339 
L 885.372236 303.175339 
L 903.99508 303.175339 
L 922.617924 303.175339 
L 941.240767 303.175339 
L 959.863611 303.175339 
L 978.486455 303.175339 
L 997.109299 303.175339 
L 1015.732143 303.175339 
L 1034.354987 303.175339 
L 1052.977831 303.175339 
L 1071.600675 303.175339 
L 1090.223519 303.175339 
L 1108.846363 303.175339 
L 1127.469207 303.175339 
L 1146.092051 303.175339 
L 1164.714895 303.175339 
" clip-path="url(#p76db1b2357)" style="fill: none; stroke: #008000; stroke-width: 1.5; stroke-linecap: square"/>
   </g>
   <g id="line2d_49">
    <path d="M 196.32701 1370.84982 
L 214.949854 1028.963995 
L 233.572698 786.894742 
L 252.195542 786.894742 
L 270.818385 786.894742 
L 289.441229 786.894742 
L 308.064073 770.536182 
L 326.686917 749.46561 
L 345.309761 749.46561 
L 363.932605 749.46561 
L 382.555449 728.92982 
L 401.178293 728.92982 
L 419.801137 716.448219 
L 438.423981 716.448219 
L 457.046825 673.854015 
L 475.669669 635.382461 
L 494.292513 625.78624 
L 512.915357 589.459847 
L 531.538201 549.044973 
L 550.161045 532.792805 
L 568.783889 532.792805 
L 587.406733 521.375376 
L 606.029576 434.501423 
L 624.65242 387.30676 
L 643.275264 378.857898 
L 661.898108 370.8906 
L 680.520952 370.521776 
L 699.143796 368.436059 
L 717.76664 368.436059 
L 736.389484 368.436059 
L 755.012328 368.436059 
L 773.635172 368.436059 
L 792.258016 368.436059 
L 810.88086 367.684681 
L 829.503704 367.684681 
L 848.126548 367.684681 
L 866.749392 367.684681 
L 885.372236 367.684681 
L 903.99508 367.684681 
L 922.617924 367.684681 
L 941.240767 367.684681 
L 959.863611 367.684681 
L 978.486455 367.684681 
L 997.109299 367.684681 
L 1015.732143 367.684681 
L 1034.354987 367.684681 
L 1052.977831 367.684681 
L 1071.600675 367.661953 
L 1090.223519 366.777434 
L 1108.846363 366.777434 
L 1127.469207 365.243864 
L 1146.092051 365.243864 
L 1164.714895 365.243864 
" clip-path="url(#p76db1b2357)" style="fill: none; stroke: #ff0000; stroke-width: 1.5; stroke-linecap: square"/>
   </g>
   <g id="line2d_50">
    <path d="M 214.949854 1736.626696 
L 233.572698 951.59379 
L 252.195542 933.385495 
L 270.818385 913.397573 
L 289.441229 890.906741 
L 308.064073 890.126982 
L 326.686917 886.780391 
L 345.309761 884.746598 
L 363.932605 876.311798 
L 382.555449 874.615635 
L 401.178293 873.412246 
L 419.801137 873.412246 
L 438.423981 855.684854 
L 457.046825 855.02296 
L 475.669669 846.387445 
L 494.292513 824.289359 
L 512.915357 738.183996 
L 531.538201 733.007454 
L 550.161045 640.995431 
L 568.783889 635.937196 
L 587.406733 574.588343 
L 606.029576 513.071007 
L 624.65242 512.84734 
L 643.275264 512.802635 
L 661.898108 512.802635 
L 680.520952 512.088612 
L 699.143796 511.865967 
L 717.76664 511.865967 
L 736.389484 511.821465 
L 755.012328 462.082209 
L 773.635172 462.082209 
L 792.258016 462.082209 
L 810.88086 460.359927 
L 829.503704 459.591132 
L 848.126548 459.591132 
L 866.749392 459.451646 
L 885.372236 459.033733 
L 903.99508 459.033733 
L 922.617924 459.033733 
L 941.240767 458.755575 
L 959.863611 456.199572 
L 978.486455 455.479732 
L 997.109299 455.445514 
L 1015.732143 455.445514 
L 1034.354987 455.445514 
L 1052.977831 455.445514 
L 1071.600675 455.445514 
L 1090.223519 455.411301 
L 1108.846363 455.411301 
L 1127.469207 455.411301 
L 1146.092051 455.411301 
L 1164.714895 455.411301 
" clip-path="url(#p76db1b2357)" style="fill: none; stroke: #00ffff; stroke-width: 1.5; stroke-linecap: square"/>
   </g>
   <g id="line2d_51">
    <path d="M 103.21279 1035.504541 
L 121.835634 906.007898 
L 140.458478 830.879906 
L 159.081322 744.934285 
L 177.704166 724.208625 
L 196.32701 699.256202 
L 214.949854 653.627846 
L 233.572698 629.52717 
L 252.195542 629.52717 
L 270.818385 629.52717 
L 289.441229 624.578704 
L 308.064073 608.350167 
L 326.686917 575.963947 
L 345.309761 575.664152 
L 363.932605 557.409506 
L 382.555449 548.992053 
L 401.178293 547.620698 
L 419.801137 546.467127 
L 438.423981 546.467127 
L 457.046825 546.414839 
L 475.669669 546.258052 
L 494.292513 546.258052 
L 512.915357 546.258052 
L 531.538201 546.258052 
L 550.161045 546.258052 
L 568.783889 546.101379 
L 587.406733 546.101379 
L 606.029576 545.840511 
L 624.65242 545.788376 
L 643.275264 545.788376 
L 661.898108 539.977191 
L 680.520952 531.71607 
L 699.143796 531.179721 
L 717.76664 528.614125 
L 736.389484 527.558105 
L 755.012328 527.558105 
L 773.635172 527.558105 
L 792.258016 525.79371 
L 810.88086 520.77143 
L 829.503704 517.31993 
L 848.126548 509.652125 
L 866.749392 508.685225 
L 885.372236 508.685225 
L 903.99508 508.685225 
L 922.617924 507.112363 
L 941.240767 503.229925 
L 959.863611 501.526692 
L 978.486455 501.526692 
L 997.109299 501.526692 
L 1015.732143 501.526692 
L 1034.354987 501.526692 
L 1052.977831 501.526692 
L 1071.600675 501.526692 
L 1090.223519 501.526692 
L 1108.846363 501.526692 
L 1127.469207 501.526692 
L 1146.092051 501.526692 
L 1164.714895 501.526692 
" clip-path="url(#p76db1b2357)" style="fill: none; stroke: #ff00ff; stroke-width: 1.5; stroke-linecap: square"/>
   </g>
   <g id="line2d_52">
    <path d="M 159.081322 1947.076944 
L 177.704166 1295.54295 
L 196.32701 841.368185 
L 214.949854 777.17581 
L 233.572698 688.955172 
L 252.195542 688.955172 
L 270.818385 686.12927 
L 289.441229 686.12927 
L 308.064073 686.12927 
L 326.686917 686.12927 
L 345.309761 678.83518 
L 363.932605 669.263744 
L 382.555449 663.773544 
L 401.178293 663.773544 
L 419.801137 648.182641 
L 438.423981 643.118224 
L 457.046825 642.054202 
L 475.669669 642.054202 
L 494.292513 617.618474 
L 512.915357 617.618474 
L 531.538201 609.680038 
L 550.161045 606.059801 
L 568.783889 589.076812 
L 587.406733 585.785506 
L 606.029576 559.566499 
L 624.65242 558.347069 
L 643.275264 553.267434 
L 661.898108 553.267434 
L 680.520952 553.267434 
L 699.143796 553.267434 
L 717.76664 553.267434 
L 736.389484 553.267434 
L 755.012328 553.267434 
L 773.635172 553.267434 
L 792.258016 553.267434 
L 810.88086 553.267434 
L 829.503704 552.513066 
L 848.126548 549.468802 
L 866.749392 539.672989 
L 885.372236 539.672989 
L 903.99508 539.268057 
L 922.617924 539.268057 
L 941.240767 539.268057 
L 959.863611 539.268057 
L 978.486455 539.268057 
L 997.109299 531.131029 
L 1015.732143 531.131029 
L 1034.354987 531.131029 
L 1052.977831 530.887732 
L 1071.600675 530.887732 
L 1090.223519 530.887732 
L 1108.846363 530.887732 
L 1127.469207 530.887732 
L 1146.092051 525.082527 
L 1164.714895 524.326521 
" clip-path="url(#p76db1b2357)" style="fill: none; stroke: #ffff00; stroke-width: 1.5; stroke-linecap: square"/>
   </g>
   <g id="line2d_53">
    <path d="M 103.21279 1640.869731 
L 121.835634 1581.300069 
L 140.458478 1216.115093 
L 159.081322 1006.407023 
L 177.704166 910.810707 
L 196.32701 776.869509 
L 214.949854 714.036722 
L 233.572698 689.769456 
L 252.195542 689.769456 
L 270.818385 689.769456 
L 289.441229 689.769456 
L 308.064073 676.138654 
L 326.686917 676.138654 
L 345.309761 675.947335 
L 363.932605 652.682062 
L 382.555449 646.926165 
L 401.178293 612.222625 
L 419.801137 574.528734 
L 438.423981 553.267434 
L 457.046825 548.463571 
L 475.669669 543.455295 
L 494.292513 541.045307 
L 512.915357 535.061775 
L 531.538201 535.012193 
L 550.161045 535.012193 
L 568.783889 535.012193 
L 587.406733 535.012193 
L 606.029576 535.012193 
L 624.65242 535.012193 
L 643.275264 535.012193 
L 661.898108 535.012193 
L 680.520952 534.467552 
L 699.143796 534.418108 
L 717.76664 534.418108 
L 736.389484 534.418108 
L 755.012328 533.579293 
L 773.635172 533.530053 
L 792.258016 533.530053 
L 810.88086 533.530053 
L 829.503704 533.530053 
L 848.126548 533.480825 
L 866.749392 533.480825 
L 885.372236 533.480825 
L 903.99508 533.480825 
L 922.617924 533.382401 
L 941.240767 533.382401 
L 959.863611 533.382401 
L 978.486455 533.136539 
L 997.109299 533.136539 
L 1015.732143 532.155899 
L 1034.354987 531.862579 
L 1052.977831 531.862579 
L 1071.600675 531.862579 
L 1090.223519 530.79049 
L 1108.846363 530.79049 
L 1127.469207 530.693293 
L 1146.092051 530.693293 
L 1164.714895 530.693293 
" clip-path="url(#p76db1b2357)" style="fill: none; stroke: #000000; stroke-width: 1.5; stroke-linecap: square"/>
   </g>
   <g id="line2d_54">
    <path d="M 103.21279 1885.350845 
L 121.835634 1885.350845 
L 140.458478 1885.350845 
L 159.081322 1300.755278 
L 177.704166 1203.456197 
L 196.32701 1157.373237 
L 214.949854 1147.678777 
L 233.572698 1132.703147 
L 252.195542 1131.101919 
L 270.818385 1086.599929 
L 289.441229 1080.843779 
L 308.064073 995.959673 
L 326.686917 905.171392 
L 345.309761 887.291866 
L 363.932605 869.842054 
L 382.555449 849.156046 
L 401.178293 828.141591 
L 419.801137 820.50507 
L 438.423981 820.50507 
L 457.046825 820.50507 
L 475.669669 820.50507 
L 494.292513 773.981256 
L 512.915357 773.981256 
L 531.538201 764.528888 
L 550.161045 763.663711 
L 568.783889 763.663711 
L 587.406733 763.663711 
L 606.029576 545.736253 
L 624.65242 545.736253 
L 643.275264 545.736253 
L 661.898108 545.736253 
L 680.520952 545.736253 
L 699.143796 545.736253 
L 717.76664 544.437281 
L 736.389484 544.437281 
L 755.012328 544.437281 
L 773.635172 544.437281 
L 792.258016 544.437281 
L 810.88086 544.437281 
L 829.503704 544.437281 
L 848.126548 544.437281 
L 866.749392 544.437281 
L 885.372236 544.437281 
L 903.99508 544.437281 
L 922.617924 544.437281 
L 941.240767 544.437281 
L 959.863611 544.437281 
L 978.486455 544.437281 
L 997.109299 544.437281 
L 1015.732143 544.437281 
L 1034.354987 544.437281 
L 1052.977831 544.437281 
L 1071.600675 544.437281 
L 1090.223519 544.437281 
L 1108.846363 544.437281 
L 1127.469207 544.437281 
L 1146.092051 544.437281 
L 1164.714895 544.437281 
" clip-path="url(#p76db1b2357)" style="fill: none; stroke: #0000ff; stroke-width: 1.5; stroke-linecap: square"/>
   </g>
   <g id="line2d_55">
    <path d="M 103.21279 1534.725928 
L 121.835634 1368.425347 
L 140.458478 1256.423382 
L 159.081322 952.285931 
L 177.704166 894.05443 
L 196.32701 867.028065 
L 214.949854 817.710021 
L 233.572698 804.952798 
L 252.195542 768.907889 
L 270.818385 755.198566 
L 289.441229 743.357571 
L 308.064073 732.136002 
L 326.686917 709.181879 
L 345.309761 685.128972 
L 363.932605 669.17108 
L 382.555449 668.431204 
L 401.178293 662.961998 
L 419.801137 658.244168 
L 438.423981 641.809406 
L 457.046825 639.054398 
L 475.669669 636.891521 
L 494.292513 636.811831 
L 512.915357 636.811831 
L 531.538201 629.604198 
L 550.161045 629.604198 
L 568.783889 620.848366 
L 587.406733 620.848366 
L 606.029576 596.342053 
L 624.65242 595.880696 
L 643.275264 595.880696 
L 661.898108 595.880696 
L 680.520952 595.880696 
L 699.143796 595.880696 
L 717.76664 595.880696 
L 736.389484 595.880696 
L 755.012328 595.880696 
L 773.635172 595.880696 
L 792.258016 595.880696 
L 810.88086 595.880696 
L 829.503704 595.880696 
L 848.126548 595.880696 
L 866.749392 595.880696 
L 885.372236 592.289863 
L 903.99508 591.772531 
L 922.617924 591.256443 
L 941.240767 591.127614 
L 959.863611 585.283603 
L 978.486455 585.283603 
L 997.109299 583.722679 
L 1015.732143 583.722679 
L 1034.354987 581.248583 
L 1052.977831 581.248583 
L 1071.600675 581.248583 
L 1090.223519 581.248583 
L 1108.846363 581.187095 
L 1127.469207 581.187095 
L 1146.092051 578.256186 
L 1164.714895 578.256186 
" clip-path="url(#p76db1b2357)" style="fill: none; stroke: #008000; stroke-width: 1.5; stroke-linecap: square"/>
   </g>
   <g id="line2d_56">
    <path d="M 103.21279 1252.174459 
L 121.835634 1028.963995 
L 140.458478 993.845729 
L 159.081322 922.252899 
L 177.704166 875.82581 
L 196.32701 802.351996 
L 214.949854 802.351996 
L 233.572698 790.941704 
L 252.195542 764.095863 
L 270.818385 729.911244 
L 289.441229 725.52976 
L 308.064073 696.502634 
L 326.686917 696.502634 
L 345.309761 696.502634 
L 363.932605 696.502634 
L 382.555449 696.502634 
L 401.178293 696.502634 
L 419.801137 696.502634 
L 438.423981 696.502634 
L 457.046825 696.502634 
L 475.669669 696.502634 
L 494.292513 696.502634 
L 512.915357 696.502634 
L 531.538201 696.502634 
L 550.161045 696.502634 
L 568.783889 696.502634 
L 587.406733 696.502634 
L 606.029576 696.502634 
L 624.65242 669.356448 
L 643.275264 660.189935 
L 661.898108 656.752614 
L 680.520952 656.665197 
L 699.143796 654.577817 
L 717.76664 654.577817 
L 736.389484 654.577817 
L 755.012328 654.577817 
L 773.635172 654.577817 
L 792.258016 654.577817 
L 810.88086 654.577817 
L 829.503704 654.577817 
L 848.126548 654.577817 
L 866.749392 654.577817 
L 885.372236 654.577817 
L 903.99508 654.577817 
L 922.617924 654.577817 
L 941.240767 654.577817 
L 959.863611 654.577817 
L 978.486455 654.577817 
L 997.109299 654.577817 
L 1015.732143 654.577817 
L 1034.354987 654.577817 
L 1052.977831 654.577817 
L 1071.600675 654.577817 
L 1090.223519 654.577817 
L 1108.846363 654.577817 
L 1127.469207 654.577817 
L 1146.092051 654.577817 
L 1164.714895 654.577817 
" clip-path="url(#p76db1b2357)" style="fill: none; stroke: #ff0000; stroke-width: 1.5; stroke-linecap: square"/>
   </g>
   <g id="line2d_57">
    <path d="M 382.555449 1640.869731 
L 401.178293 1065.62012 
L 419.801137 1018.802377 
L 438.423981 993.845729 
L 457.046825 985.997485 
L 475.669669 946.135598 
L 494.292513 946.135598 
L 512.915357 917.484622 
L 531.538201 831.866407 
L 550.161045 779.48711 
L 568.783889 760.379146 
L 587.406733 749.870066 
L 606.029576 749.870066 
L 624.65242 749.870066 
L 643.275264 749.870066 
L 661.898108 749.870066 
L 680.520952 749.870066 
L 699.143796 749.870066 
L 717.76664 749.870066 
L 736.389484 749.870066 
L 755.012328 741.922357 
L 773.635172 728.92982 
L 792.258016 723.49142 
L 810.88086 723.49142 
L 829.503704 719.823577 
L 848.126548 719.823577 
L 866.749392 719.823577 
L 885.372236 708.735801 
L 903.99508 700.003626 
L 922.617924 690.586842 
L 941.240767 683.637214 
L 959.863611 680.001289 
L 978.486455 680.001289 
L 997.109299 678.351165 
L 1015.732143 678.351165 
L 1034.354987 663.773544 
L 1052.977831 662.33291 
L 1071.600675 662.33291 
L 1090.223519 662.153509 
L 1108.846363 658.508463 
L 1127.469207 657.89228 
L 1146.092051 657.102636 
L 1164.714895 657.102636 
" clip-path="url(#p76db1b2357)" style="fill: none; stroke: #00ffff; stroke-width: 1.5; stroke-linecap: square"/>
   </g>
   <g id="line2d_58">
    <path d="M 121.835634 1986.196512 
L 140.458478 1594.714661 
L 159.081322 1345.577869 
L 177.704166 1307.90806 
L 196.32701 1300.755278 
L 214.949854 1259.303474 
L 233.572698 1246.637027 
L 252.195542 1246.637027 
L 270.818385 1246.637027 
L 289.441229 1205.702957 
L 308.064073 1154.685557 
L 326.686917 1095.196846 
L 345.309761 1075.238025 
L 363.932605 1003.74711 
L 382.555449 962.581279 
L 401.178293 945.462984 
L 419.801137 935.618891 
L 438.423981 926.206698 
L 457.046825 911.382877 
L 475.669669 901.58375 
L 494.292513 884.241148 
L 512.915357 867.72811 
L 531.538201 850.01516 
L 550.161045 822.957252 
L 568.783889 816.602117 
L 587.406733 807.762182 
L 606.029576 773.830314 
L 624.65242 773.830314 
L 643.275264 757.703228 
L 661.898108 744.275912 
L 680.520952 732.011797 
L 699.143796 727.101661 
L 717.76664 724.928235 
L 736.389484 721.235959 
L 755.012328 713.808462 
L 773.635172 710.413398 
L 792.258016 706.739846 
L 810.88086 703.998132 
L 829.503704 701.506328 
L 848.126548 696.187176 
L 866.749392 687.537569 
L 885.372236 687.537569 
L 903.99508 687.537569 
L 922.617924 683.142258 
L 941.240767 683.142258 
L 959.863611 680.196258 
L 978.486455 672.814964 
L 997.109299 668.893327 
L 1015.732143 667.877968 
L 1034.354987 667.234322 
L 1052.977831 666.775755 
L 1071.600675 665.952795 
L 1090.223519 664.860403 
L 1108.846363 664.044743 
L 1127.469207 664.044743 
L 1146.092051 661.616205 
L 1164.714895 660.45664 
" clip-path="url(#p76db1b2357)" style="fill: none; stroke: #ff00ff; stroke-width: 1.5; stroke-linecap: square"/>
   </g>
   <g id="line2d_59">
    <path d="M 140.458478 1375.782534 
L 159.081322 1375.782534 
L 177.704166 1168.473829 
L 196.32701 1078.334235 
L 214.949854 1030.955319 
L 233.572698 825.054292 
L 252.195542 809.358776 
L 270.818385 808.647712 
L 289.441229 808.647712 
L 308.064073 808.293061 
L 326.686917 808.293061 
L 345.309761 808.293061 
L 363.932605 781.041925 
L 382.555449 759.954408 
L 401.178293 759.954408 
L 419.801137 750.005054 
L 438.423981 743.357571 
L 457.046825 743.357571 
L 475.669669 743.357571 
L 494.292513 743.357571 
L 512.915357 743.357571 
L 531.538201 743.357571 
L 550.161045 743.357571 
L 568.783889 740.367542 
L 587.406733 705.419451 
L 606.029576 665.223916 
L 624.65242 665.223916 
L 643.275264 665.223916 
L 661.898108 665.223916 
L 680.520952 665.223916 
L 699.143796 665.223916 
L 717.76664 665.223916 
L 736.389484 665.223916 
L 755.012328 665.223916 
L 773.635172 665.223916 
L 792.258016 665.223916 
L 810.88086 665.223916 
L 829.503704 665.223916 
L 848.126548 665.223916 
L 866.749392 665.223916 
L 885.372236 665.223916 
L 903.99508 665.223916 
L 922.617924 665.223916 
L 941.240767 665.223916 
L 959.863611 665.223916 
L 978.486455 665.223916 
L 997.109299 665.223916 
L 1015.732143 665.223916 
L 1034.354987 665.223916 
L 1052.977831 665.223916 
L 1071.600675 665.223916 
L 1090.223519 665.223916 
L 1108.846363 665.223916 
L 1127.469207 665.223916 
L 1146.092051 665.223916 
L 1164.714895 665.223916 
" clip-path="url(#p76db1b2357)" style="fill: none; stroke: #ffff00; stroke-width: 1.5; stroke-linecap: square"/>
   </g>
   <g id="line2d_60">
    <path d="M 177.704166 1127.15036 
L 196.32701 1125.58989 
L 214.949854 995.111594 
L 233.572698 995.111594 
L 252.195542 969.604659 
L 270.818385 956.13314 
L 289.441229 945.127466 
L 308.064073 935.298408 
L 326.686917 934.658873 
L 345.309761 871.26301 
L 363.932605 808.470313 
L 382.555449 802.696953 
L 401.178293 802.696953 
L 419.801137 802.524405 
L 438.423981 802.351996 
L 457.046825 801.148993 
L 475.669669 801.148993 
L 494.292513 801.148993 
L 512.915357 720.41094 
L 531.538201 690.075611 
L 550.161045 690.075611 
L 568.783889 690.075611 
L 587.406733 690.075611 
L 606.029576 690.075611 
L 624.65242 689.973511 
L 643.275264 687.335816 
L 661.898108 683.142258 
L 680.520952 683.142258 
L 699.143796 683.142258 
L 717.76664 682.254203 
L 736.389484 682.254203 
L 755.012328 682.057355 
L 773.635172 681.271767 
L 792.258016 681.271767 
L 810.88086 680.880049 
L 829.503704 680.880049 
L 848.126548 680.880049 
L 866.749392 680.880049 
L 885.372236 680.880049 
L 903.99508 680.880049 
L 922.617924 680.880049 
L 941.240767 680.880049 
L 959.863611 680.880049 
L 978.486455 680.880049 
L 997.109299 680.880049 
L 1015.732143 680.880049 
L 1034.354987 680.196258 
L 1052.977831 680.196258 
L 1071.600675 680.196258 
L 1090.223519 680.196258 
L 1108.846363 680.196258 
L 1127.469207 680.196258 
L 1146.092051 680.196258 
L 1164.714895 680.196258 
" clip-path="url(#p76db1b2357)" style="fill: none; stroke: #000000; stroke-width: 1.5; stroke-linecap: square"/>
   </g>
   <g id="line2d_61">
    <path d="M 103.21279 1467.829372 
L 121.835634 1467.829372 
L 140.458478 1378.292078 
L 159.081322 1378.292078 
L 177.704166 1378.292078 
L 196.32701 1378.292078 
L 214.949854 1102.052497 
L 233.572698 1054.732048 
L 252.195542 975.702792 
L 270.818385 909.670924 
L 289.441229 855.02296 
L 308.064073 843.445293 
L 326.686917 843.445293 
L 345.309761 814.950914 
L 363.932605 814.950914 
L 382.555449 814.950914 
L 401.178293 784.820105 
L 419.801137 784.820105 
L 438.423981 784.820105 
L 457.046825 784.820105 
L 475.669669 781.198028 
L 494.292513 751.223784 
L 512.915357 751.223784 
L 531.538201 751.223784 
L 550.161045 742.182592 
L 568.783889 742.182592 
L 587.406733 742.182592 
L 606.029576 718.303916 
L 624.65242 718.303916 
L 643.275264 718.303916 
L 661.898108 718.303916 
L 680.520952 718.303916 
L 699.143796 716.910641 
L 717.76664 716.910641 
L 736.389484 716.910641 
L 755.012328 716.910641 
L 773.635172 716.910641 
L 792.258016 716.910641 
L 810.88086 716.910641 
L 829.503704 716.910641 
L 848.126548 716.910641 
L 866.749392 716.910641 
L 885.372236 716.910641 
L 903.99508 716.910641 
L 922.617924 716.910641 
L 941.240767 716.910641 
L 959.863611 716.910641 
L 978.486455 716.910641 
L 997.109299 716.910641 
L 1015.732143 716.910641 
L 1034.354987 716.910641 
L 1052.977831 716.910641 
L 1071.600675 716.910641 
L 1090.223519 716.910641 
L 1108.846363 716.910641 
L 1127.469207 716.910641 
L 1146.092051 716.910641 
L 1164.714895 716.910641 
" clip-path="url(#p76db1b2357)" style="fill: none; stroke: #0000ff; stroke-width: 1.5; stroke-linecap: square"/>
   </g>
   <g id="line2d_62">
    <path d="M 401.178293 964.407363 
L 419.801137 964.407363 
L 438.423981 964.407363 
L 457.046825 964.407363 
L 475.669669 964.407363 
L 494.292513 964.407363 
L 512.915357 964.407363 
L 531.538201 964.407363 
L 550.161045 964.407363 
L 568.783889 964.407363 
L 587.406733 964.407363 
L 606.029576 964.407363 
L 624.65242 964.407363 
L 643.275264 964.407363 
L 661.898108 964.407363 
L 680.520952 964.407363 
L 699.143796 964.407363 
L 717.76664 964.407363 
L 736.389484 964.407363 
L 755.012328 964.407363 
L 773.635172 964.407363 
L 792.258016 964.407363 
L 810.88086 964.407363 
L 829.503704 964.407363 
L 848.126548 964.407363 
L 866.749392 964.407363 
L 885.372236 964.407363 
L 903.99508 964.407363 
L 922.617924 964.407363 
L 941.240767 964.407363 
L 959.863611 964.407363 
L 978.486455 964.407363 
L 997.109299 964.407363 
L 1015.732143 964.407363 
L 1034.354987 724.688097 
L 1052.977831 724.688097 
L 1071.600675 724.688097 
L 1090.223519 724.688097 
L 1108.846363 724.688097 
L 1127.469207 724.688097 
L 1146.092051 724.688097 
L 1164.714895 724.688097 
" clip-path="url(#p76db1b2357)" style="fill: none; stroke: #008000; stroke-width: 1.5; stroke-linecap: square"/>
   </g>
   <g id="line2d_63">
    <path d="M 103.21279 1914.00182 
L 121.835634 1914.00182 
L 140.458478 1601.750163 
L 159.081322 1370.84982 
L 177.704166 1238.589949 
L 196.32701 1129.512552 
L 214.949854 1128.722261 
L 233.572698 1079.585338 
L 252.195542 1068.579664 
L 270.818385 1068.579664 
L 289.441229 993.425428 
L 308.064073 944.124049 
L 326.686917 899.40542 
L 345.309761 890.386587 
L 363.932605 851.093914 
L 382.555449 846.175948 
L 401.178293 843.863138 
L 419.801137 837.882603 
L 438.423981 837.882603 
L 457.046825 819.756157 
L 475.669669 805.476763 
L 494.292513 795.733851 
L 512.915357 785.775138 
L 531.538201 776.869509 
L 550.161045 772.476596 
L 568.783889 771.429578 
L 587.406733 762.945386 
L 606.029576 751.088027 
L 624.65242 748.390774 
L 643.275264 748.390774 
L 661.898108 748.390774 
L 680.520952 748.390774 
L 699.143796 748.390774 
L 717.76664 748.390774 
L 736.389484 748.390774 
L 755.012328 748.390774 
L 773.635172 748.122905 
L 792.258016 748.122905 
L 810.88086 748.122905 
L 829.503704 747.989095 
L 848.126548 747.989095 
L 866.749392 747.989095 
L 885.372236 747.989095 
L 903.99508 747.989095 
L 922.617924 747.989095 
L 941.240767 747.989095 
L 959.863611 747.989095 
L 978.486455 747.989095 
L 997.109299 747.989095 
L 1015.732143 747.187986 
L 1034.354987 747.187986 
L 1052.977831 747.187986 
L 1071.600675 747.187986 
L 1090.223519 747.187986 
L 1108.846363 747.054758 
L 1127.469207 747.054758 
L 1146.092051 747.054758 
L 1164.714895 747.054758 
" clip-path="url(#p76db1b2357)" style="fill: none; stroke: #ff0000; stroke-width: 1.5; stroke-linecap: square"/>
   </g>
   <g id="line2d_64">
    <path d="M 121.835634 1471.695487 
L 140.458478 1319.105223 
L 159.081322 1238.589949 
L 177.704166 1177.193188 
L 196.32701 1173.274109 
L 214.949854 1120.975442 
L 233.572698 1026.990983 
L 252.195542 1012.744805 
L 270.818385 1012.744805 
L 289.441229 1002.429417 
L 308.064073 991.752409 
L 326.686917 980.788402 
L 345.309761 972.251292 
L 363.932605 962.21792 
L 382.555449 962.21792 
L 401.178293 951.59379 
L 419.801137 931.489487 
L 438.423981 920.751398 
L 457.046825 903.784421 
L 475.669669 880.984428 
L 494.292513 867.961967 
L 512.915357 866.562634 
L 531.538201 847.235523 
L 550.161045 837.476232 
L 568.783889 826.785429 
L 587.406733 819.756157 
L 606.029576 816.970783 
L 624.65242 816.970783 
L 643.275264 816.970783 
L 661.898108 816.970783 
L 680.520952 816.970783 
L 699.143796 816.970783 
L 717.76664 816.970783 
L 736.389484 816.970783 
L 755.012328 816.970783 
L 773.635172 816.970783 
L 792.258016 816.970783 
L 810.88086 816.970783 
L 829.503704 816.970783 
L 848.126548 816.970783 
L 866.749392 816.970783 
L 885.372236 816.970783 
L 903.99508 816.970783 
L 922.617924 816.970783 
L 941.240767 816.970783 
L 959.863611 816.970783 
L 978.486455 816.970783 
L 997.109299 816.970783 
L 1015.732143 816.970783 
L 1034.354987 816.970783 
L 1052.977831 816.970783 
L 1071.600675 816.970783 
L 1090.223519 816.970783 
L 1108.846363 816.970783 
L 1127.469207 816.970783 
L 1146.092051 816.970783 
L 1164.714895 816.970783 
" clip-path="url(#p76db1b2357)" style="fill: none; stroke: #00ffff; stroke-width: 1.5; stroke-linecap: square"/>
   </g>
   <g id="line2d_65">
    <path d="M 103.21279 1534.725928 
L 121.835634 1534.725928 
L 140.458478 1086.599929 
L 159.081322 953.328347 
L 177.704166 873.652385 
L 196.32701 873.652385 
L 214.949854 837.679321 
L 233.572698 837.679321 
L 252.195542 818.451815 
L 270.818385 818.451815 
L 289.441229 818.451815 
L 308.064073 818.451815 
L 326.686917 818.451815 
L 345.309761 818.451815 
L 363.932605 818.451815 
L 382.555449 818.451815 
L 401.178293 818.451815 
L 419.801137 818.451815 
L 438.423981 818.451815 
L 457.046825 818.451815 
L 475.669669 818.451815 
L 494.292513 818.451815 
L 512.915357 818.451815 
L 531.538201 818.451815 
L 550.161045 818.451815 
L 568.783889 818.451815 
L 587.406733 818.451815 
L 606.029576 818.451815 
L 624.65242 818.451815 
L 643.275264 818.451815 
L 661.898108 818.451815 
L 680.520952 818.451815 
L 699.143796 818.451815 
L 717.76664 818.451815 
L 736.389484 818.451815 
L 755.012328 818.451815 
L 773.635172 818.451815 
L 792.258016 818.451815 
L 810.88086 818.451815 
L 829.503704 818.451815 
L 848.126548 818.451815 
L 866.749392 818.451815 
L 885.372236 817.895229 
L 903.99508 817.895229 
L 922.617924 817.895229 
L 941.240767 817.895229 
L 959.863611 817.895229 
L 978.486455 817.895229 
L 997.109299 817.895229 
L 1015.732143 817.895229 
L 1034.354987 817.895229 
L 1052.977831 817.895229 
L 1071.600675 817.895229 
L 1090.223519 817.895229 
L 1108.846363 817.895229 
L 1127.469207 817.895229 
L 1146.092051 817.895229 
L 1164.714895 817.895229 
" clip-path="url(#p76db1b2357)" style="fill: none; stroke: #ff00ff; stroke-width: 1.5; stroke-linecap: square"/>
   </g>
   <g id="line2d_66">
    <path d="M 121.835634 1168.473829 
L 140.458478 1136.75929 
L 159.081322 1109.855669 
L 177.704166 1102.750265 
L 196.32701 1102.750265 
L 214.949854 1063.863791 
L 233.572698 1033.977391 
L 252.195542 1026.011239 
L 270.818385 993.845729 
L 289.441229 993.845729 
L 308.064073 993.845729 
L 326.686917 954.026115 
L 345.309761 931.804327 
L 363.932605 927.438056 
L 382.555449 888.833647 
L 401.178293 869.13509 
L 419.801137 869.13509 
L 438.423981 865.866375 
L 457.046825 855.243364 
L 475.669669 855.243364 
L 494.292513 854.363102 
L 512.915357 847.448068 
L 531.538201 847.448068 
L 550.161045 847.448068 
L 568.783889 847.448068 
L 587.406733 847.448068 
L 606.029576 847.448068 
L 624.65242 846.59915 
L 643.275264 846.59915 
L 661.898108 841.989208 
L 680.520952 841.989208 
L 699.143796 841.989208 
L 717.76664 841.989208 
L 736.389484 841.989208 
L 755.012328 841.989208 
L 773.635172 841.989208 
L 792.258016 841.989208 
L 810.88086 841.989208 
L 829.503704 841.989208 
L 848.126548 841.989208 
L 866.749392 835.657029 
L 885.372236 835.657029 
L 903.99508 835.657029 
L 922.617924 835.657029 
L 941.240767 835.657029 
L 959.863611 835.657029 
L 978.486455 835.657029 
L 997.109299 835.657029 
L 1015.732143 835.657029 
L 1034.354987 835.657029 
L 1052.977831 835.657029 
L 1071.600675 835.657029 
L 1090.223519 835.657029 
L 1108.846363 835.657029 
L 1127.469207 835.657029 
L 1146.092051 835.657029 
L 1164.714895 835.657029 
" clip-path="url(#p76db1b2357)" style="fill: none; stroke: #ffff00; stroke-width: 1.5; stroke-linecap: square"/>
   </g>
   <g id="patch_3">
    <path d="M 50.137685 2080.263013 
L 50.137685 10.8 
" style="fill: none; stroke: #000000; stroke-width: 0.8; stroke-linejoin: miter; stroke-linecap: square"/>
   </g>
   <g id="patch_4">
    <path d="M 1217.79 2080.263013 
L 1217.79 10.8 
" style="fill: none; stroke: #000000; stroke-width: 0.8; stroke-linejoin: miter; stroke-linecap: square"/>
   </g>
   <g id="patch_5">
    <path d="M 50.137685 2080.263013 
L 1217.79 2080.263013 
" style="fill: none; stroke: #000000; stroke-width: 0.8; stroke-linejoin: miter; stroke-linecap: square"/>
   </g>
   <g id="patch_6">
    <path d="M 50.137685 10.8 
L 1217.79 10.8 
" style="fill: none; stroke: #000000; stroke-width: 0.8; stroke-linejoin: miter; stroke-linecap: square"/>
   </g>
   <g id="text_16">
    <!-- jacopofar -->
    <g style="fill: #ffff00" transform="translate(1241.143046 838.377342) scale(0.1 -0.1)">
     <defs>
      <path id="DejaVuSans-Bold-6a" d="M 538 3500 
L 1656 3500 
L 1656 63 
Q 1656 -641 1318 -1011 
Q 981 -1381 341 -1381 
L -213 -1381 
L -213 -647 
L -19 -647 
Q 300 -647 419 -503 
Q 538 -359 538 63 
L 538 3500 
z
M 538 4863 
L 1656 4863 
L 1656 3950 
L 538 3950 
L 538 4863 
z
" transform="scale(0.015625)"/>
      <path id="DejaVuSans-Bold-61" d="M 2106 1575 
Q 1756 1575 1579 1456 
Q 1403 1338 1403 1106 
Q 1403 894 1545 773 
Q 1688 653 1941 653 
Q 2256 653 2472 879 
Q 2688 1106 2688 1447 
L 2688 1575 
L 2106 1575 
z
M 3816 1997 
L 3816 0 
L 2688 0 
L 2688 519 
Q 2463 200 2181 54 
Q 1900 -91 1497 -91 
Q 953 -91 614 226 
Q 275 544 275 1050 
Q 275 1666 698 1953 
Q 1122 2241 2028 2241 
L 2688 2241 
L 2688 2328 
Q 2688 2594 2478 2717 
Q 2269 2841 1825 2841 
Q 1466 2841 1156 2769 
Q 847 2697 581 2553 
L 581 3406 
Q 941 3494 1303 3539 
Q 1666 3584 2028 3584 
Q 2975 3584 3395 3211 
Q 3816 2838 3816 1997 
z
" transform="scale(0.015625)"/>
      <path id="DejaVuSans-Bold-63" d="M 3366 3391 
L 3366 2478 
Q 3138 2634 2908 2709 
Q 2678 2784 2431 2784 
Q 1963 2784 1702 2511 
Q 1441 2238 1441 1747 
Q 1441 1256 1702 982 
Q 1963 709 2431 709 
Q 2694 709 2930 787 
Q 3166 866 3366 1019 
L 3366 103 
Q 3103 6 2833 -42 
Q 2563 -91 2291 -91 
Q 1344 -91 809 395 
Q 275 881 275 1747 
Q 275 2613 809 3098 
Q 1344 3584 2291 3584 
Q 2566 3584 2833 3536 
Q 3100 3488 3366 3391 
z
" transform="scale(0.015625)"/>
      <path id="DejaVuSans-Bold-6f" d="M 2203 2784 
Q 1831 2784 1636 2517 
Q 1441 2250 1441 1747 
Q 1441 1244 1636 976 
Q 1831 709 2203 709 
Q 2569 709 2762 976 
Q 2956 1244 2956 1747 
Q 2956 2250 2762 2517 
Q 2569 2784 2203 2784 
z
M 2203 3584 
Q 3106 3584 3614 3096 
Q 4122 2609 4122 1747 
Q 4122 884 3614 396 
Q 3106 -91 2203 -91 
Q 1297 -91 786 396 
Q 275 884 275 1747 
Q 275 2609 786 3096 
Q 1297 3584 2203 3584 
z
" transform="scale(0.015625)"/>
      <path id="DejaVuSans-Bold-70" d="M 1656 506 
L 1656 -1331 
L 538 -1331 
L 538 3500 
L 1656 3500 
L 1656 2988 
Q 1888 3294 2169 3439 
Q 2450 3584 2816 3584 
Q 3463 3584 3878 3070 
Q 4294 2556 4294 1747 
Q 4294 938 3878 423 
Q 3463 -91 2816 -91 
Q 2450 -91 2169 54 
Q 1888 200 1656 506 
z
M 2400 2772 
Q 2041 2772 1848 2508 
Q 1656 2244 1656 1747 
Q 1656 1250 1848 986 
Q 2041 722 2400 722 
Q 2759 722 2948 984 
Q 3138 1247 3138 1747 
Q 3138 2247 2948 2509 
Q 2759 2772 2400 2772 
z
" transform="scale(0.015625)"/>
      <path id="DejaVuSans-Bold-66" d="M 2841 4863 
L 2841 4128 
L 2222 4128 
Q 1984 4128 1890 4042 
Q 1797 3956 1797 3744 
L 1797 3500 
L 2753 3500 
L 2753 2700 
L 1797 2700 
L 1797 0 
L 678 0 
L 678 2700 
L 122 2700 
L 122 3500 
L 678 3500 
L 678 3744 
Q 678 4316 997 4589 
Q 1316 4863 1984 4863 
L 2841 4863 
z
" transform="scale(0.015625)"/>
      <path id="DejaVuSans-Bold-72" d="M 3138 2547 
Q 2991 2616 2845 2648 
Q 2700 2681 2553 2681 
Q 2122 2681 1889 2404 
Q 1656 2128 1656 1613 
L 1656 0 
L 538 0 
L 538 3500 
L 1656 3500 
L 1656 2925 
Q 1872 3269 2151 3426 
Q 2431 3584 2822 3584 
Q 2878 3584 2943 3579 
Q 3009 3575 3134 3559 
L 3138 2547 
z
" transform="scale(0.015625)"/>
     </defs>
     <use xlink:href="#DejaVuSans-Bold-6a"/>
     <use xlink:href="#DejaVuSans-Bold-61" transform="translate(34.277344 0)"/>
     <use xlink:href="#DejaVuSans-Bold-63" transform="translate(101.757812 0)"/>
     <use xlink:href="#DejaVuSans-Bold-6f" transform="translate(161.035156 0)"/>
     <use xlink:href="#DejaVuSans-Bold-70" transform="translate(229.736328 0)"/>
     <use xlink:href="#DejaVuSans-Bold-6f" transform="translate(301.318359 0)"/>
     <use xlink:href="#DejaVuSans-Bold-66" transform="translate(370.019531 0)"/>
     <use xlink:href="#DejaVuSans-Bold-61" transform="translate(413.525391 0)"/>
     <use xlink:href="#DejaVuSans-Bold-72" transform="translate(481.005859 0)"/>
    </g>
   </g>
   <g id="text_17">
    <!-- OpenCode -->
    <g style="fill: #ff00ff" transform="translate(1241.143046 817.96631) scale(0.1 -0.1)">
     <defs>
      <path id="DejaVuSans-Bold-4f" d="M 2719 3878 
Q 2169 3878 1866 3472 
Q 1563 3066 1563 2328 
Q 1563 1594 1866 1187 
Q 2169 781 2719 781 
Q 3272 781 3575 1187 
Q 3878 1594 3878 2328 
Q 3878 3066 3575 3472 
Q 3272 3878 2719 3878 
z
M 2719 4750 
Q 3844 4750 4481 4106 
Q 5119 3463 5119 2328 
Q 5119 1197 4481 553 
Q 3844 -91 2719 -91 
Q 1597 -91 958 553 
Q 319 1197 319 2328 
Q 319 3463 958 4106 
Q 1597 4750 2719 4750 
z
" transform="scale(0.015625)"/>
      <path id="DejaVuSans-Bold-65" d="M 4031 1759 
L 4031 1441 
L 1416 1441 
Q 1456 1047 1700 850 
Q 1944 653 2381 653 
Q 2734 653 3104 758 
Q 3475 863 3866 1075 
L 3866 213 
Q 3469 63 3072 -14 
Q 2675 -91 2278 -91 
Q 1328 -91 801 392 
Q 275 875 275 1747 
Q 275 2603 792 3093 
Q 1309 3584 2216 3584 
Q 3041 3584 3536 3087 
Q 4031 2591 4031 1759 
z
M 2881 2131 
Q 2881 2450 2695 2645 
Q 2509 2841 2209 2841 
Q 1884 2841 1681 2658 
Q 1478 2475 1428 2131 
L 2881 2131 
z
" transform="scale(0.015625)"/>
      <path id="DejaVuSans-Bold-6e" d="M 4056 2131 
L 4056 0 
L 2931 0 
L 2931 347 
L 2931 1631 
Q 2931 2084 2911 2256 
Q 2891 2428 2841 2509 
Q 2775 2619 2662 2680 
Q 2550 2741 2406 2741 
Q 2056 2741 1856 2470 
Q 1656 2200 1656 1722 
L 1656 0 
L 538 0 
L 538 3500 
L 1656 3500 
L 1656 2988 
Q 1909 3294 2193 3439 
Q 2478 3584 2822 3584 
Q 3428 3584 3742 3212 
Q 4056 2841 4056 2131 
z
" transform="scale(0.015625)"/>
      <path id="DejaVuSans-Bold-43" d="M 4288 256 
Q 3956 84 3597 -3 
Q 3238 -91 2847 -91 
Q 1681 -91 1000 561 
Q 319 1213 319 2328 
Q 319 3447 1000 4098 
Q 1681 4750 2847 4750 
Q 3238 4750 3597 4662 
Q 3956 4575 4288 4403 
L 4288 3438 
Q 3953 3666 3628 3772 
Q 3303 3878 2944 3878 
Q 2300 3878 1931 3465 
Q 1563 3053 1563 2328 
Q 1563 1606 1931 1193 
Q 2300 781 2944 781 
Q 3303 781 3628 887 
Q 3953 994 4288 1222 
L 4288 256 
z
" transform="scale(0.015625)"/>
      <path id="DejaVuSans-Bold-64" d="M 2919 2988 
L 2919 4863 
L 4044 4863 
L 4044 0 
L 2919 0 
L 2919 506 
Q 2688 197 2409 53 
Q 2131 -91 1766 -91 
Q 1119 -91 703 423 
Q 288 938 288 1747 
Q 288 2556 703 3070 
Q 1119 3584 1766 3584 
Q 2128 3584 2408 3439 
Q 2688 3294 2919 2988 
z
M 2181 722 
Q 2541 722 2730 984 
Q 2919 1247 2919 1747 
Q 2919 2247 2730 2509 
Q 2541 2772 2181 2772 
Q 1825 2772 1636 2509 
Q 1447 2247 1447 1747 
Q 1447 1247 1636 984 
Q 1825 722 2181 722 
z
" transform="scale(0.015625)"/>
     </defs>
     <use xlink:href="#DejaVuSans-Bold-4f"/>
     <use xlink:href="#DejaVuSans-Bold-70" transform="translate(85.009766 0)"/>
     <use xlink:href="#DejaVuSans-Bold-65" transform="translate(156.591797 0)"/>
     <use xlink:href="#DejaVuSans-Bold-6e" transform="translate(224.414062 0)"/>
     <use xlink:href="#DejaVuSans-Bold-43" transform="translate(295.605469 0)"/>
     <use xlink:href="#DejaVuSans-Bold-6f" transform="translate(368.994141 0)"/>
     <use xlink:href="#DejaVuSans-Bold-64" transform="translate(437.695312 0)"/>
     <use xlink:href="#DejaVuSans-Bold-65" transform="translate(509.277344 0)"/>
    </g>
   </g>
   <g id="text_18">
    <!-- Max1234-ITA -->
    <g style="fill: #00ffff" transform="translate(1241.143046 797.516215) scale(0.1 -0.1)">
     <defs>
      <path id="DejaVuSans-Bold-4d" d="M 588 4666 
L 2119 4666 
L 3181 2169 
L 4250 4666 
L 5778 4666 
L 5778 0 
L 4641 0 
L 4641 3413 
L 3566 897 
L 2803 897 
L 1728 3413 
L 1728 0 
L 588 0 
L 588 4666 
z
" transform="scale(0.015625)"/>
      <path id="DejaVuSans-Bold-78" d="M 1422 1791 
L 159 3500 
L 1344 3500 
L 2059 2463 
L 2784 3500 
L 3969 3500 
L 2706 1797 
L 4031 0 
L 2847 0 
L 2059 1106 
L 1281 0 
L 97 0 
L 1422 1791 
z
" transform="scale(0.015625)"/>
      <path id="DejaVuSans-Bold-31" d="M 750 831 
L 1813 831 
L 1813 3847 
L 722 3622 
L 722 4441 
L 1806 4666 
L 2950 4666 
L 2950 831 
L 4013 831 
L 4013 0 
L 750 0 
L 750 831 
z
" transform="scale(0.015625)"/>
      <path id="DejaVuSans-Bold-32" d="M 1844 884 
L 3897 884 
L 3897 0 
L 506 0 
L 506 884 
L 2209 2388 
Q 2438 2594 2547 2791 
Q 2656 2988 2656 3200 
Q 2656 3528 2436 3728 
Q 2216 3928 1850 3928 
Q 1569 3928 1234 3808 
Q 900 3688 519 3450 
L 519 4475 
Q 925 4609 1322 4679 
Q 1719 4750 2100 4750 
Q 2938 4750 3402 4381 
Q 3866 4013 3866 3353 
Q 3866 2972 3669 2642 
Q 3472 2313 2841 1759 
L 1844 884 
z
" transform="scale(0.015625)"/>
      <path id="DejaVuSans-Bold-33" d="M 2981 2516 
Q 3453 2394 3698 2092 
Q 3944 1791 3944 1325 
Q 3944 631 3412 270 
Q 2881 -91 1863 -91 
Q 1503 -91 1142 -33 
Q 781 25 428 141 
L 428 1069 
Q 766 900 1098 814 
Q 1431 728 1753 728 
Q 2231 728 2486 893 
Q 2741 1059 2741 1369 
Q 2741 1688 2480 1852 
Q 2219 2016 1709 2016 
L 1228 2016 
L 1228 2791 
L 1734 2791 
Q 2188 2791 2409 2933 
Q 2631 3075 2631 3366 
Q 2631 3634 2415 3781 
Q 2200 3928 1806 3928 
Q 1516 3928 1219 3862 
Q 922 3797 628 3669 
L 628 4550 
Q 984 4650 1334 4700 
Q 1684 4750 2022 4750 
Q 2931 4750 3382 4451 
Q 3834 4153 3834 3553 
Q 3834 3144 3618 2883 
Q 3403 2622 2981 2516 
z
" transform="scale(0.015625)"/>
      <path id="DejaVuSans-Bold-34" d="M 2356 3675 
L 1038 1722 
L 2356 1722 
L 2356 3675 
z
M 2156 4666 
L 3494 4666 
L 3494 1722 
L 4159 1722 
L 4159 850 
L 3494 850 
L 3494 0 
L 2356 0 
L 2356 850 
L 288 850 
L 288 1881 
L 2156 4666 
z
" transform="scale(0.015625)"/>
      <path id="DejaVuSans-Bold-2d" d="M 347 2297 
L 2309 2297 
L 2309 1388 
L 347 1388 
L 347 2297 
z
" transform="scale(0.015625)"/>
      <path id="DejaVuSans-Bold-49" d="M 588 4666 
L 1791 4666 
L 1791 0 
L 588 0 
L 588 4666 
z
" transform="scale(0.015625)"/>
      <path id="DejaVuSans-Bold-54" d="M 31 4666 
L 4331 4666 
L 4331 3756 
L 2784 3756 
L 2784 0 
L 1581 0 
L 1581 3756 
L 31 3756 
L 31 4666 
z
" transform="scale(0.015625)"/>
      <path id="DejaVuSans-Bold-41" d="M 3419 850 
L 1538 850 
L 1241 0 
L 31 0 
L 1759 4666 
L 3194 4666 
L 4922 0 
L 3713 0 
L 3419 850 
z
M 1838 1716 
L 3116 1716 
L 2478 3572 
L 1838 1716 
z
" transform="scale(0.015625)"/>
     </defs>
     <use xlink:href="#DejaVuSans-Bold-4d"/>
     <use xlink:href="#DejaVuSans-Bold-61" transform="translate(99.511719 0)"/>
     <use xlink:href="#DejaVuSans-Bold-78" transform="translate(166.992188 0)"/>
     <use xlink:href="#DejaVuSans-Bold-31" transform="translate(231.494141 0)"/>
     <use xlink:href="#DejaVuSans-Bold-32" transform="translate(301.074219 0)"/>
     <use xlink:href="#DejaVuSans-Bold-33" transform="translate(370.654297 0)"/>
     <use xlink:href="#DejaVuSans-Bold-34" transform="translate(440.234375 0)"/>
     <use xlink:href="#DejaVuSans-Bold-2d" transform="translate(509.814453 0)"/>
     <use xlink:href="#DejaVuSans-Bold-49" transform="translate(551.318359 0)"/>
     <use xlink:href="#DejaVuSans-Bold-54" transform="translate(588.525391 0)"/>
     <use xlink:href="#DejaVuSans-Bold-41" transform="translate(648.988281 0)"/>
    </g>
   </g>
   <g id="text_19">
    <!-- nicola_yubo -->
    <g style="fill: #ff0000" transform="translate(1241.143046 749.67507) scale(0.1 -0.1)">
     <defs>
      <path id="DejaVuSans-Bold-69" d="M 538 3500 
L 1656 3500 
L 1656 0 
L 538 0 
L 538 3500 
z
M 538 4863 
L 1656 4863 
L 1656 3950 
L 538 3950 
L 538 4863 
z
" transform="scale(0.015625)"/>
      <path id="DejaVuSans-Bold-6c" d="M 538 4863 
L 1656 4863 
L 1656 0 
L 538 0 
L 538 4863 
z
" transform="scale(0.015625)"/>
      <path id="DejaVuSans-Bold-5f" d="M 3200 -916 
L 3200 -1509 
L 0 -1509 
L 0 -916 
L 3200 -916 
z
" transform="scale(0.015625)"/>
      <path id="DejaVuSans-Bold-79" d="M 78 3500 
L 1197 3500 
L 2138 1125 
L 2938 3500 
L 4056 3500 
L 2584 -331 
Q 2363 -916 2067 -1148 
Q 1772 -1381 1288 -1381 
L 641 -1381 
L 641 -647 
L 991 -647 
Q 1275 -647 1404 -556 
Q 1534 -466 1606 -231 
L 1638 -134 
L 78 3500 
z
" transform="scale(0.015625)"/>
      <path id="DejaVuSans-Bold-75" d="M 500 1363 
L 500 3500 
L 1625 3500 
L 1625 3150 
Q 1625 2866 1622 2436 
Q 1619 2006 1619 1863 
Q 1619 1441 1641 1255 
Q 1663 1069 1716 984 
Q 1784 875 1895 815 
Q 2006 756 2150 756 
Q 2500 756 2700 1025 
Q 2900 1294 2900 1772 
L 2900 3500 
L 4019 3500 
L 4019 0 
L 2900 0 
L 2900 506 
Q 2647 200 2364 54 
Q 2081 -91 1741 -91 
Q 1134 -91 817 281 
Q 500 653 500 1363 
z
" transform="scale(0.015625)"/>
      <path id="DejaVuSans-Bold-62" d="M 2400 722 
Q 2759 722 2948 984 
Q 3138 1247 3138 1747 
Q 3138 2247 2948 2509 
Q 2759 2772 2400 2772 
Q 2041 2772 1848 2508 
Q 1656 2244 1656 1747 
Q 1656 1250 1848 986 
Q 2041 722 2400 722 
z
M 1656 2988 
Q 1888 3294 2169 3439 
Q 2450 3584 2816 3584 
Q 3463 3584 3878 3070 
Q 4294 2556 4294 1747 
Q 4294 938 3878 423 
Q 3463 -91 2816 -91 
Q 2450 -91 2169 54 
Q 1888 200 1656 506 
L 1656 0 
L 538 0 
L 538 4863 
L 1656 4863 
L 1656 2988 
z
" transform="scale(0.015625)"/>
     </defs>
     <use xlink:href="#DejaVuSans-Bold-6e"/>
     <use xlink:href="#DejaVuSans-Bold-69" transform="translate(71.191406 0)"/>
     <use xlink:href="#DejaVuSans-Bold-63" transform="translate(105.46875 0)"/>
     <use xlink:href="#DejaVuSans-Bold-6f" transform="translate(164.746094 0)"/>
     <use xlink:href="#DejaVuSans-Bold-6c" transform="translate(233.447266 0)"/>
     <use xlink:href="#DejaVuSans-Bold-61" transform="translate(267.724609 0)"/>
     <use xlink:href="#DejaVuSans-Bold-5f" transform="translate(335.205078 0)"/>
     <use xlink:href="#DejaVuSans-Bold-79" transform="translate(385.205078 0)"/>
     <use xlink:href="#DejaVuSans-Bold-75" transform="translate(450.390625 0)"/>
     <use xlink:href="#DejaVuSans-Bold-62" transform="translate(521.582031 0)"/>
     <use xlink:href="#DejaVuSans-Bold-6f" transform="translate(593.164062 0)"/>
    </g>
   </g>
   <g id="text_20">
    <!-- Bwoah33 -->
    <g style="fill: #008000" transform="translate(1241.143046 727.447472) scale(0.1 -0.1)">
     <defs>
      <path id="DejaVuSans-Bold-42" d="M 2456 2859 
Q 2741 2859 2887 2984 
Q 3034 3109 3034 3353 
Q 3034 3594 2887 3720 
Q 2741 3847 2456 3847 
L 1791 3847 
L 1791 2859 
L 2456 2859 
z
M 2497 819 
Q 2859 819 3042 972 
Q 3225 1125 3225 1434 
Q 3225 1738 3044 1889 
Q 2863 2041 2497 2041 
L 1791 2041 
L 1791 819 
L 2497 819 
z
M 3616 2497 
Q 4003 2384 4215 2081 
Q 4428 1778 4428 1338 
Q 4428 663 3972 331 
Q 3516 0 2584 0 
L 588 0 
L 588 4666 
L 2394 4666 
Q 3366 4666 3802 4372 
Q 4238 4078 4238 3431 
Q 4238 3091 4078 2852 
Q 3919 2613 3616 2497 
z
" transform="scale(0.015625)"/>
      <path id="DejaVuSans-Bold-77" d="M 225 3500 
L 1313 3500 
L 1900 1088 
L 2491 3500 
L 3425 3500 
L 4013 1113 
L 4603 3500 
L 5691 3500 
L 4769 0 
L 3547 0 
L 2956 2406 
L 2369 0 
L 1147 0 
L 225 3500 
z
" transform="scale(0.015625)"/>
      <path id="DejaVuSans-Bold-68" d="M 4056 2131 
L 4056 0 
L 2931 0 
L 2931 347 
L 2931 1625 
Q 2931 2084 2911 2256 
Q 2891 2428 2841 2509 
Q 2775 2619 2662 2680 
Q 2550 2741 2406 2741 
Q 2056 2741 1856 2470 
Q 1656 2200 1656 1722 
L 1656 0 
L 538 0 
L 538 4863 
L 1656 4863 
L 1656 2988 
Q 1909 3294 2193 3439 
Q 2478 3584 2822 3584 
Q 3428 3584 3742 3212 
Q 4056 2841 4056 2131 
z
" transform="scale(0.015625)"/>
     </defs>
     <use xlink:href="#DejaVuSans-Bold-42"/>
     <use xlink:href="#DejaVuSans-Bold-77" transform="translate(76.220703 0)"/>
     <use xlink:href="#DejaVuSans-Bold-6f" transform="translate(168.603516 0)"/>
     <use xlink:href="#DejaVuSans-Bold-61" transform="translate(237.304688 0)"/>
     <use xlink:href="#DejaVuSans-Bold-68" transform="translate(304.785156 0)"/>
     <use xlink:href="#DejaVuSans-Bold-33" transform="translate(375.976562 0)"/>
     <use xlink:href="#DejaVuSans-Bold-33" transform="translate(445.556641 0)"/>
    </g>
   </g>
   <g id="text_21">
    <!-- AlessioMela -->
    <g style="fill: #0000ff" transform="translate(1241.143046 706.997377) scale(0.1 -0.1)">
     <defs>
      <path id="DejaVuSans-Bold-73" d="M 3272 3391 
L 3272 2541 
Q 2913 2691 2578 2766 
Q 2244 2841 1947 2841 
Q 1628 2841 1473 2761 
Q 1319 2681 1319 2516 
Q 1319 2381 1436 2309 
Q 1553 2238 1856 2203 
L 2053 2175 
Q 2913 2066 3209 1816 
Q 3506 1566 3506 1031 
Q 3506 472 3093 190 
Q 2681 -91 1863 -91 
Q 1516 -91 1145 -36 
Q 775 19 384 128 
L 384 978 
Q 719 816 1070 734 
Q 1422 653 1784 653 
Q 2113 653 2278 743 
Q 2444 834 2444 1013 
Q 2444 1163 2330 1236 
Q 2216 1309 1875 1350 
L 1678 1375 
Q 931 1469 631 1722 
Q 331 1975 331 2491 
Q 331 3047 712 3315 
Q 1094 3584 1881 3584 
Q 2191 3584 2531 3537 
Q 2872 3491 3272 3391 
z
" transform="scale(0.015625)"/>
     </defs>
     <use xlink:href="#DejaVuSans-Bold-41"/>
     <use xlink:href="#DejaVuSans-Bold-6c" transform="translate(77.392578 0)"/>
     <use xlink:href="#DejaVuSans-Bold-65" transform="translate(111.669922 0)"/>
     <use xlink:href="#DejaVuSans-Bold-73" transform="translate(179.492188 0)"/>
     <use xlink:href="#DejaVuSans-Bold-73" transform="translate(239.013672 0)"/>
     <use xlink:href="#DejaVuSans-Bold-69" transform="translate(298.535156 0)"/>
     <use xlink:href="#DejaVuSans-Bold-6f" transform="translate(332.8125 0)"/>
     <use xlink:href="#DejaVuSans-Bold-4d" transform="translate(401.513672 0)"/>
     <use xlink:href="#DejaVuSans-Bold-65" transform="translate(501.025391 0)"/>
     <use xlink:href="#DejaVuSans-Bold-6c" transform="translate(568.847656 0)"/>
     <use xlink:href="#DejaVuSans-Bold-61" transform="translate(603.125 0)"/>
    </g>
   </g>
   <g id="text_22">
    <!-- DnaX -->
    <g transform="translate(1241.143046 682.955633) scale(0.1 -0.1)">
     <defs>
      <path id="DejaVuSans-Bold-44" d="M 1791 3756 
L 1791 909 
L 2222 909 
Q 2959 909 3348 1275 
Q 3738 1641 3738 2338 
Q 3738 3031 3350 3393 
Q 2963 3756 2222 3756 
L 1791 3756 
z
M 588 4666 
L 1856 4666 
Q 2919 4666 3439 4514 
Q 3959 4363 4331 4000 
Q 4659 3684 4818 3271 
Q 4978 2859 4978 2338 
Q 4978 1809 4818 1395 
Q 4659 981 4331 666 
Q 3956 303 3431 151 
Q 2906 0 1856 0 
L 588 0 
L 588 4666 
z
" transform="scale(0.015625)"/>
      <path id="DejaVuSans-Bold-58" d="M 3188 2381 
L 4806 0 
L 3553 0 
L 2463 1594 
L 1381 0 
L 122 0 
L 1741 2381 
L 184 4666 
L 1441 4666 
L 2463 3163 
L 3481 4666 
L 4744 4666 
L 3188 2381 
z
" transform="scale(0.015625)"/>
     </defs>
     <use xlink:href="#DejaVuSans-Bold-44"/>
     <use xlink:href="#DejaVuSans-Bold-6e" transform="translate(83.007812 0)"/>
     <use xlink:href="#DejaVuSans-Bold-61" transform="translate(154.199219 0)"/>
     <use xlink:href="#DejaVuSans-Bold-58" transform="translate(221.679688 0)"/>
    </g>
   </g>
   <g id="text_23">
    <!-- AlexTies -->
    <g style="fill: #ffff00" transform="translate(1241.143046 662.505538) scale(0.1 -0.1)">
     <use xlink:href="#DejaVuSans-Bold-41"/>
     <use xlink:href="#DejaVuSans-Bold-6c" transform="translate(77.392578 0)"/>
     <use xlink:href="#DejaVuSans-Bold-65" transform="translate(111.669922 0)"/>
     <use xlink:href="#DejaVuSans-Bold-78" transform="translate(179.492188 0)"/>
     <use xlink:href="#DejaVuSans-Bold-54" transform="translate(243.994141 0)"/>
     <use xlink:href="#DejaVuSans-Bold-69" transform="translate(312.207031 0)"/>
     <use xlink:href="#DejaVuSans-Bold-65" transform="translate(346.484375 0)"/>
     <use xlink:href="#DejaVuSans-Bold-73" transform="translate(414.306641 0)"/>
    </g>
   </g>
   <g id="text_24">
    <!-- alesarrett -->
    <g style="fill: #ff00ff" transform="translate(1241.143046 642.055444) scale(0.1 -0.1)">
     <defs>
      <path id="DejaVuSans-Bold-74" d="M 1759 4494 
L 1759 3500 
L 2913 3500 
L 2913 2700 
L 1759 2700 
L 1759 1216 
Q 1759 972 1856 886 
Q 1953 800 2241 800 
L 2816 800 
L 2816 0 
L 1856 0 
Q 1194 0 917 276 
Q 641 553 641 1216 
L 641 2700 
L 84 2700 
L 84 3500 
L 641 3500 
L 641 4494 
L 1759 4494 
z
" transform="scale(0.015625)"/>
     </defs>
     <use xlink:href="#DejaVuSans-Bold-61"/>
     <use xlink:href="#DejaVuSans-Bold-6c" transform="translate(67.480469 0)"/>
     <use xlink:href="#DejaVuSans-Bold-65" transform="translate(101.757812 0)"/>
     <use xlink:href="#DejaVuSans-Bold-73" transform="translate(169.580078 0)"/>
     <use xlink:href="#DejaVuSans-Bold-61" transform="translate(229.101562 0)"/>
     <use xlink:href="#DejaVuSans-Bold-72" transform="translate(296.582031 0)"/>
     <use xlink:href="#DejaVuSans-Bold-72" transform="translate(345.898438 0)"/>
     <use xlink:href="#DejaVuSans-Bold-65" transform="translate(395.214844 0)"/>
     <use xlink:href="#DejaVuSans-Bold-74" transform="translate(463.037109 0)"/>
     <use xlink:href="#DejaVuSans-Bold-74" transform="translate(510.839844 0)"/>
    </g>
   </g>
   <g id="text_25">
    <!-- Yiyi_ -->
    <g style="fill: #00ffff" transform="translate(1241.143046 621.466287) scale(0.1 -0.1)">
     <defs>
      <path id="DejaVuSans-Bold-59" d="M -63 4666 
L 1253 4666 
L 2316 3003 
L 3378 4666 
L 4697 4666 
L 2919 1966 
L 2919 0 
L 1716 0 
L 1716 1966 
L -63 4666 
z
" transform="scale(0.015625)"/>
     </defs>
     <use xlink:href="#DejaVuSans-Bold-59"/>
     <use xlink:href="#DejaVuSans-Bold-69" transform="translate(72.412109 0)"/>
     <use xlink:href="#DejaVuSans-Bold-79" transform="translate(106.689453 0)"/>
     <use xlink:href="#DejaVuSans-Bold-69" transform="translate(171.875 0)"/>
     <use xlink:href="#DejaVuSans-Bold-5f" transform="translate(206.152344 0)"/>
    </g>
   </g>
   <g id="text_26">
    <!-- Yiyi -->
    <g style="fill: #ff0000" transform="translate(1241.143046 601.116192) scale(0.1 -0.1)">
     <use xlink:href="#DejaVuSans-Bold-59"/>
     <use xlink:href="#DejaVuSans-Bold-69" transform="translate(72.412109 0)"/>
     <use xlink:href="#DejaVuSans-Bold-79" transform="translate(106.689453 0)"/>
     <use xlink:href="#DejaVuSans-Bold-69" transform="translate(171.875 0)"/>
    </g>
   </g>
   <g id="text_27">
    <!-- MarcoR -->
    <g style="fill: #008000" transform="translate(1241.143046 580.70516) scale(0.1 -0.1)">
     <defs>
      <path id="DejaVuSans-Bold-52" d="M 2297 2597 
Q 2675 2597 2839 2737 
Q 3003 2878 3003 3200 
Q 3003 3519 2839 3656 
Q 2675 3794 2297 3794 
L 1791 3794 
L 1791 2597 
L 2297 2597 
z
M 1791 1766 
L 1791 0 
L 588 0 
L 588 4666 
L 2425 4666 
Q 3347 4666 3776 4356 
Q 4206 4047 4206 3378 
Q 4206 2916 3982 2619 
Q 3759 2322 3309 2181 
Q 3556 2125 3751 1926 
Q 3947 1728 4147 1325 
L 4800 0 
L 3519 0 
L 2950 1159 
Q 2778 1509 2601 1637 
Q 2425 1766 2131 1766 
L 1791 1766 
z
" transform="scale(0.015625)"/>
     </defs>
     <use xlink:href="#DejaVuSans-Bold-4d"/>
     <use xlink:href="#DejaVuSans-Bold-61" transform="translate(99.511719 0)"/>
     <use xlink:href="#DejaVuSans-Bold-72" transform="translate(166.992188 0)"/>
     <use xlink:href="#DejaVuSans-Bold-63" transform="translate(216.308594 0)"/>
     <use xlink:href="#DejaVuSans-Bold-6f" transform="translate(275.585938 0)"/>
     <use xlink:href="#DejaVuSans-Bold-52" transform="translate(344.287109 0)"/>
    </g>
   </g>
   <g id="text_28">
    <!-- Cybermanx -->
    <g style="fill: #0000ff" transform="translate(1241.143046 547.157593) scale(0.1 -0.1)">
     <defs>
      <path id="DejaVuSans-Bold-6d" d="M 3781 2919 
Q 3994 3244 4286 3414 
Q 4578 3584 4928 3584 
Q 5531 3584 5847 3212 
Q 6163 2841 6163 2131 
L 6163 0 
L 5038 0 
L 5038 1825 
Q 5041 1866 5042 1909 
Q 5044 1953 5044 2034 
Q 5044 2406 4934 2573 
Q 4825 2741 4581 2741 
Q 4263 2741 4089 2478 
Q 3916 2216 3909 1719 
L 3909 0 
L 2784 0 
L 2784 1825 
Q 2784 2406 2684 2573 
Q 2584 2741 2328 2741 
Q 2006 2741 1831 2477 
Q 1656 2213 1656 1722 
L 1656 0 
L 531 0 
L 531 3500 
L 1656 3500 
L 1656 2988 
Q 1863 3284 2130 3434 
Q 2397 3584 2719 3584 
Q 3081 3584 3359 3409 
Q 3638 3234 3781 2919 
z
" transform="scale(0.015625)"/>
     </defs>
     <use xlink:href="#DejaVuSans-Bold-43"/>
     <use xlink:href="#DejaVuSans-Bold-79" transform="translate(73.388672 0)"/>
     <use xlink:href="#DejaVuSans-Bold-62" transform="translate(138.574219 0)"/>
     <use xlink:href="#DejaVuSans-Bold-65" transform="translate(210.15625 0)"/>
     <use xlink:href="#DejaVuSans-Bold-72" transform="translate(277.978516 0)"/>
     <use xlink:href="#DejaVuSans-Bold-6d" transform="translate(327.294922 0)"/>
     <use xlink:href="#DejaVuSans-Bold-61" transform="translate(431.494141 0)"/>
     <use xlink:href="#DejaVuSans-Bold-6e" transform="translate(498.974609 0)"/>
     <use xlink:href="#DejaVuSans-Bold-78" transform="translate(570.166016 0)"/>
    </g>
   </g>
   <g id="text_29">
    <!-- Clown Pennywise -->
    <g transform="translate(1241.143046 526.707499) scale(0.1 -0.1)">
     <defs>
      <path id="DejaVuSans-Bold-20" transform="scale(0.015625)"/>
      <path id="DejaVuSans-Bold-50" d="M 588 4666 
L 2584 4666 
Q 3475 4666 3951 4270 
Q 4428 3875 4428 3144 
Q 4428 2409 3951 2014 
Q 3475 1619 2584 1619 
L 1791 1619 
L 1791 0 
L 588 0 
L 588 4666 
z
M 1791 3794 
L 1791 2491 
L 2456 2491 
Q 2806 2491 2997 2661 
Q 3188 2831 3188 3144 
Q 3188 3456 2997 3625 
Q 2806 3794 2456 3794 
L 1791 3794 
z
" transform="scale(0.015625)"/>
     </defs>
     <use xlink:href="#DejaVuSans-Bold-43"/>
     <use xlink:href="#DejaVuSans-Bold-6c" transform="translate(73.388672 0)"/>
     <use xlink:href="#DejaVuSans-Bold-6f" transform="translate(107.666016 0)"/>
     <use xlink:href="#DejaVuSans-Bold-77" transform="translate(176.367188 0)"/>
     <use xlink:href="#DejaVuSans-Bold-6e" transform="translate(268.75 0)"/>
     <use xlink:href="#DejaVuSans-Bold-20" transform="translate(339.941406 0)"/>
     <use xlink:href="#DejaVuSans-Bold-50" transform="translate(374.755859 0)"/>
     <use xlink:href="#DejaVuSans-Bold-65" transform="translate(448.046875 0)"/>
     <use xlink:href="#DejaVuSans-Bold-6e" transform="translate(515.869141 0)"/>
     <use xlink:href="#DejaVuSans-Bold-6e" transform="translate(587.060547 0)"/>
     <use xlink:href="#DejaVuSans-Bold-79" transform="translate(658.251953 0)"/>
     <use xlink:href="#DejaVuSans-Bold-77" transform="translate(723.4375 0)"/>
     <use xlink:href="#DejaVuSans-Bold-69" transform="translate(815.820312 0)"/>
     <use xlink:href="#DejaVuSans-Bold-73" transform="translate(850.097656 0)"/>
     <use xlink:href="#DejaVuSans-Bold-65" transform="translate(909.619141 0)"/>
    </g>
   </g>
   <g id="text_30">
    <!-- toponomastica_comune_arenzano -->
    <g style="fill: #ffff00" transform="translate(1241.143046 506.157404) scale(0.1 -0.1)">
     <defs>
      <path id="DejaVuSans-Bold-7a" d="M 366 3500 
L 3419 3500 
L 3419 2719 
L 1575 800 
L 3419 800 
L 3419 0 
L 288 0 
L 288 781 
L 2131 2700 
L 366 2700 
L 366 3500 
z
" transform="scale(0.015625)"/>
     </defs>
     <use xlink:href="#DejaVuSans-Bold-74"/>
     <use xlink:href="#DejaVuSans-Bold-6f" transform="translate(47.802734 0)"/>
     <use xlink:href="#DejaVuSans-Bold-70" transform="translate(116.503906 0)"/>
     <use xlink:href="#DejaVuSans-Bold-6f" transform="translate(188.085938 0)"/>
     <use xlink:href="#DejaVuSans-Bold-6e" transform="translate(256.787109 0)"/>
     <use xlink:href="#DejaVuSans-Bold-6f" transform="translate(327.978516 0)"/>
     <use xlink:href="#DejaVuSans-Bold-6d" transform="translate(396.679688 0)"/>
     <use xlink:href="#DejaVuSans-Bold-61" transform="translate(500.878906 0)"/>
     <use xlink:href="#DejaVuSans-Bold-73" transform="translate(568.359375 0)"/>
     <use xlink:href="#DejaVuSans-Bold-74" transform="translate(627.880859 0)"/>
     <use xlink:href="#DejaVuSans-Bold-69" transform="translate(675.683594 0)"/>
     <use xlink:href="#DejaVuSans-Bold-63" transform="translate(709.960938 0)"/>
     <use xlink:href="#DejaVuSans-Bold-61" transform="translate(769.238281 0)"/>
     <use xlink:href="#DejaVuSans-Bold-5f" transform="translate(836.71875 0)"/>
     <use xlink:href="#DejaVuSans-Bold-63" transform="translate(886.71875 0)"/>
     <use xlink:href="#DejaVuSans-Bold-6f" transform="translate(945.996094 0)"/>
     <use xlink:href="#DejaVuSans-Bold-6d" transform="translate(1014.697266 0)"/>
     <use xlink:href="#DejaVuSans-Bold-75" transform="translate(1118.896484 0)"/>
     <use xlink:href="#DejaVuSans-Bold-6e" transform="translate(1190.087891 0)"/>
     <use xlink:href="#DejaVuSans-Bold-65" transform="translate(1261.279297 0)"/>
     <use xlink:href="#DejaVuSans-Bold-5f" transform="translate(1329.101562 0)"/>
     <use xlink:href="#DejaVuSans-Bold-61" transform="translate(1379.101562 0)"/>
     <use xlink:href="#DejaVuSans-Bold-72" transform="translate(1446.582031 0)"/>
     <use xlink:href="#DejaVuSans-Bold-65" transform="translate(1495.898438 0)"/>
     <use xlink:href="#DejaVuSans-Bold-6e" transform="translate(1563.720703 0)"/>
     <use xlink:href="#DejaVuSans-Bold-7a" transform="translate(1634.912109 0)"/>
     <use xlink:href="#DejaVuSans-Bold-61" transform="translate(1693.115234 0)"/>
     <use xlink:href="#DejaVuSans-Bold-6e" transform="translate(1760.595703 0)"/>
     <use xlink:href="#DejaVuSans-Bold-6f" transform="translate(1831.787109 0)"/>
    </g>
   </g>
   <g id="text_31">
    <!-- Martj9 -->
    <g style="fill: #ff00ff" transform="translate(1241.143046 485.807309) scale(0.1 -0.1)">
     <defs>
      <path id="DejaVuSans-Bold-39" d="M 641 103 
L 641 966 
Q 928 831 1190 764 
Q 1453 697 1709 697 
Q 2247 697 2547 995 
Q 2847 1294 2900 1881 
Q 2688 1725 2447 1647 
Q 2206 1569 1925 1569 
Q 1209 1569 770 1986 
Q 331 2403 331 3084 
Q 331 3838 820 4291 
Q 1309 4744 2131 4744 
Q 3044 4744 3544 4128 
Q 4044 3513 4044 2388 
Q 4044 1231 3459 570 
Q 2875 -91 1856 -91 
Q 1528 -91 1228 -42 
Q 928 6 641 103 
z
M 2125 2350 
Q 2441 2350 2600 2554 
Q 2759 2759 2759 3169 
Q 2759 3575 2600 3781 
Q 2441 3988 2125 3988 
Q 1809 3988 1650 3781 
Q 1491 3575 1491 3169 
Q 1491 2759 1650 2554 
Q 1809 2350 2125 2350 
z
" transform="scale(0.015625)"/>
     </defs>
     <use xlink:href="#DejaVuSans-Bold-4d"/>
     <use xlink:href="#DejaVuSans-Bold-61" transform="translate(99.511719 0)"/>
     <use xlink:href="#DejaVuSans-Bold-72" transform="translate(166.992188 0)"/>
     <use xlink:href="#DejaVuSans-Bold-74" transform="translate(216.308594 0)"/>
     <use xlink:href="#DejaVuSans-Bold-6a" transform="translate(264.111328 0)"/>
     <use xlink:href="#DejaVuSans-Bold-39" transform="translate(298.388672 0)"/>
    </g>
   </g>
   <g id="text_32">
    <!-- mircozorzo -->
    <g style="fill: #00ffff" transform="translate(1241.143046 458.170676) scale(0.1 -0.1)">
     <use xlink:href="#DejaVuSans-Bold-6d"/>
     <use xlink:href="#DejaVuSans-Bold-69" transform="translate(104.199219 0)"/>
     <use xlink:href="#DejaVuSans-Bold-72" transform="translate(138.476562 0)"/>
     <use xlink:href="#DejaVuSans-Bold-63" transform="translate(187.792969 0)"/>
     <use xlink:href="#DejaVuSans-Bold-6f" transform="translate(247.070312 0)"/>
     <use xlink:href="#DejaVuSans-Bold-7a" transform="translate(315.771484 0)"/>
     <use xlink:href="#DejaVuSans-Bold-6f" transform="translate(373.974609 0)"/>
     <use xlink:href="#DejaVuSans-Bold-72" transform="translate(442.675781 0)"/>
     <use xlink:href="#DejaVuSans-Bold-7a" transform="translate(491.992188 0)"/>
     <use xlink:href="#DejaVuSans-Bold-6f" transform="translate(550.195312 0)"/>
    </g>
   </g>
   <g id="text_33">
    <!-- alessandrocarmeli -->
    <g style="fill: #ff0000" transform="translate(1241.143046 368.003239) scale(0.1 -0.1)">
     <use xlink:href="#DejaVuSans-Bold-61"/>
     <use xlink:href="#DejaVuSans-Bold-6c" transform="translate(67.480469 0)"/>
     <use xlink:href="#DejaVuSans-Bold-65" transform="translate(101.757812 0)"/>
     <use xlink:href="#DejaVuSans-Bold-73" transform="translate(169.580078 0)"/>
     <use xlink:href="#DejaVuSans-Bold-73" transform="translate(229.101562 0)"/>
     <use xlink:href="#DejaVuSans-Bold-61" transform="translate(288.623047 0)"/>
     <use xlink:href="#DejaVuSans-Bold-6e" transform="translate(356.103516 0)"/>
     <use xlink:href="#DejaVuSans-Bold-64" transform="translate(427.294922 0)"/>
     <use xlink:href="#DejaVuSans-Bold-72" transform="translate(498.876953 0)"/>
     <use xlink:href="#DejaVuSans-Bold-6f" transform="translate(548.193359 0)"/>
     <use xlink:href="#DejaVuSans-Bold-63" transform="translate(616.894531 0)"/>
     <use xlink:href="#DejaVuSans-Bold-61" transform="translate(676.171875 0)"/>
     <use xlink:href="#DejaVuSans-Bold-72" transform="translate(743.652344 0)"/>
     <use xlink:href="#DejaVuSans-Bold-6d" transform="translate(792.96875 0)"/>
     <use xlink:href="#DejaVuSans-Bold-65" transform="translate(897.167969 0)"/>
     <use xlink:href="#DejaVuSans-Bold-6c" transform="translate(964.990234 0)"/>
     <use xlink:href="#DejaVuSans-Bold-69" transform="translate(999.267578 0)"/>
    </g>
   </g>
   <g id="text_34">
    <!-- Cascafico -->
    <g style="fill: #008000" transform="translate(1241.143046 305.934714) scale(0.1 -0.1)">
     <use xlink:href="#DejaVuSans-Bold-43"/>
     <use xlink:href="#DejaVuSans-Bold-61" transform="translate(73.388672 0)"/>
     <use xlink:href="#DejaVuSans-Bold-73" transform="translate(140.869141 0)"/>
     <use xlink:href="#DejaVuSans-Bold-63" transform="translate(200.390625 0)"/>
     <use xlink:href="#DejaVuSans-Bold-61" transform="translate(259.667969 0)"/>
     <use xlink:href="#DejaVuSans-Bold-66" transform="translate(327.148438 0)"/>
     <use xlink:href="#DejaVuSans-Bold-69" transform="translate(370.654297 0)"/>
     <use xlink:href="#DejaVuSans-Bold-63" transform="translate(404.931641 0)"/>
     <use xlink:href="#DejaVuSans-Bold-6f" transform="translate(464.208984 0)"/>
    </g>
   </g>
   <g id="text_35">
    <!-- giopera -->
    <g style="fill: #0000ff" transform="translate(1241.143046 107.586813) scale(0.1 -0.1)">
     <defs>
      <path id="DejaVuSans-Bold-67" d="M 2919 594 
Q 2688 288 2409 144 
Q 2131 0 1766 0 
Q 1125 0 706 504 
Q 288 1009 288 1791 
Q 288 2575 706 3076 
Q 1125 3578 1766 3578 
Q 2131 3578 2409 3434 
Q 2688 3291 2919 2981 
L 2919 3500 
L 4044 3500 
L 4044 353 
Q 4044 -491 3511 -936 
Q 2978 -1381 1966 -1381 
Q 1638 -1381 1331 -1331 
Q 1025 -1281 716 -1178 
L 716 -306 
Q 1009 -475 1290 -558 
Q 1572 -641 1856 -641 
Q 2406 -641 2662 -400 
Q 2919 -159 2919 353 
L 2919 594 
z
M 2181 2772 
Q 1834 2772 1640 2515 
Q 1447 2259 1447 1791 
Q 1447 1309 1634 1061 
Q 1822 813 2181 813 
Q 2531 813 2725 1069 
Q 2919 1325 2919 1791 
Q 2919 2259 2725 2515 
Q 2531 2772 2181 2772 
z
" transform="scale(0.015625)"/>
     </defs>
     <use xlink:href="#DejaVuSans-Bold-67"/>
     <use xlink:href="#DejaVuSans-Bold-69" transform="translate(71.582031 0)"/>
     <use xlink:href="#DejaVuSans-Bold-6f" transform="translate(105.859375 0)"/>
     <use xlink:href="#DejaVuSans-Bold-70" transform="translate(174.560547 0)"/>
     <use xlink:href="#DejaVuSans-Bold-65" transform="translate(246.142578 0)"/>
     <use xlink:href="#DejaVuSans-Bold-72" transform="translate(313.964844 0)"/>
     <use xlink:href="#DejaVuSans-Bold-61" transform="translate(363.28125 0)"/>
    </g>
   </g>
  </g>
 </g>
 <defs>
  <clipPath id="p76db1b2357">
   <rect x="50.137685" y="10.8" width="1167.652315" height="2069.463013"/>
  </clipPath>
 </defs>
</svg>
