<?xml version="1.0" encoding="utf-8" standalone="no"?>
<!DOCTYPE svg PUBLIC "-//W3C//DTD SVG 1.1//EN"
  "http://www.w3.org/Graphics/SVG/1.1/DTD/svg11.dtd">
<svg xmlns:xlink="http://www.w3.org/1999/xlink" width="1440pt" height="2160pt" viewBox="0 0 1440 2160" xmlns="http://www.w3.org/2000/svg" version="1.1">
 <metadata>
  <rdf:RDF xmlns:dc="http://purl.org/dc/elements/1.1/" xmlns:cc="http://creativecommons.org/ns#" xmlns:rdf="http://www.w3.org/1999/02/22-rdf-syntax-ns#">
   <cc:Work>
    <dc:type rdf:resource="http://purl.org/dc/dcmitype/StillImage"/>
    <dc:date>2026-02-17T08:35:25.417053</dc:date>
    <dc:format>image/svg+xml</dc:format>
    <dc:creator>
     <cc:Agent>
      <dc:title>Matplotlib v3.10.8, https://matplotlib.org/</dc:title>
     </cc:Agent>
    </dc:creator>
   </cc:Work>
  </rdf:RDF>
 </metadata>
 <defs>
  <style type="text/css">*{stroke-linejoin: round; stroke-linecap: butt}</style>
 </defs>
 <g id="figure_1">
  <g id="patch_1">
   <path d="M 0 2160 
L 1440 2160 
L 1440 0 
L 0 0 
z
" style="fill: #ffffff"/>
  </g>
  <g id="axes_1">
   <g id="patch_2">
    <path d="M 50.137685 2080.199373 
L 1217.79 2080.199373 
L 1217.79 10.8 
L 50.137685 10.8 
z
" style="fill: #ffffff"/>
   </g>
   <g id="matplotlib.axis_1">
    <g id="xtick_1">
     <g id="line2d_1">
      <defs>
       <path id="mc967220cd7" d="M 0 0 
L 0 3.5 
" style="stroke: #000000; stroke-width: 0.8"/>
      </defs>
      <g>
       <use xlink:href="#mc967220cd7" x="103.21279" y="2080.199373" style="stroke: #000000; stroke-width: 0.8"/>
      </g>
     </g>
     <g id="text_1">
      <!-- 2026-02-01 -->
      <g transform="translate(84.616987 2133.666233) rotate(-45) scale(0.1 -0.1)">
       <defs>
        <path id="DejaVuSans-32" d="M 1228 531 
L 3431 531 
L 3431 0 
L 469 0 
L 469 531 
Q 828 903 1448 1529 
Q 2069 2156 2228 2338 
Q 2531 2678 2651 2914 
Q 2772 3150 2772 3378 
Q 2772 3750 2511 3984 
Q 2250 4219 1831 4219 
Q 1534 4219 1204 4116 
Q 875 4013 500 3803 
L 500 4441 
Q 881 4594 1212 4672 
Q 1544 4750 1819 4750 
Q 2544 4750 2975 4387 
Q 3406 4025 3406 3419 
Q 3406 3131 3298 2873 
Q 3191 2616 2906 2266 
Q 2828 2175 2409 1742 
Q 1991 1309 1228 531 
z
" transform="scale(0.015625)"/>
        <path id="DejaVuSans-30" d="M 2034 4250 
Q 1547 4250 1301 3770 
Q 1056 3291 1056 2328 
Q 1056 1369 1301 889 
Q 1547 409 2034 409 
Q 2525 409 2770 889 
Q 3016 1369 3016 2328 
Q 3016 3291 2770 3770 
Q 2525 4250 2034 4250 
z
M 2034 4750 
Q 2819 4750 3233 4129 
Q 3647 3509 3647 2328 
Q 3647 1150 3233 529 
Q 2819 -91 2034 -91 
Q 1250 -91 836 529 
Q 422 1150 422 2328 
Q 422 3509 836 4129 
Q 1250 4750 2034 4750 
z
" transform="scale(0.015625)"/>
        <path id="DejaVuSans-36" d="M 2113 2584 
Q 1688 2584 1439 2293 
Q 1191 2003 1191 1497 
Q 1191 994 1439 701 
Q 1688 409 2113 409 
Q 2538 409 2786 701 
Q 3034 994 3034 1497 
Q 3034 2003 2786 2293 
Q 2538 2584 2113 2584 
z
M 3366 4563 
L 3366 3988 
Q 3128 4100 2886 4159 
Q 2644 4219 2406 4219 
Q 1781 4219 1451 3797 
Q 1122 3375 1075 2522 
Q 1259 2794 1537 2939 
Q 1816 3084 2150 3084 
Q 2853 3084 3261 2657 
Q 3669 2231 3669 1497 
Q 3669 778 3244 343 
Q 2819 -91 2113 -91 
Q 1303 -91 875 529 
Q 447 1150 447 2328 
Q 447 3434 972 4092 
Q 1497 4750 2381 4750 
Q 2619 4750 2861 4703 
Q 3103 4656 3366 4563 
z
" transform="scale(0.015625)"/>
        <path id="DejaVuSans-2d" d="M 313 2009 
L 1997 2009 
L 1997 1497 
L 313 1497 
L 313 2009 
z
" transform="scale(0.015625)"/>
        <path id="DejaVuSans-31" d="M 794 531 
L 1825 531 
L 1825 4091 
L 703 3866 
L 703 4441 
L 1819 4666 
L 2450 4666 
L 2450 531 
L 3481 531 
L 3481 0 
L 794 0 
L 794 531 
z
" transform="scale(0.015625)"/>
       </defs>
       <use xlink:href="#DejaVuSans-32"/>
       <use xlink:href="#DejaVuSans-30" transform="translate(63.623047 0)"/>
       <use xlink:href="#DejaVuSans-32" transform="translate(127.246094 0)"/>
       <use xlink:href="#DejaVuSans-36" transform="translate(190.869141 0)"/>
       <use xlink:href="#DejaVuSans-2d" transform="translate(254.492188 0)"/>
       <use xlink:href="#DejaVuSans-30" transform="translate(290.576172 0)"/>
       <use xlink:href="#DejaVuSans-32" transform="translate(354.199219 0)"/>
       <use xlink:href="#DejaVuSans-2d" transform="translate(417.822266 0)"/>
       <use xlink:href="#DejaVuSans-30" transform="translate(453.90625 0)"/>
       <use xlink:href="#DejaVuSans-31" transform="translate(517.529297 0)"/>
      </g>
     </g>
    </g>
    <g id="xtick_2">
     <g id="line2d_2">
      <g>
       <use xlink:href="#mc967220cd7" x="235.900553" y="2080.199373" style="stroke: #000000; stroke-width: 0.8"/>
      </g>
     </g>
     <g id="text_2">
      <!-- 2026-02-03 -->
      <g transform="translate(217.30475 2133.666233) rotate(-45) scale(0.1 -0.1)">
       <defs>
        <path id="DejaVuSans-33" d="M 2597 2516 
Q 3050 2419 3304 2112 
Q 3559 1806 3559 1356 
Q 3559 666 3084 287 
Q 2609 -91 1734 -91 
Q 1441 -91 1130 -33 
Q 819 25 488 141 
L 488 750 
Q 750 597 1062 519 
Q 1375 441 1716 441 
Q 2309 441 2620 675 
Q 2931 909 2931 1356 
Q 2931 1769 2642 2001 
Q 2353 2234 1838 2234 
L 1294 2234 
L 1294 2753 
L 1863 2753 
Q 2328 2753 2575 2939 
Q 2822 3125 2822 3475 
Q 2822 3834 2567 4026 
Q 2313 4219 1838 4219 
Q 1578 4219 1281 4162 
Q 984 4106 628 3988 
L 628 4550 
Q 988 4650 1302 4700 
Q 1616 4750 1894 4750 
Q 2613 4750 3031 4423 
Q 3450 4097 3450 3541 
Q 3450 3153 3228 2886 
Q 3006 2619 2597 2516 
z
" transform="scale(0.015625)"/>
       </defs>
       <use xlink:href="#DejaVuSans-32"/>
       <use xlink:href="#DejaVuSans-30" transform="translate(63.623047 0)"/>
       <use xlink:href="#DejaVuSans-32" transform="translate(127.246094 0)"/>
       <use xlink:href="#DejaVuSans-36" transform="translate(190.869141 0)"/>
       <use xlink:href="#DejaVuSans-2d" transform="translate(254.492188 0)"/>
       <use xlink:href="#DejaVuSans-30" transform="translate(290.576172 0)"/>
       <use xlink:href="#DejaVuSans-32" transform="translate(354.199219 0)"/>
       <use xlink:href="#DejaVuSans-2d" transform="translate(417.822266 0)"/>
       <use xlink:href="#DejaVuSans-30" transform="translate(453.90625 0)"/>
       <use xlink:href="#DejaVuSans-33" transform="translate(517.529297 0)"/>
      </g>
     </g>
    </g>
    <g id="xtick_3">
     <g id="line2d_3">
      <g>
       <use xlink:href="#mc967220cd7" x="368.588316" y="2080.199373" style="stroke: #000000; stroke-width: 0.8"/>
      </g>
     </g>
     <g id="text_3">
      <!-- 2026-02-05 -->
      <g transform="translate(349.992513 2133.666233) rotate(-45) scale(0.1 -0.1)">
       <defs>
        <path id="DejaVuSans-35" d="M 691 4666 
L 3169 4666 
L 3169 4134 
L 1269 4134 
L 1269 2991 
Q 1406 3038 1543 3061 
Q 1681 3084 1819 3084 
Q 2600 3084 3056 2656 
Q 3513 2228 3513 1497 
Q 3513 744 3044 326 
Q 2575 -91 1722 -91 
Q 1428 -91 1123 -41 
Q 819 9 494 109 
L 494 744 
Q 775 591 1075 516 
Q 1375 441 1709 441 
Q 2250 441 2565 725 
Q 2881 1009 2881 1497 
Q 2881 1984 2565 2268 
Q 2250 2553 1709 2553 
Q 1456 2553 1204 2497 
Q 953 2441 691 2322 
L 691 4666 
z
" transform="scale(0.015625)"/>
       </defs>
       <use xlink:href="#DejaVuSans-32"/>
       <use xlink:href="#DejaVuSans-30" transform="translate(63.623047 0)"/>
       <use xlink:href="#DejaVuSans-32" transform="translate(127.246094 0)"/>
       <use xlink:href="#DejaVuSans-36" transform="translate(190.869141 0)"/>
       <use xlink:href="#DejaVuSans-2d" transform="translate(254.492188 0)"/>
       <use xlink:href="#DejaVuSans-30" transform="translate(290.576172 0)"/>
       <use xlink:href="#DejaVuSans-32" transform="translate(354.199219 0)"/>
       <use xlink:href="#DejaVuSans-2d" transform="translate(417.822266 0)"/>
       <use xlink:href="#DejaVuSans-30" transform="translate(453.90625 0)"/>
       <use xlink:href="#DejaVuSans-35" transform="translate(517.529297 0)"/>
      </g>
     </g>
    </g>
    <g id="xtick_4">
     <g id="line2d_4">
      <g>
       <use xlink:href="#mc967220cd7" x="501.276079" y="2080.199373" style="stroke: #000000; stroke-width: 0.8"/>
      </g>
     </g>
     <g id="text_4">
      <!-- 2026-02-07 -->
      <g transform="translate(482.680276 2133.666233) rotate(-45) scale(0.1 -0.1)">
       <defs>
        <path id="DejaVuSans-37" d="M 525 4666 
L 3525 4666 
L 3525 4397 
L 1831 0 
L 1172 0 
L 2766 4134 
L 525 4134 
L 525 4666 
z
" transform="scale(0.015625)"/>
       </defs>
       <use xlink:href="#DejaVuSans-32"/>
       <use xlink:href="#DejaVuSans-30" transform="translate(63.623047 0)"/>
       <use xlink:href="#DejaVuSans-32" transform="translate(127.246094 0)"/>
       <use xlink:href="#DejaVuSans-36" transform="translate(190.869141 0)"/>
       <use xlink:href="#DejaVuSans-2d" transform="translate(254.492188 0)"/>
       <use xlink:href="#DejaVuSans-30" transform="translate(290.576172 0)"/>
       <use xlink:href="#DejaVuSans-32" transform="translate(354.199219 0)"/>
       <use xlink:href="#DejaVuSans-2d" transform="translate(417.822266 0)"/>
       <use xlink:href="#DejaVuSans-30" transform="translate(453.90625 0)"/>
       <use xlink:href="#DejaVuSans-37" transform="translate(517.529297 0)"/>
      </g>
     </g>
    </g>
    <g id="xtick_5">
     <g id="line2d_5">
      <g>
       <use xlink:href="#mc967220cd7" x="633.963842" y="2080.199373" style="stroke: #000000; stroke-width: 0.8"/>
      </g>
     </g>
     <g id="text_5">
      <!-- 2026-02-09 -->
      <g transform="translate(615.368039 2133.666233) rotate(-45) scale(0.1 -0.1)">
       <defs>
        <path id="DejaVuSans-39" d="M 703 97 
L 703 672 
Q 941 559 1184 500 
Q 1428 441 1663 441 
Q 2288 441 2617 861 
Q 2947 1281 2994 2138 
Q 2813 1869 2534 1725 
Q 2256 1581 1919 1581 
Q 1219 1581 811 2004 
Q 403 2428 403 3163 
Q 403 3881 828 4315 
Q 1253 4750 1959 4750 
Q 2769 4750 3195 4129 
Q 3622 3509 3622 2328 
Q 3622 1225 3098 567 
Q 2575 -91 1691 -91 
Q 1453 -91 1209 -44 
Q 966 3 703 97 
z
M 1959 2075 
Q 2384 2075 2632 2365 
Q 2881 2656 2881 3163 
Q 2881 3666 2632 3958 
Q 2384 4250 1959 4250 
Q 1534 4250 1286 3958 
Q 1038 3666 1038 3163 
Q 1038 2656 1286 2365 
Q 1534 2075 1959 2075 
z
" transform="scale(0.015625)"/>
       </defs>
       <use xlink:href="#DejaVuSans-32"/>
       <use xlink:href="#DejaVuSans-30" transform="translate(63.623047 0)"/>
       <use xlink:href="#DejaVuSans-32" transform="translate(127.246094 0)"/>
       <use xlink:href="#DejaVuSans-36" transform="translate(190.869141 0)"/>
       <use xlink:href="#DejaVuSans-2d" transform="translate(254.492188 0)"/>
       <use xlink:href="#DejaVuSans-30" transform="translate(290.576172 0)"/>
       <use xlink:href="#DejaVuSans-32" transform="translate(354.199219 0)"/>
       <use xlink:href="#DejaVuSans-2d" transform="translate(417.822266 0)"/>
       <use xlink:href="#DejaVuSans-30" transform="translate(453.90625 0)"/>
       <use xlink:href="#DejaVuSans-39" transform="translate(517.529297 0)"/>
      </g>
     </g>
    </g>
    <g id="xtick_6">
     <g id="line2d_6">
      <g>
       <use xlink:href="#mc967220cd7" x="766.651605" y="2080.199373" style="stroke: #000000; stroke-width: 0.8"/>
      </g>
     </g>
     <g id="text_6">
      <!-- 2026-02-11 -->
      <g transform="translate(748.055802 2133.666233) rotate(-45) scale(0.1 -0.1)">
       <use xlink:href="#DejaVuSans-32"/>
       <use xlink:href="#DejaVuSans-30" transform="translate(63.623047 0)"/>
       <use xlink:href="#DejaVuSans-32" transform="translate(127.246094 0)"/>
       <use xlink:href="#DejaVuSans-36" transform="translate(190.869141 0)"/>
       <use xlink:href="#DejaVuSans-2d" transform="translate(254.492188 0)"/>
       <use xlink:href="#DejaVuSans-30" transform="translate(290.576172 0)"/>
       <use xlink:href="#DejaVuSans-32" transform="translate(354.199219 0)"/>
       <use xlink:href="#DejaVuSans-2d" transform="translate(417.822266 0)"/>
       <use xlink:href="#DejaVuSans-31" transform="translate(453.90625 0)"/>
       <use xlink:href="#DejaVuSans-31" transform="translate(517.529297 0)"/>
      </g>
     </g>
    </g>
    <g id="xtick_7">
     <g id="line2d_7">
      <g>
       <use xlink:href="#mc967220cd7" x="899.339369" y="2080.199373" style="stroke: #000000; stroke-width: 0.8"/>
      </g>
     </g>
     <g id="text_7">
      <!-- 2026-02-13 -->
      <g transform="translate(880.743565 2133.666233) rotate(-45) scale(0.1 -0.1)">
       <use xlink:href="#DejaVuSans-32"/>
       <use xlink:href="#DejaVuSans-30" transform="translate(63.623047 0)"/>
       <use xlink:href="#DejaVuSans-32" transform="translate(127.246094 0)"/>
       <use xlink:href="#DejaVuSans-36" transform="translate(190.869141 0)"/>
       <use xlink:href="#DejaVuSans-2d" transform="translate(254.492188 0)"/>
       <use xlink:href="#DejaVuSans-30" transform="translate(290.576172 0)"/>
       <use xlink:href="#DejaVuSans-32" transform="translate(354.199219 0)"/>
       <use xlink:href="#DejaVuSans-2d" transform="translate(417.822266 0)"/>
       <use xlink:href="#DejaVuSans-31" transform="translate(453.90625 0)"/>
       <use xlink:href="#DejaVuSans-33" transform="translate(517.529297 0)"/>
      </g>
     </g>
    </g>
    <g id="xtick_8">
     <g id="line2d_8">
      <g>
       <use xlink:href="#mc967220cd7" x="1032.027132" y="2080.199373" style="stroke: #000000; stroke-width: 0.8"/>
      </g>
     </g>
     <g id="text_8">
      <!-- 2026-02-15 -->
      <g transform="translate(1013.431328 2133.666233) rotate(-45) scale(0.1 -0.1)">
       <use xlink:href="#DejaVuSans-32"/>
       <use xlink:href="#DejaVuSans-30" transform="translate(63.623047 0)"/>
       <use xlink:href="#DejaVuSans-32" transform="translate(127.246094 0)"/>
       <use xlink:href="#DejaVuSans-36" transform="translate(190.869141 0)"/>
       <use xlink:href="#DejaVuSans-2d" transform="translate(254.492188 0)"/>
       <use xlink:href="#DejaVuSans-30" transform="translate(290.576172 0)"/>
       <use xlink:href="#DejaVuSans-32" transform="translate(354.199219 0)"/>
       <use xlink:href="#DejaVuSans-2d" transform="translate(417.822266 0)"/>
       <use xlink:href="#DejaVuSans-31" transform="translate(453.90625 0)"/>
       <use xlink:href="#DejaVuSans-35" transform="translate(517.529297 0)"/>
      </g>
     </g>
    </g>
    <g id="xtick_9">
     <g id="line2d_9">
      <g>
       <use xlink:href="#mc967220cd7" x="1164.714895" y="2080.199373" style="stroke: #000000; stroke-width: 0.8"/>
      </g>
     </g>
     <g id="text_9">
      <!-- 2026-02-17 -->
      <g transform="translate(1146.119091 2133.666233) rotate(-45) scale(0.1 -0.1)">
       <use xlink:href="#DejaVuSans-32"/>
       <use xlink:href="#DejaVuSans-30" transform="translate(63.623047 0)"/>
       <use xlink:href="#DejaVuSans-32" transform="translate(127.246094 0)"/>
       <use xlink:href="#DejaVuSans-36" transform="translate(190.869141 0)"/>
       <use xlink:href="#DejaVuSans-2d" transform="translate(254.492188 0)"/>
       <use xlink:href="#DejaVuSans-30" transform="translate(290.576172 0)"/>
       <use xlink:href="#DejaVuSans-32" transform="translate(354.199219 0)"/>
       <use xlink:href="#DejaVuSans-2d" transform="translate(417.822266 0)"/>
       <use xlink:href="#DejaVuSans-31" transform="translate(453.90625 0)"/>
       <use xlink:href="#DejaVuSans-37" transform="translate(517.529297 0)"/>
      </g>
     </g>
    </g>
    <g id="text_10">
     <!-- Dates -->
     <g transform="translate(619.408374 2146.735231) scale(0.1 -0.1)">
      <defs>
       <path id="DejaVuSans-44" d="M 1259 4147 
L 1259 519 
L 2022 519 
Q 2988 519 3436 956 
Q 3884 1394 3884 2338 
Q 3884 3275 3436 3711 
Q 2988 4147 2022 4147 
L 1259 4147 
z
M 628 4666 
L 1925 4666 
Q 3281 4666 3915 4102 
Q 4550 3538 4550 2338 
Q 4550 1131 3912 565 
Q 3275 0 1925 0 
L 628 0 
L 628 4666 
z
" transform="scale(0.015625)"/>
       <path id="DejaVuSans-61" d="M 2194 1759 
Q 1497 1759 1228 1600 
Q 959 1441 959 1056 
Q 959 750 1161 570 
Q 1363 391 1709 391 
Q 2188 391 2477 730 
Q 2766 1069 2766 1631 
L 2766 1759 
L 2194 1759 
z
M 3341 1997 
L 3341 0 
L 2766 0 
L 2766 531 
Q 2569 213 2275 61 
Q 1981 -91 1556 -91 
Q 1019 -91 701 211 
Q 384 513 384 1019 
Q 384 1609 779 1909 
Q 1175 2209 1959 2209 
L 2766 2209 
L 2766 2266 
Q 2766 2663 2505 2880 
Q 2244 3097 1772 3097 
Q 1472 3097 1187 3025 
Q 903 2953 641 2809 
L 641 3341 
Q 956 3463 1253 3523 
Q 1550 3584 1831 3584 
Q 2591 3584 2966 3190 
Q 3341 2797 3341 1997 
z
" transform="scale(0.015625)"/>
       <path id="DejaVuSans-74" d="M 1172 4494 
L 1172 3500 
L 2356 3500 
L 2356 3053 
L 1172 3053 
L 1172 1153 
Q 1172 725 1289 603 
Q 1406 481 1766 481 
L 2356 481 
L 2356 0 
L 1766 0 
Q 1100 0 847 248 
Q 594 497 594 1153 
L 594 3053 
L 172 3053 
L 172 3500 
L 594 3500 
L 594 4494 
L 1172 4494 
z
" transform="scale(0.015625)"/>
       <path id="DejaVuSans-65" d="M 3597 1894 
L 3597 1613 
L 953 1613 
Q 991 1019 1311 708 
Q 1631 397 2203 397 
Q 2534 397 2845 478 
Q 3156 559 3463 722 
L 3463 178 
Q 3153 47 2828 -22 
Q 2503 -91 2169 -91 
Q 1331 -91 842 396 
Q 353 884 353 1716 
Q 353 2575 817 3079 
Q 1281 3584 2069 3584 
Q 2775 3584 3186 3129 
Q 3597 2675 3597 1894 
z
M 3022 2063 
Q 3016 2534 2758 2815 
Q 2500 3097 2075 3097 
Q 1594 3097 1305 2825 
Q 1016 2553 972 2059 
L 3022 2063 
z
" transform="scale(0.015625)"/>
       <path id="DejaVuSans-73" d="M 2834 3397 
L 2834 2853 
Q 2591 2978 2328 3040 
Q 2066 3103 1784 3103 
Q 1356 3103 1142 2972 
Q 928 2841 928 2578 
Q 928 2378 1081 2264 
Q 1234 2150 1697 2047 
L 1894 2003 
Q 2506 1872 2764 1633 
Q 3022 1394 3022 966 
Q 3022 478 2636 193 
Q 2250 -91 1575 -91 
Q 1294 -91 989 -36 
Q 684 19 347 128 
L 347 722 
Q 666 556 975 473 
Q 1284 391 1588 391 
Q 1994 391 2212 530 
Q 2431 669 2431 922 
Q 2431 1156 2273 1281 
Q 2116 1406 1581 1522 
L 1381 1569 
Q 847 1681 609 1914 
Q 372 2147 372 2553 
Q 372 3047 722 3315 
Q 1072 3584 1716 3584 
Q 2034 3584 2315 3537 
Q 2597 3491 2834 3397 
z
" transform="scale(0.015625)"/>
      </defs>
      <use xlink:href="#DejaVuSans-44"/>
      <use xlink:href="#DejaVuSans-61" transform="translate(77.001953 0)"/>
      <use xlink:href="#DejaVuSans-74" transform="translate(138.28125 0)"/>
      <use xlink:href="#DejaVuSans-65" transform="translate(177.490234 0)"/>
      <use xlink:href="#DejaVuSans-73" transform="translate(239.013672 0)"/>
     </g>
    </g>
   </g>
   <g id="matplotlib.axis_2">
    <g id="ytick_1">
     <g id="line2d_10">
      <defs>
       <path id="m35517ffef3" d="M 0 0 
L -3.5 0 
" style="stroke: #000000; stroke-width: 0.8"/>
      </defs>
      <g>
       <use xlink:href="#m35517ffef3" x="50.137685" y="1868.374076" style="stroke: #000000; stroke-width: 0.8"/>
      </g>
     </g>
     <g id="text_11">
      <!-- $\mathdefault{10^{1}}$ -->
      <g transform="translate(25.537685 1872.173295) scale(0.1 -0.1)">
       <use xlink:href="#DejaVuSans-31" transform="translate(0 0.684375)"/>
       <use xlink:href="#DejaVuSans-30" transform="translate(63.623047 0.684375)"/>
       <use xlink:href="#DejaVuSans-31" transform="translate(128.203125 38.965625) scale(0.7)"/>
      </g>
     </g>
    </g>
    <g id="ytick_2">
     <g id="line2d_11">
      <g>
       <use xlink:href="#m35517ffef3" x="50.137685" y="1337.554364" style="stroke: #000000; stroke-width: 0.8"/>
      </g>
     </g>
     <g id="text_12">
      <!-- $\mathdefault{10^{2}}$ -->
      <g transform="translate(25.537685 1341.353582) scale(0.1 -0.1)">
       <use xlink:href="#DejaVuSans-31" transform="translate(0 0.765625)"/>
       <use xlink:href="#DejaVuSans-30" transform="translate(63.623047 0.765625)"/>
       <use xlink:href="#DejaVuSans-32" transform="translate(128.203125 39.046875) scale(0.7)"/>
      </g>
     </g>
    </g>
    <g id="ytick_3">
     <g id="line2d_12">
      <g>
       <use xlink:href="#m35517ffef3" x="50.137685" y="806.734651" style="stroke: #000000; stroke-width: 0.8"/>
      </g>
     </g>
     <g id="text_13">
      <!-- $\mathdefault{10^{3}}$ -->
      <g transform="translate(25.537685 810.53387) scale(0.1 -0.1)">
       <use xlink:href="#DejaVuSans-31" transform="translate(0 0.765625)"/>
       <use xlink:href="#DejaVuSans-30" transform="translate(63.623047 0.765625)"/>
       <use xlink:href="#DejaVuSans-33" transform="translate(128.203125 39.046875) scale(0.7)"/>
      </g>
     </g>
    </g>
    <g id="ytick_4">
     <g id="line2d_13">
      <g>
       <use xlink:href="#m35517ffef3" x="50.137685" y="275.914939" style="stroke: #000000; stroke-width: 0.8"/>
      </g>
     </g>
     <g id="text_14">
      <!-- $\mathdefault{10^{4}}$ -->
      <g transform="translate(25.537685 279.714157) scale(0.1 -0.1)">
       <defs>
        <path id="DejaVuSans-34" d="M 2419 4116 
L 825 1625 
L 2419 1625 
L 2419 4116 
z
M 2253 4666 
L 3047 4666 
L 3047 1625 
L 3713 1625 
L 3713 1100 
L 3047 1100 
L 3047 0 
L 2419 0 
L 2419 1100 
L 313 1100 
L 313 1709 
L 2253 4666 
z
" transform="scale(0.015625)"/>
       </defs>
       <use xlink:href="#DejaVuSans-31" transform="translate(0 0.684375)"/>
       <use xlink:href="#DejaVuSans-30" transform="translate(63.623047 0.684375)"/>
       <use xlink:href="#DejaVuSans-34" transform="translate(128.203125 38.965625) scale(0.7)"/>
      </g>
     </g>
    </g>
    <g id="ytick_5">
     <g id="line2d_14">
      <defs>
       <path id="md1a4a97e41" d="M 0 0 
L -2 0 
" style="stroke: #000000; stroke-width: 0.6"/>
      </defs>
      <g>
       <use xlink:href="#md1a4a97e41" x="50.137685" y="2079.608477" style="stroke: #000000; stroke-width: 0.6"/>
      </g>
     </g>
    </g>
    <g id="ytick_6">
     <g id="line2d_15">
      <g>
       <use xlink:href="#md1a4a97e41" x="50.137685" y="2028.166732" style="stroke: #000000; stroke-width: 0.6"/>
      </g>
     </g>
    </g>
    <g id="ytick_7">
     <g id="line2d_16">
      <g>
       <use xlink:href="#md1a4a97e41" x="50.137685" y="1986.135766" style="stroke: #000000; stroke-width: 0.6"/>
      </g>
     </g>
    </g>
    <g id="ytick_8">
     <g id="line2d_17">
      <g>
       <use xlink:href="#md1a4a97e41" x="50.137685" y="1950.59909" style="stroke: #000000; stroke-width: 0.6"/>
      </g>
     </g>
    </g>
    <g id="ytick_9">
     <g id="line2d_18">
      <g>
       <use xlink:href="#md1a4a97e41" x="50.137685" y="1919.815821" style="stroke: #000000; stroke-width: 0.6"/>
      </g>
     </g>
    </g>
    <g id="ytick_10">
     <g id="line2d_19">
      <g>
       <use xlink:href="#md1a4a97e41" x="50.137685" y="1892.663054" style="stroke: #000000; stroke-width: 0.6"/>
      </g>
     </g>
    </g>
    <g id="ytick_11">
     <g id="line2d_20">
      <g>
       <use xlink:href="#md1a4a97e41" x="50.137685" y="1708.58142" style="stroke: #000000; stroke-width: 0.6"/>
      </g>
     </g>
    </g>
    <g id="ytick_12">
     <g id="line2d_21">
      <g>
       <use xlink:href="#md1a4a97e41" x="50.137685" y="1615.108709" style="stroke: #000000; stroke-width: 0.6"/>
      </g>
     </g>
    </g>
    <g id="ytick_13">
     <g id="line2d_22">
      <g>
       <use xlink:href="#md1a4a97e41" x="50.137685" y="1548.788765" style="stroke: #000000; stroke-width: 0.6"/>
      </g>
     </g>
    </g>
    <g id="ytick_14">
     <g id="line2d_23">
      <g>
       <use xlink:href="#md1a4a97e41" x="50.137685" y="1497.347019" style="stroke: #000000; stroke-width: 0.6"/>
      </g>
     </g>
    </g>
    <g id="ytick_15">
     <g id="line2d_24">
      <g>
       <use xlink:href="#md1a4a97e41" x="50.137685" y="1455.316053" style="stroke: #000000; stroke-width: 0.6"/>
      </g>
     </g>
    </g>
    <g id="ytick_16">
     <g id="line2d_25">
      <g>
       <use xlink:href="#md1a4a97e41" x="50.137685" y="1419.779377" style="stroke: #000000; stroke-width: 0.6"/>
      </g>
     </g>
    </g>
    <g id="ytick_17">
     <g id="line2d_26">
      <g>
       <use xlink:href="#md1a4a97e41" x="50.137685" y="1388.996109" style="stroke: #000000; stroke-width: 0.6"/>
      </g>
     </g>
    </g>
    <g id="ytick_18">
     <g id="line2d_27">
      <g>
       <use xlink:href="#md1a4a97e41" x="50.137685" y="1361.843342" style="stroke: #000000; stroke-width: 0.6"/>
      </g>
     </g>
    </g>
    <g id="ytick_19">
     <g id="line2d_28">
      <g>
       <use xlink:href="#md1a4a97e41" x="50.137685" y="1177.761708" style="stroke: #000000; stroke-width: 0.6"/>
      </g>
     </g>
    </g>
    <g id="ytick_20">
     <g id="line2d_29">
      <g>
       <use xlink:href="#md1a4a97e41" x="50.137685" y="1084.288996" style="stroke: #000000; stroke-width: 0.6"/>
      </g>
     </g>
    </g>
    <g id="ytick_21">
     <g id="line2d_30">
      <g>
       <use xlink:href="#md1a4a97e41" x="50.137685" y="1017.969052" style="stroke: #000000; stroke-width: 0.6"/>
      </g>
     </g>
    </g>
    <g id="ytick_22">
     <g id="line2d_31">
      <g>
       <use xlink:href="#md1a4a97e41" x="50.137685" y="966.527307" style="stroke: #000000; stroke-width: 0.6"/>
      </g>
     </g>
    </g>
    <g id="ytick_23">
     <g id="line2d_32">
      <g>
       <use xlink:href="#md1a4a97e41" x="50.137685" y="924.496341" style="stroke: #000000; stroke-width: 0.6"/>
      </g>
     </g>
    </g>
    <g id="ytick_24">
     <g id="line2d_33">
      <g>
       <use xlink:href="#md1a4a97e41" x="50.137685" y="888.959665" style="stroke: #000000; stroke-width: 0.6"/>
      </g>
     </g>
    </g>
    <g id="ytick_25">
     <g id="line2d_34">
      <g>
       <use xlink:href="#md1a4a97e41" x="50.137685" y="858.176396" style="stroke: #000000; stroke-width: 0.6"/>
      </g>
     </g>
    </g>
    <g id="ytick_26">
     <g id="line2d_35">
      <g>
       <use xlink:href="#md1a4a97e41" x="50.137685" y="831.023629" style="stroke: #000000; stroke-width: 0.6"/>
      </g>
     </g>
    </g>
    <g id="ytick_27">
     <g id="line2d_36">
      <g>
       <use xlink:href="#md1a4a97e41" x="50.137685" y="646.941995" style="stroke: #000000; stroke-width: 0.6"/>
      </g>
     </g>
    </g>
    <g id="ytick_28">
     <g id="line2d_37">
      <g>
       <use xlink:href="#md1a4a97e41" x="50.137685" y="553.469284" style="stroke: #000000; stroke-width: 0.6"/>
      </g>
     </g>
    </g>
    <g id="ytick_29">
     <g id="line2d_38">
      <g>
       <use xlink:href="#md1a4a97e41" x="50.137685" y="487.14934" style="stroke: #000000; stroke-width: 0.6"/>
      </g>
     </g>
    </g>
    <g id="ytick_30">
     <g id="line2d_39">
      <g>
       <use xlink:href="#md1a4a97e41" x="50.137685" y="435.707594" style="stroke: #000000; stroke-width: 0.6"/>
      </g>
     </g>
    </g>
    <g id="ytick_31">
     <g id="line2d_40">
      <g>
       <use xlink:href="#md1a4a97e41" x="50.137685" y="393.676628" style="stroke: #000000; stroke-width: 0.6"/>
      </g>
     </g>
    </g>
    <g id="ytick_32">
     <g id="line2d_41">
      <g>
       <use xlink:href="#md1a4a97e41" x="50.137685" y="358.139953" style="stroke: #000000; stroke-width: 0.6"/>
      </g>
     </g>
    </g>
    <g id="ytick_33">
     <g id="line2d_42">
      <g>
       <use xlink:href="#md1a4a97e41" x="50.137685" y="327.356684" style="stroke: #000000; stroke-width: 0.6"/>
      </g>
     </g>
    </g>
    <g id="ytick_34">
     <g id="line2d_43">
      <g>
       <use xlink:href="#md1a4a97e41" x="50.137685" y="300.203917" style="stroke: #000000; stroke-width: 0.6"/>
      </g>
     </g>
    </g>
    <g id="ytick_35">
     <g id="line2d_44">
      <g>
       <use xlink:href="#md1a4a97e41" x="50.137685" y="116.122283" style="stroke: #000000; stroke-width: 0.6"/>
      </g>
     </g>
    </g>
    <g id="ytick_36">
     <g id="line2d_45">
      <g>
       <use xlink:href="#md1a4a97e41" x="50.137685" y="22.649571" style="stroke: #000000; stroke-width: 0.6"/>
      </g>
     </g>
    </g>
    <g id="text_15">
     <!-- Cumulative Users -->
     <g transform="translate(19.457997 1089.62703) rotate(-90) scale(0.1 -0.1)">
      <defs>
       <path id="DejaVuSans-43" d="M 4122 4306 
L 4122 3641 
Q 3803 3938 3442 4084 
Q 3081 4231 2675 4231 
Q 1875 4231 1450 3742 
Q 1025 3253 1025 2328 
Q 1025 1406 1450 917 
Q 1875 428 2675 428 
Q 3081 428 3442 575 
Q 3803 722 4122 1019 
L 4122 359 
Q 3791 134 3420 21 
Q 3050 -91 2638 -91 
Q 1578 -91 968 557 
Q 359 1206 359 2328 
Q 359 3453 968 4101 
Q 1578 4750 2638 4750 
Q 3056 4750 3426 4639 
Q 3797 4528 4122 4306 
z
" transform="scale(0.015625)"/>
       <path id="DejaVuSans-75" d="M 544 1381 
L 544 3500 
L 1119 3500 
L 1119 1403 
Q 1119 906 1312 657 
Q 1506 409 1894 409 
Q 2359 409 2629 706 
Q 2900 1003 2900 1516 
L 2900 3500 
L 3475 3500 
L 3475 0 
L 2900 0 
L 2900 538 
Q 2691 219 2414 64 
Q 2138 -91 1772 -91 
Q 1169 -91 856 284 
Q 544 659 544 1381 
z
M 1991 3584 
L 1991 3584 
z
" transform="scale(0.015625)"/>
       <path id="DejaVuSans-6d" d="M 3328 2828 
Q 3544 3216 3844 3400 
Q 4144 3584 4550 3584 
Q 5097 3584 5394 3201 
Q 5691 2819 5691 2113 
L 5691 0 
L 5113 0 
L 5113 2094 
Q 5113 2597 4934 2840 
Q 4756 3084 4391 3084 
Q 3944 3084 3684 2787 
Q 3425 2491 3425 1978 
L 3425 0 
L 2847 0 
L 2847 2094 
Q 2847 2600 2669 2842 
Q 2491 3084 2119 3084 
Q 1678 3084 1418 2786 
Q 1159 2488 1159 1978 
L 1159 0 
L 581 0 
L 581 3500 
L 1159 3500 
L 1159 2956 
Q 1356 3278 1631 3431 
Q 1906 3584 2284 3584 
Q 2666 3584 2933 3390 
Q 3200 3197 3328 2828 
z
" transform="scale(0.015625)"/>
       <path id="DejaVuSans-6c" d="M 603 4863 
L 1178 4863 
L 1178 0 
L 603 0 
L 603 4863 
z
" transform="scale(0.015625)"/>
       <path id="DejaVuSans-69" d="M 603 3500 
L 1178 3500 
L 1178 0 
L 603 0 
L 603 3500 
z
M 603 4863 
L 1178 4863 
L 1178 4134 
L 603 4134 
L 603 4863 
z
" transform="scale(0.015625)"/>
       <path id="DejaVuSans-76" d="M 191 3500 
L 800 3500 
L 1894 563 
L 2988 3500 
L 3597 3500 
L 2284 0 
L 1503 0 
L 191 3500 
z
" transform="scale(0.015625)"/>
       <path id="DejaVuSans-20" transform="scale(0.015625)"/>
       <path id="DejaVuSans-55" d="M 556 4666 
L 1191 4666 
L 1191 1831 
Q 1191 1081 1462 751 
Q 1734 422 2344 422 
Q 2950 422 3222 751 
Q 3494 1081 3494 1831 
L 3494 4666 
L 4128 4666 
L 4128 1753 
Q 4128 841 3676 375 
Q 3225 -91 2344 -91 
Q 1459 -91 1007 375 
Q 556 841 556 1753 
L 556 4666 
z
" transform="scale(0.015625)"/>
       <path id="DejaVuSans-72" d="M 2631 2963 
Q 2534 3019 2420 3045 
Q 2306 3072 2169 3072 
Q 1681 3072 1420 2755 
Q 1159 2438 1159 1844 
L 1159 0 
L 581 0 
L 581 3500 
L 1159 3500 
L 1159 2956 
Q 1341 3275 1631 3429 
Q 1922 3584 2338 3584 
Q 2397 3584 2469 3576 
Q 2541 3569 2628 3553 
L 2631 2963 
z
" transform="scale(0.015625)"/>
      </defs>
      <use xlink:href="#DejaVuSans-43"/>
      <use xlink:href="#DejaVuSans-75" transform="translate(69.824219 0)"/>
      <use xlink:href="#DejaVuSans-6d" transform="translate(133.203125 0)"/>
      <use xlink:href="#DejaVuSans-75" transform="translate(230.615234 0)"/>
      <use xlink:href="#DejaVuSans-6c" transform="translate(293.994141 0)"/>
      <use xlink:href="#DejaVuSans-61" transform="translate(321.777344 0)"/>
      <use xlink:href="#DejaVuSans-74" transform="translate(383.056641 0)"/>
      <use xlink:href="#DejaVuSans-69" transform="translate(422.265625 0)"/>
      <use xlink:href="#DejaVuSans-76" transform="translate(450.048828 0)"/>
      <use xlink:href="#DejaVuSans-65" transform="translate(509.228516 0)"/>
      <use xlink:href="#DejaVuSans-20" transform="translate(570.751953 0)"/>
      <use xlink:href="#DejaVuSans-55" transform="translate(602.539062 0)"/>
      <use xlink:href="#DejaVuSans-73" transform="translate(675.732422 0)"/>
      <use xlink:href="#DejaVuSans-65" transform="translate(727.832031 0)"/>
      <use xlink:href="#DejaVuSans-72" transform="translate(789.355469 0)"/>
      <use xlink:href="#DejaVuSans-73" transform="translate(830.46875 0)"/>
     </g>
    </g>
   </g>
   <g id="line2d_46">
    <path d="M 169.556672 1291.712863 
L 235.900553 961.510585 
L 302.244435 764.128074 
L 368.588316 682.248254 
L 434.932198 601.85758 
L 501.276079 570.447173 
L 567.619961 570.364471 
L 633.963842 179.085645 
L 700.307724 179.085645 
L 766.651605 179.085645 
L 832.995487 179.070499 
L 899.339369 179.070499 
L 965.68325 172.692355 
L 1032.027132 137.787932 
L 1098.371013 106.493984 
L 1164.714895 104.863608 
" clip-path="url(#pffd3549b21)" style="fill: none; stroke: #0000ff; stroke-width: 1.5; stroke-linecap: square"/>
   </g>
   <g id="line2d_47">
    <path d="M 235.900553 1270.084631 
L 302.244435 849.134764 
L 368.588316 847.203305 
L 434.932198 771.329746 
L 501.276079 606.646536 
L 567.619961 578.785133 
L 633.963842 578.785133 
L 700.307724 517.800913 
L 766.651605 412.731772 
L 832.995487 408.309057 
L 899.339369 408.309057 
L 965.68325 406.880599 
L 1032.027132 398.37321 
L 1098.371013 368.409965 
L 1164.714895 368.409965 
" clip-path="url(#pffd3549b21)" style="fill: none; stroke: #008000; stroke-width: 1.5; stroke-linecap: square"/>
   </g>
   <g id="line2d_48">
    <path d="M 103.21279 1006.721355 
L 169.556672 867.587175 
L 235.900553 786.867928 
L 302.244435 694.525971 
L 368.588316 672.257844 
L 434.932198 645.448386 
L 501.276079 596.424228 
L 567.619961 570.447173 
L 633.963842 570.447173 
L 700.307724 570.447173 
L 766.651605 565.132313 
L 832.995487 547.626954 
L 899.339369 512.851447 
L 965.68325 512.52952 
L 1032.027132 492.926803 
L 1098.371013 483.887444 
L 1164.714895 483.887444 
" clip-path="url(#pffd3549b21)" style="fill: none; stroke: #ff0000; stroke-width: 1.5; stroke-linecap: square"/>
   </g>
   <g id="line2d_49">
    <path d="M 103.21279 1919.815821 
L 169.556672 1919.815821 
L 235.900553 1919.815821 
L 302.244435 1068.691508 
L 368.588316 1017.969052 
L 434.932198 927.201694 
L 501.276079 872.440661 
L 567.619961 833.599433 
L 633.963842 802.395633 
L 700.307724 744.660782 
L 766.651605 727.689761 
L 832.995487 680.641752 
L 899.339369 639.904035 
L 965.68325 617.546085 
L 1032.027132 594.488134 
L 1098.371013 570.94401 
L 1164.714895 570.94401 
" clip-path="url(#pffd3549b21)" style="fill: none; stroke: #00ffff; stroke-width: 1.5; stroke-linecap: square"/>
   </g>
   <g id="line2d_50">
    <path d="M 103.21279 1488.305387 
L 169.556672 1455.316053 
L 235.900553 1167.614404 
L 302.244435 961.962166 
L 368.588316 864.012963 
L 434.932198 722.832866 
L 501.276079 656.713262 
L 567.619961 630.484312 
L 633.963842 630.484312 
L 700.307724 630.484312 
L 766.651605 630.484312 
L 832.995487 616.129912 
L 899.339369 616.129912 
L 965.68325 615.827575 
L 1032.027132 590.844722 
L 1098.371013 584.780086 
L 1164.714895 584.780086 
" clip-path="url(#pffd3549b21)" style="fill: none; stroke: #ff00ff; stroke-width: 1.5; stroke-linecap: square"/>
   </g>
   <g id="line2d_51">
    <path d="M 302.244435 1986.135766 
L 368.588316 1286.112618 
L 434.932198 798.136777 
L 501.276079 729.167009 
L 567.619961 634.380721 
L 633.963842 634.380721 
L 700.307724 631.344507 
L 766.651605 631.344507 
L 832.995487 631.344507 
L 899.339369 631.344507 
L 965.68325 623.507568 
L 1032.027132 613.223797 
L 1098.371013 607.325 
L 1164.714895 607.325 
" clip-path="url(#pffd3549b21)" style="fill: none; stroke: #ffff00; stroke-width: 1.5; stroke-linecap: square"/>
   </g>
   <g id="line2d_52">
    <path d="M 103.21279 1488.305387 
L 169.556672 1337.554364 
L 235.900553 1227.767112 
L 302.244435 913.248643 
L 368.588316 851.642086 
L 434.932198 822.969288 
L 501.276079 770.540252 
L 567.619961 755.662053 
L 633.963842 717.449317 
L 700.307724 702.894137 
L 766.651605 690.31394 
L 832.995487 678.38487 
L 899.339369 653.96382 
L 965.68325 628.347762 
L 1032.027132 611.339463 
L 1098.371013 610.550644 
L 1164.714895 610.550644 
" clip-path="url(#pffd3549b21)" style="fill: none; stroke: #000000; stroke-width: 1.5; stroke-linecap: square"/>
   </g>
   <g id="line2d_53">
    <path d="M 103.21279 1229.203453 
L 169.556672 995.996999 
L 235.900553 958.819519 
L 302.244435 882.465374 
L 368.588316 833.081965 
L 434.932198 754.372617 
L 501.276079 754.372617 
L 567.619961 742.20829 
L 633.963842 713.569521 
L 700.307724 677.06754 
L 766.651605 672.386525 
L 832.995487 641.249556 
L 899.339369 641.249556 
L 965.68325 641.249556 
L 1032.027132 641.249556 
L 1098.371013 641.249556 
L 1164.714895 641.249556 
" clip-path="url(#pffd3549b21)" style="fill: none; stroke: #0000ff; stroke-width: 1.5; stroke-linecap: square"/>
   </g>
   <g id="line2d_54">
    <path d="M 434.932198 1367.024056 
L 501.276079 999.694042 
L 567.619961 739.609253 
L 633.963842 739.609253 
L 700.307724 739.609253 
L 766.651605 739.609253 
L 832.995487 722.03324 
L 899.339369 695.093435 
L 965.68325 695.093435 
L 1032.027132 695.093435 
L 1098.371013 673.418567 
L 1164.714895 673.418567 
" clip-path="url(#pffd3549b21)" style="fill: none; stroke: #008000; stroke-width: 1.5; stroke-linecap: square"/>
   </g>
   <g id="line2d_55">
    <path d="M 235.900553 1372.323877 
L 302.244435 1372.323877 
L 368.588316 1146.546596 
L 434.932198 1050.736827 
L 501.276079 1000.227064 
L 567.619961 779.992083 
L 633.963842 763.171905 
L 700.307724 762.409815 
L 766.651605 762.409815 
L 832.995487 762.029712 
L 899.339369 762.029712 
L 965.68325 762.029712 
L 1032.027132 732.818422 
L 1098.371013 710.20849 
L 1164.714895 710.20849 
" clip-path="url(#pffd3549b21)" style="fill: none; stroke: #ff0000; stroke-width: 1.5; stroke-linecap: square"/>
   </g>
   <g id="line2d_56">
    <path d="M 501.276079 1760.023166 
L 567.619961 784.762598 
L 633.963842 760.326964 
L 700.307724 745.896881 
L 766.651605 731.816832 
L 832.995487 731.317665 
L 899.339369 728.673541 
L 965.68325 726.547298 
L 1032.027132 720.918402 
L 1098.371013 718.547465 
L 1164.714895 717.76254 
" clip-path="url(#pffd3549b21)" style="fill: none; stroke: #00ffff; stroke-width: 1.5; stroke-linecap: square"/>
   </g>
   <g id="line2d_57">
    <path d="M 368.588316 1105.187736 
L 434.932198 1103.511131 
L 501.276079 963.322241 
L 567.619961 963.322241 
L 633.963842 935.917002 
L 700.307724 921.442891 
L 766.651605 909.618142 
L 832.995487 899.057574 
L 899.339369 898.370444 
L 965.68325 830.001312 
L 1032.027132 762.600101 
L 1098.371013 756.402124 
L 1164.714895 756.402124 
" clip-path="url(#pffd3549b21)" style="fill: none; stroke: #ff00ff; stroke-width: 1.5; stroke-linecap: square"/>
   </g>
   <g id="line2d_58">
    <path d="M 103.21279 1471.221123 
L 169.556672 1471.221123 
L 235.900553 1375.020189 
L 302.244435 1375.020189 
L 368.588316 1375.020189 
L 434.932198 1375.020189 
L 501.276079 1071.58223 
L 567.619961 1022.039081 
L 633.963842 938.760606 
L 700.307724 868.791001 
L 766.651605 810.687391 
L 832.995487 798.358976 
L 899.339369 798.358976 
L 965.68325 767.214742 
L 1032.027132 767.214742 
L 1098.371013 767.214742 
L 1164.714895 767.214742 
" clip-path="url(#pffd3549b21)" style="fill: none; stroke: #ffff00; stroke-width: 1.5; stroke-linecap: square"/>
   </g>
   <g id="line2d_59">
    <path d="M 103.21279 1543.096325 
L 169.556672 1543.096325 
L 235.900553 1061.619417 
L 302.244435 918.429357 
L 368.588316 832.823666 
L 434.932198 832.823666 
L 501.276079 794.173377 
L 567.619961 794.173377 
L 633.963842 773.5149 
L 700.307724 773.5149 
L 766.651605 773.5149 
L 832.995487 773.5149 
L 899.339369 773.5149 
L 965.68325 773.5149 
L 1032.027132 773.5149 
L 1098.371013 773.5149 
L 1164.714895 773.5149 
" clip-path="url(#pffd3549b21)" style="fill: none; stroke: #000000; stroke-width: 1.5; stroke-linecap: square"/>
   </g>
   <g id="line2d_60">
    <path d="M 103.21279 1950.59909 
L 169.556672 1950.59909 
L 235.900553 1615.108709 
L 302.244435 1367.024056 
L 368.588316 1224.921 
L 434.932198 1106.876623 
L 501.276079 1106.030633 
L 567.619961 1052.738565 
L 633.963842 1040.980841 
L 700.307724 1040.980841 
L 766.651605 960.161125 
L 832.995487 901.13134 
L 899.339369 854.460362 
L 965.68325 845.015559 
L 1032.027132 803.757047 
L 1098.371013 798.58139 
L 1164.714895 798.58139 
" clip-path="url(#pffd3549b21)" style="fill: none; stroke: #0000ff; stroke-width: 1.5; stroke-linecap: square"/>
   </g>
   <g id="line2d_61">
    <path d="M 235.900553 1299.397977 
L 302.244435 1299.397977 
L 368.588316 1299.397977 
L 434.932198 912.517954 
L 501.276079 832.823666 
L 567.619961 832.823666 
L 633.963842 832.823666 
L 700.307724 832.823666 
L 766.651605 832.823666 
L 832.995487 832.823666 
L 899.339369 832.823666 
L 965.68325 832.823666 
L 1032.027132 832.823666 
L 1098.371013 823.216773 
L 1164.714895 823.216773 
" clip-path="url(#pffd3549b21)" style="fill: none; stroke: #008000; stroke-width: 1.5; stroke-linecap: square"/>
   </g>
   <g id="line2d_62">
    <path d="M 169.556672 1149.586624 
L 235.900553 1111.153779 
L 302.244435 1078.971711 
L 368.588316 1071.58223 
L 434.932198 1071.58223 
L 501.276079 1031.010332 
L 567.619961 999.694042 
L 633.963842 991.329148 
L 700.307724 957.485675 
L 766.651605 957.485675 
L 832.995487 957.485675 
L 899.339369 915.454708 
L 965.68325 891.942868 
L 1032.027132 887.31886 
L 1098.371013 839.369593 
L 1164.714895 839.369593 
" clip-path="url(#pffd3549b21)" style="fill: none; stroke: #ff0000; stroke-width: 1.5; stroke-linecap: square"/>
   </g>
   <g id="line2d_63">
    <path d="M 302.244435 1280.645198 
L 368.588316 1280.645198 
L 434.932198 1024.990876 
L 501.276079 1024.990876 
L 567.619961 974.024946 
L 633.963842 974.024946 
L 700.307724 974.024946 
L 766.651605 974.024946 
L 832.995487 964.690388 
L 899.339369 946.660584 
L 965.68325 878.340121 
L 1032.027132 857.600785 
L 1098.371013 857.600785 
L 1164.714895 857.600785 
" clip-path="url(#pffd3549b21)" style="fill: none; stroke: #00ffff; stroke-width: 1.5; stroke-linecap: square"/>
   </g>
   <g id="line2d_64">
    <path d="M 169.556672 1986.135766 
L 235.900553 1600.23051 
L 302.244435 1330.740112 
L 368.588316 1291.712863 
L 434.932198 1284.2757 
L 501.276079 1241.028203 
L 567.619961 1226.339664 
L 633.963842 1226.339664 
L 700.307724 1226.339664 
L 766.651605 1183.598275 
L 832.995487 1129.10308 
L 899.339369 1066.547008 
L 965.68325 1045.482307 
L 1032.027132 953.966033 
L 1098.371013 911.789574 
L 1164.714895 894.290124 
" clip-path="url(#pffd3549b21)" style="fill: none; stroke: #ff00ff; stroke-width: 1.5; stroke-linecap: square"/>
   </g>
   <g id="line2d_65">
    <path d="M 169.556672 1708.58142 
L 235.900553 1239.516511 
L 302.244435 1045.482307 
L 368.588316 1045.482307 
L 434.932198 1012.839573 
L 501.276079 1010.03842 
L 567.619961 1005.08055 
L 633.963842 999.162249 
L 700.307724 980.791572 
L 766.651605 941.226213 
L 832.995487 941.226213 
L 899.339369 941.226213 
L 965.68325 941.226213 
L 1032.027132 935.110945 
L 1098.371013 902.524287 
L 1164.714895 902.524287 
" clip-path="url(#pffd3549b21)" style="fill: none; stroke: #ffff00; stroke-width: 1.5; stroke-linecap: square"/>
   </g>
   <g id="patch_3">
    <path d="M 50.137685 2080.199373 
L 50.137685 10.8 
" style="fill: none; stroke: #000000; stroke-width: 0.8; stroke-linejoin: miter; stroke-linecap: square"/>
   </g>
   <g id="patch_4">
    <path d="M 1217.79 2080.199373 
L 1217.79 10.8 
" style="fill: none; stroke: #000000; stroke-width: 0.8; stroke-linejoin: miter; stroke-linecap: square"/>
   </g>
   <g id="patch_5">
    <path d="M 50.137685 2080.199373 
L 1217.79 2080.199373 
" style="fill: none; stroke: #000000; stroke-width: 0.8; stroke-linejoin: miter; stroke-linecap: square"/>
   </g>
   <g id="patch_6">
    <path d="M 50.137685 10.8 
L 1217.79 10.8 
" style="fill: none; stroke: #000000; stroke-width: 0.8; stroke-linejoin: miter; stroke-linecap: square"/>
   </g>
   <g id="text_16">
    <!-- Paolitosss -->
    <g style="fill: #ffff00" transform="translate(1241.143046 905.283662) scale(0.1 -0.1)">
     <defs>
      <path id="DejaVuSans-Bold-50" d="M 588 4666 
L 2584 4666 
Q 3475 4666 3951 4270 
Q 4428 3875 4428 3144 
Q 4428 2409 3951 2014 
Q 3475 1619 2584 1619 
L 1791 1619 
L 1791 0 
L 588 0 
L 588 4666 
z
M 1791 3794 
L 1791 2491 
L 2456 2491 
Q 2806 2491 2997 2661 
Q 3188 2831 3188 3144 
Q 3188 3456 2997 3625 
Q 2806 3794 2456 3794 
L 1791 3794 
z
" transform="scale(0.015625)"/>
      <path id="DejaVuSans-Bold-61" d="M 2106 1575 
Q 1756 1575 1579 1456 
Q 1403 1338 1403 1106 
Q 1403 894 1545 773 
Q 1688 653 1941 653 
Q 2256 653 2472 879 
Q 2688 1106 2688 1447 
L 2688 1575 
L 2106 1575 
z
M 3816 1997 
L 3816 0 
L 2688 0 
L 2688 519 
Q 2463 200 2181 54 
Q 1900 -91 1497 -91 
Q 953 -91 614 226 
Q 275 544 275 1050 
Q 275 1666 698 1953 
Q 1122 2241 2028 2241 
L 2688 2241 
L 2688 2328 
Q 2688 2594 2478 2717 
Q 2269 2841 1825 2841 
Q 1466 2841 1156 2769 
Q 847 2697 581 2553 
L 581 3406 
Q 941 3494 1303 3539 
Q 1666 3584 2028 3584 
Q 2975 3584 3395 3211 
Q 3816 2838 3816 1997 
z
" transform="scale(0.015625)"/>
      <path id="DejaVuSans-Bold-6f" d="M 2203 2784 
Q 1831 2784 1636 2517 
Q 1441 2250 1441 1747 
Q 1441 1244 1636 976 
Q 1831 709 2203 709 
Q 2569 709 2762 976 
Q 2956 1244 2956 1747 
Q 2956 2250 2762 2517 
Q 2569 2784 2203 2784 
z
M 2203 3584 
Q 3106 3584 3614 3096 
Q 4122 2609 4122 1747 
Q 4122 884 3614 396 
Q 3106 -91 2203 -91 
Q 1297 -91 786 396 
Q 275 884 275 1747 
Q 275 2609 786 3096 
Q 1297 3584 2203 3584 
z
" transform="scale(0.015625)"/>
      <path id="DejaVuSans-Bold-6c" d="M 538 4863 
L 1656 4863 
L 1656 0 
L 538 0 
L 538 4863 
z
" transform="scale(0.015625)"/>
      <path id="DejaVuSans-Bold-69" d="M 538 3500 
L 1656 3500 
L 1656 0 
L 538 0 
L 538 3500 
z
M 538 4863 
L 1656 4863 
L 1656 3950 
L 538 3950 
L 538 4863 
z
" transform="scale(0.015625)"/>
      <path id="DejaVuSans-Bold-74" d="M 1759 4494 
L 1759 3500 
L 2913 3500 
L 2913 2700 
L 1759 2700 
L 1759 1216 
Q 1759 972 1856 886 
Q 1953 800 2241 800 
L 2816 800 
L 2816 0 
L 1856 0 
Q 1194 0 917 276 
Q 641 553 641 1216 
L 641 2700 
L 84 2700 
L 84 3500 
L 641 3500 
L 641 4494 
L 1759 4494 
z
" transform="scale(0.015625)"/>
      <path id="DejaVuSans-Bold-73" d="M 3272 3391 
L 3272 2541 
Q 2913 2691 2578 2766 
Q 2244 2841 1947 2841 
Q 1628 2841 1473 2761 
Q 1319 2681 1319 2516 
Q 1319 2381 1436 2309 
Q 1553 2238 1856 2203 
L 2053 2175 
Q 2913 2066 3209 1816 
Q 3506 1566 3506 1031 
Q 3506 472 3093 190 
Q 2681 -91 1863 -91 
Q 1516 -91 1145 -36 
Q 775 19 384 128 
L 384 978 
Q 719 816 1070 734 
Q 1422 653 1784 653 
Q 2113 653 2278 743 
Q 2444 834 2444 1013 
Q 2444 1163 2330 1236 
Q 2216 1309 1875 1350 
L 1678 1375 
Q 931 1469 631 1722 
Q 331 1975 331 2491 
Q 331 3047 712 3315 
Q 1094 3584 1881 3584 
Q 2191 3584 2531 3537 
Q 2872 3491 3272 3391 
z
" transform="scale(0.015625)"/>
     </defs>
     <use xlink:href="#DejaVuSans-Bold-50"/>
     <use xlink:href="#DejaVuSans-Bold-61" transform="translate(70.666016 0)"/>
     <use xlink:href="#DejaVuSans-Bold-6f" transform="translate(138.146484 0)"/>
     <use xlink:href="#DejaVuSans-Bold-6c" transform="translate(206.847656 0)"/>
     <use xlink:href="#DejaVuSans-Bold-69" transform="translate(241.125 0)"/>
     <use xlink:href="#DejaVuSans-Bold-74" transform="translate(275.402344 0)"/>
     <use xlink:href="#DejaVuSans-Bold-6f" transform="translate(323.205078 0)"/>
     <use xlink:href="#DejaVuSans-Bold-73" transform="translate(391.90625 0)"/>
     <use xlink:href="#DejaVuSans-Bold-73" transform="translate(451.427734 0)"/>
     <use xlink:href="#DejaVuSans-Bold-73" transform="translate(510.949219 0)"/>
    </g>
   </g>
   <g id="text_17">
    <!-- alesarrett -->
    <g style="fill: #ff00ff" transform="translate(1241.143046 883.311609) scale(0.1 -0.1)">
     <defs>
      <path id="DejaVuSans-Bold-65" d="M 4031 1759 
L 4031 1441 
L 1416 1441 
Q 1456 1047 1700 850 
Q 1944 653 2381 653 
Q 2734 653 3104 758 
Q 3475 863 3866 1075 
L 3866 213 
Q 3469 63 3072 -14 
Q 2675 -91 2278 -91 
Q 1328 -91 801 392 
Q 275 875 275 1747 
Q 275 2603 792 3093 
Q 1309 3584 2216 3584 
Q 3041 3584 3536 3087 
Q 4031 2591 4031 1759 
z
M 2881 2131 
Q 2881 2450 2695 2645 
Q 2509 2841 2209 2841 
Q 1884 2841 1681 2658 
Q 1478 2475 1428 2131 
L 2881 2131 
z
" transform="scale(0.015625)"/>
      <path id="DejaVuSans-Bold-72" d="M 3138 2547 
Q 2991 2616 2845 2648 
Q 2700 2681 2553 2681 
Q 2122 2681 1889 2404 
Q 1656 2128 1656 1613 
L 1656 0 
L 538 0 
L 538 3500 
L 1656 3500 
L 1656 2925 
Q 1872 3269 2151 3426 
Q 2431 3584 2822 3584 
Q 2878 3584 2943 3579 
Q 3009 3575 3134 3559 
L 3138 2547 
z
" transform="scale(0.015625)"/>
     </defs>
     <use xlink:href="#DejaVuSans-Bold-61"/>
     <use xlink:href="#DejaVuSans-Bold-6c" transform="translate(67.480469 0)"/>
     <use xlink:href="#DejaVuSans-Bold-65" transform="translate(101.757812 0)"/>
     <use xlink:href="#DejaVuSans-Bold-73" transform="translate(169.580078 0)"/>
     <use xlink:href="#DejaVuSans-Bold-61" transform="translate(229.101562 0)"/>
     <use xlink:href="#DejaVuSans-Bold-72" transform="translate(296.582031 0)"/>
     <use xlink:href="#DejaVuSans-Bold-72" transform="translate(345.898438 0)"/>
     <use xlink:href="#DejaVuSans-Bold-65" transform="translate(395.214844 0)"/>
     <use xlink:href="#DejaVuSans-Bold-74" transform="translate(463.037109 0)"/>
     <use xlink:href="#DejaVuSans-Bold-74" transform="translate(510.839844 0)"/>
    </g>
   </g>
   <g id="text_18">
    <!-- sotismovedon -->
    <g style="fill: #00ffff" transform="translate(1241.143046 860.36016) scale(0.1 -0.1)">
     <defs>
      <path id="DejaVuSans-Bold-6d" d="M 3781 2919 
Q 3994 3244 4286 3414 
Q 4578 3584 4928 3584 
Q 5531 3584 5847 3212 
Q 6163 2841 6163 2131 
L 6163 0 
L 5038 0 
L 5038 1825 
Q 5041 1866 5042 1909 
Q 5044 1953 5044 2034 
Q 5044 2406 4934 2573 
Q 4825 2741 4581 2741 
Q 4263 2741 4089 2478 
Q 3916 2216 3909 1719 
L 3909 0 
L 2784 0 
L 2784 1825 
Q 2784 2406 2684 2573 
Q 2584 2741 2328 2741 
Q 2006 2741 1831 2477 
Q 1656 2213 1656 1722 
L 1656 0 
L 531 0 
L 531 3500 
L 1656 3500 
L 1656 2988 
Q 1863 3284 2130 3434 
Q 2397 3584 2719 3584 
Q 3081 3584 3359 3409 
Q 3638 3234 3781 2919 
z
" transform="scale(0.015625)"/>
      <path id="DejaVuSans-Bold-76" d="M 97 3500 
L 1216 3500 
L 2088 1081 
L 2956 3500 
L 4078 3500 
L 2700 0 
L 1472 0 
L 97 3500 
z
" transform="scale(0.015625)"/>
      <path id="DejaVuSans-Bold-64" d="M 2919 2988 
L 2919 4863 
L 4044 4863 
L 4044 0 
L 2919 0 
L 2919 506 
Q 2688 197 2409 53 
Q 2131 -91 1766 -91 
Q 1119 -91 703 423 
Q 288 938 288 1747 
Q 288 2556 703 3070 
Q 1119 3584 1766 3584 
Q 2128 3584 2408 3439 
Q 2688 3294 2919 2988 
z
M 2181 722 
Q 2541 722 2730 984 
Q 2919 1247 2919 1747 
Q 2919 2247 2730 2509 
Q 2541 2772 2181 2772 
Q 1825 2772 1636 2509 
Q 1447 2247 1447 1747 
Q 1447 1247 1636 984 
Q 1825 722 2181 722 
z
" transform="scale(0.015625)"/>
      <path id="DejaVuSans-Bold-6e" d="M 4056 2131 
L 4056 0 
L 2931 0 
L 2931 347 
L 2931 1631 
Q 2931 2084 2911 2256 
Q 2891 2428 2841 2509 
Q 2775 2619 2662 2680 
Q 2550 2741 2406 2741 
Q 2056 2741 1856 2470 
Q 1656 2200 1656 1722 
L 1656 0 
L 538 0 
L 538 3500 
L 1656 3500 
L 1656 2988 
Q 1909 3294 2193 3439 
Q 2478 3584 2822 3584 
Q 3428 3584 3742 3212 
Q 4056 2841 4056 2131 
z
" transform="scale(0.015625)"/>
     </defs>
     <use xlink:href="#DejaVuSans-Bold-73"/>
     <use xlink:href="#DejaVuSans-Bold-6f" transform="translate(59.521484 0)"/>
     <use xlink:href="#DejaVuSans-Bold-74" transform="translate(128.222656 0)"/>
     <use xlink:href="#DejaVuSans-Bold-69" transform="translate(176.025391 0)"/>
     <use xlink:href="#DejaVuSans-Bold-73" transform="translate(210.302734 0)"/>
     <use xlink:href="#DejaVuSans-Bold-6d" transform="translate(269.824219 0)"/>
     <use xlink:href="#DejaVuSans-Bold-6f" transform="translate(374.023438 0)"/>
     <use xlink:href="#DejaVuSans-Bold-76" transform="translate(442.724609 0)"/>
     <use xlink:href="#DejaVuSans-Bold-65" transform="translate(507.910156 0)"/>
     <use xlink:href="#DejaVuSans-Bold-64" transform="translate(575.732422 0)"/>
     <use xlink:href="#DejaVuSans-Bold-6f" transform="translate(647.314453 0)"/>
     <use xlink:href="#DejaVuSans-Bold-6e" transform="translate(716.015625 0)"/>
    </g>
   </g>
   <g id="text_19">
    <!-- jacopofar -->
    <g style="fill: #ff0000" transform="translate(1241.143046 838.349045) scale(0.1 -0.1)">
     <defs>
      <path id="DejaVuSans-Bold-6a" d="M 538 3500 
L 1656 3500 
L 1656 63 
Q 1656 -641 1318 -1011 
Q 981 -1381 341 -1381 
L -213 -1381 
L -213 -647 
L -19 -647 
Q 300 -647 419 -503 
Q 538 -359 538 63 
L 538 3500 
z
M 538 4863 
L 1656 4863 
L 1656 3950 
L 538 3950 
L 538 4863 
z
" transform="scale(0.015625)"/>
      <path id="DejaVuSans-Bold-63" d="M 3366 3391 
L 3366 2478 
Q 3138 2634 2908 2709 
Q 2678 2784 2431 2784 
Q 1963 2784 1702 2511 
Q 1441 2238 1441 1747 
Q 1441 1256 1702 982 
Q 1963 709 2431 709 
Q 2694 709 2930 787 
Q 3166 866 3366 1019 
L 3366 103 
Q 3103 6 2833 -42 
Q 2563 -91 2291 -91 
Q 1344 -91 809 395 
Q 275 881 275 1747 
Q 275 2613 809 3098 
Q 1344 3584 2291 3584 
Q 2566 3584 2833 3536 
Q 3100 3488 3366 3391 
z
" transform="scale(0.015625)"/>
      <path id="DejaVuSans-Bold-70" d="M 1656 506 
L 1656 -1331 
L 538 -1331 
L 538 3500 
L 1656 3500 
L 1656 2988 
Q 1888 3294 2169 3439 
Q 2450 3584 2816 3584 
Q 3463 3584 3878 3070 
Q 4294 2556 4294 1747 
Q 4294 938 3878 423 
Q 3463 -91 2816 -91 
Q 2450 -91 2169 54 
Q 1888 200 1656 506 
z
M 2400 2772 
Q 2041 2772 1848 2508 
Q 1656 2244 1656 1747 
Q 1656 1250 1848 986 
Q 2041 722 2400 722 
Q 2759 722 2948 984 
Q 3138 1247 3138 1747 
Q 3138 2247 2948 2509 
Q 2759 2772 2400 2772 
z
" transform="scale(0.015625)"/>
      <path id="DejaVuSans-Bold-66" d="M 2841 4863 
L 2841 4128 
L 2222 4128 
Q 1984 4128 1890 4042 
Q 1797 3956 1797 3744 
L 1797 3500 
L 2753 3500 
L 2753 2700 
L 1797 2700 
L 1797 0 
L 678 0 
L 678 2700 
L 122 2700 
L 122 3500 
L 678 3500 
L 678 3744 
Q 678 4316 997 4589 
Q 1316 4863 1984 4863 
L 2841 4863 
z
" transform="scale(0.015625)"/>
     </defs>
     <use xlink:href="#DejaVuSans-Bold-6a"/>
     <use xlink:href="#DejaVuSans-Bold-61" transform="translate(34.277344 0)"/>
     <use xlink:href="#DejaVuSans-Bold-63" transform="translate(101.757812 0)"/>
     <use xlink:href="#DejaVuSans-Bold-6f" transform="translate(161.035156 0)"/>
     <use xlink:href="#DejaVuSans-Bold-70" transform="translate(229.736328 0)"/>
     <use xlink:href="#DejaVuSans-Bold-6f" transform="translate(301.318359 0)"/>
     <use xlink:href="#DejaVuSans-Bold-66" transform="translate(370.019531 0)"/>
     <use xlink:href="#DejaVuSans-Bold-61" transform="translate(413.525391 0)"/>
     <use xlink:href="#DejaVuSans-Bold-72" transform="translate(481.005859 0)"/>
    </g>
   </g>
   <g id="text_20">
    <!-- Caramell -->
    <g style="fill: #008000" transform="translate(1241.143046 816.416054) scale(0.1 -0.1)">
     <defs>
      <path id="DejaVuSans-Bold-43" d="M 4288 256 
Q 3956 84 3597 -3 
Q 3238 -91 2847 -91 
Q 1681 -91 1000 561 
Q 319 1213 319 2328 
Q 319 3447 1000 4098 
Q 1681 4750 2847 4750 
Q 3238 4750 3597 4662 
Q 3956 4575 4288 4403 
L 4288 3438 
Q 3953 3666 3628 3772 
Q 3303 3878 2944 3878 
Q 2300 3878 1931 3465 
Q 1563 3053 1563 2328 
Q 1563 1606 1931 1193 
Q 2300 781 2944 781 
Q 3303 781 3628 887 
Q 3953 994 4288 1222 
L 4288 256 
z
" transform="scale(0.015625)"/>
     </defs>
     <use xlink:href="#DejaVuSans-Bold-43"/>
     <use xlink:href="#DejaVuSans-Bold-61" transform="translate(73.388672 0)"/>
     <use xlink:href="#DejaVuSans-Bold-72" transform="translate(140.869141 0)"/>
     <use xlink:href="#DejaVuSans-Bold-61" transform="translate(190.185547 0)"/>
     <use xlink:href="#DejaVuSans-Bold-6d" transform="translate(257.666016 0)"/>
     <use xlink:href="#DejaVuSans-Bold-65" transform="translate(361.865234 0)"/>
     <use xlink:href="#DejaVuSans-Bold-6c" transform="translate(429.6875 0)"/>
     <use xlink:href="#DejaVuSans-Bold-6c" transform="translate(463.964844 0)"/>
    </g>
   </g>
   <g id="text_21">
    <!-- nicola_yubo -->
    <g style="fill: #0000ff" transform="translate(1241.143046 794.304938) scale(0.1 -0.1)">
     <defs>
      <path id="DejaVuSans-Bold-5f" d="M 3200 -916 
L 3200 -1509 
L 0 -1509 
L 0 -916 
L 3200 -916 
z
" transform="scale(0.015625)"/>
      <path id="DejaVuSans-Bold-79" d="M 78 3500 
L 1197 3500 
L 2138 1125 
L 2938 3500 
L 4056 3500 
L 2584 -331 
Q 2363 -916 2067 -1148 
Q 1772 -1381 1288 -1381 
L 641 -1381 
L 641 -647 
L 991 -647 
Q 1275 -647 1404 -556 
Q 1534 -466 1606 -231 
L 1638 -134 
L 78 3500 
z
" transform="scale(0.015625)"/>
      <path id="DejaVuSans-Bold-75" d="M 500 1363 
L 500 3500 
L 1625 3500 
L 1625 3150 
Q 1625 2866 1622 2436 
Q 1619 2006 1619 1863 
Q 1619 1441 1641 1255 
Q 1663 1069 1716 984 
Q 1784 875 1895 815 
Q 2006 756 2150 756 
Q 2500 756 2700 1025 
Q 2900 1294 2900 1772 
L 2900 3500 
L 4019 3500 
L 4019 0 
L 2900 0 
L 2900 506 
Q 2647 200 2364 54 
Q 2081 -91 1741 -91 
Q 1134 -91 817 281 
Q 500 653 500 1363 
z
" transform="scale(0.015625)"/>
      <path id="DejaVuSans-Bold-62" d="M 2400 722 
Q 2759 722 2948 984 
Q 3138 1247 3138 1747 
Q 3138 2247 2948 2509 
Q 2759 2772 2400 2772 
Q 2041 2772 1848 2508 
Q 1656 2244 1656 1747 
Q 1656 1250 1848 986 
Q 2041 722 2400 722 
z
M 1656 2988 
Q 1888 3294 2169 3439 
Q 2450 3584 2816 3584 
Q 3463 3584 3878 3070 
Q 4294 2556 4294 1747 
Q 4294 938 3878 423 
Q 3463 -91 2816 -91 
Q 2450 -91 2169 54 
Q 1888 200 1656 506 
L 1656 0 
L 538 0 
L 538 4863 
L 1656 4863 
L 1656 2988 
z
" transform="scale(0.015625)"/>
     </defs>
     <use xlink:href="#DejaVuSans-Bold-6e"/>
     <use xlink:href="#DejaVuSans-Bold-69" transform="translate(71.191406 0)"/>
     <use xlink:href="#DejaVuSans-Bold-63" transform="translate(105.46875 0)"/>
     <use xlink:href="#DejaVuSans-Bold-6f" transform="translate(164.746094 0)"/>
     <use xlink:href="#DejaVuSans-Bold-6c" transform="translate(233.447266 0)"/>
     <use xlink:href="#DejaVuSans-Bold-61" transform="translate(267.724609 0)"/>
     <use xlink:href="#DejaVuSans-Bold-5f" transform="translate(335.205078 0)"/>
     <use xlink:href="#DejaVuSans-Bold-79" transform="translate(385.205078 0)"/>
     <use xlink:href="#DejaVuSans-Bold-75" transform="translate(450.390625 0)"/>
     <use xlink:href="#DejaVuSans-Bold-62" transform="translate(521.582031 0)"/>
     <use xlink:href="#DejaVuSans-Bold-6f" transform="translate(593.164062 0)"/>
    </g>
   </g>
   <g id="text_22">
    <!-- OpenCode -->
    <g transform="translate(1241.143046 772.471948) scale(0.1 -0.1)">
     <defs>
      <path id="DejaVuSans-Bold-4f" d="M 2719 3878 
Q 2169 3878 1866 3472 
Q 1563 3066 1563 2328 
Q 1563 1594 1866 1187 
Q 2169 781 2719 781 
Q 3272 781 3575 1187 
Q 3878 1594 3878 2328 
Q 3878 3066 3575 3472 
Q 3272 3878 2719 3878 
z
M 2719 4750 
Q 3844 4750 4481 4106 
Q 5119 3463 5119 2328 
Q 5119 1197 4481 553 
Q 3844 -91 2719 -91 
Q 1597 -91 958 553 
Q 319 1197 319 2328 
Q 319 3463 958 4106 
Q 1597 4750 2719 4750 
z
" transform="scale(0.015625)"/>
     </defs>
     <use xlink:href="#DejaVuSans-Bold-4f"/>
     <use xlink:href="#DejaVuSans-Bold-70" transform="translate(85.009766 0)"/>
     <use xlink:href="#DejaVuSans-Bold-65" transform="translate(156.591797 0)"/>
     <use xlink:href="#DejaVuSans-Bold-6e" transform="translate(224.414062 0)"/>
     <use xlink:href="#DejaVuSans-Bold-43" transform="translate(295.605469 0)"/>
     <use xlink:href="#DejaVuSans-Bold-6f" transform="translate(368.994141 0)"/>
     <use xlink:href="#DejaVuSans-Bold-64" transform="translate(437.695312 0)"/>
     <use xlink:href="#DejaVuSans-Bold-65" transform="translate(509.277344 0)"/>
    </g>
   </g>
   <g id="text_23">
    <!-- AlessioMela -->
    <g style="fill: #ffff00" transform="translate(1241.143046 750.499894) scale(0.1 -0.1)">
     <defs>
      <path id="DejaVuSans-Bold-41" d="M 3419 850 
L 1538 850 
L 1241 0 
L 31 0 
L 1759 4666 
L 3194 4666 
L 4922 0 
L 3713 0 
L 3419 850 
z
M 1838 1716 
L 3116 1716 
L 2478 3572 
L 1838 1716 
z
" transform="scale(0.015625)"/>
      <path id="DejaVuSans-Bold-4d" d="M 588 4666 
L 2119 4666 
L 3181 2169 
L 4250 4666 
L 5778 4666 
L 5778 0 
L 4641 0 
L 4641 3413 
L 3566 897 
L 2803 897 
L 1728 3413 
L 1728 0 
L 588 0 
L 588 4666 
z
" transform="scale(0.015625)"/>
     </defs>
     <use xlink:href="#DejaVuSans-Bold-41"/>
     <use xlink:href="#DejaVuSans-Bold-6c" transform="translate(77.392578 0)"/>
     <use xlink:href="#DejaVuSans-Bold-65" transform="translate(111.669922 0)"/>
     <use xlink:href="#DejaVuSans-Bold-73" transform="translate(179.492188 0)"/>
     <use xlink:href="#DejaVuSans-Bold-73" transform="translate(239.013672 0)"/>
     <use xlink:href="#DejaVuSans-Bold-69" transform="translate(298.535156 0)"/>
     <use xlink:href="#DejaVuSans-Bold-6f" transform="translate(332.8125 0)"/>
     <use xlink:href="#DejaVuSans-Bold-4d" transform="translate(401.513672 0)"/>
     <use xlink:href="#DejaVuSans-Bold-65" transform="translate(501.025391 0)"/>
     <use xlink:href="#DejaVuSans-Bold-6c" transform="translate(568.847656 0)"/>
     <use xlink:href="#DejaVuSans-Bold-61" transform="translate(603.125 0)"/>
    </g>
   </g>
   <g id="text_24">
    <!-- DnaX -->
    <g style="fill: #ff00ff" transform="translate(1241.143046 728.527841) scale(0.1 -0.1)">
     <defs>
      <path id="DejaVuSans-Bold-44" d="M 1791 3756 
L 1791 909 
L 2222 909 
Q 2959 909 3348 1275 
Q 3738 1641 3738 2338 
Q 3738 3031 3350 3393 
Q 2963 3756 2222 3756 
L 1791 3756 
z
M 588 4666 
L 1856 4666 
Q 2919 4666 3439 4514 
Q 3959 4363 4331 4000 
Q 4659 3684 4818 3271 
Q 4978 2859 4978 2338 
Q 4978 1809 4818 1395 
Q 4659 981 4331 666 
Q 3956 303 3431 151 
Q 2906 0 1856 0 
L 588 0 
L 588 4666 
z
" transform="scale(0.015625)"/>
      <path id="DejaVuSans-Bold-58" d="M 3188 2381 
L 4806 0 
L 3553 0 
L 2463 1594 
L 1381 0 
L 122 0 
L 1741 2381 
L 184 4666 
L 1441 4666 
L 2463 3163 
L 3481 4666 
L 4744 4666 
L 3188 2381 
z
" transform="scale(0.015625)"/>
     </defs>
     <use xlink:href="#DejaVuSans-Bold-44"/>
     <use xlink:href="#DejaVuSans-Bold-6e" transform="translate(83.007812 0)"/>
     <use xlink:href="#DejaVuSans-Bold-61" transform="translate(154.199219 0)"/>
     <use xlink:href="#DejaVuSans-Bold-58" transform="translate(221.679688 0)"/>
    </g>
   </g>
   <g id="text_25">
    <!-- mircozorzo -->
    <g style="fill: #00ffff" transform="translate(1241.143046 706.555788) scale(0.1 -0.1)">
     <defs>
      <path id="DejaVuSans-Bold-7a" d="M 366 3500 
L 3419 3500 
L 3419 2719 
L 1575 800 
L 3419 800 
L 3419 0 
L 288 0 
L 288 781 
L 2131 2700 
L 366 2700 
L 366 3500 
z
" transform="scale(0.015625)"/>
     </defs>
     <use xlink:href="#DejaVuSans-Bold-6d"/>
     <use xlink:href="#DejaVuSans-Bold-69" transform="translate(104.199219 0)"/>
     <use xlink:href="#DejaVuSans-Bold-72" transform="translate(138.476562 0)"/>
     <use xlink:href="#DejaVuSans-Bold-63" transform="translate(187.792969 0)"/>
     <use xlink:href="#DejaVuSans-Bold-6f" transform="translate(247.070312 0)"/>
     <use xlink:href="#DejaVuSans-Bold-7a" transform="translate(315.771484 0)"/>
     <use xlink:href="#DejaVuSans-Bold-6f" transform="translate(373.974609 0)"/>
     <use xlink:href="#DejaVuSans-Bold-72" transform="translate(442.675781 0)"/>
     <use xlink:href="#DejaVuSans-Bold-7a" transform="translate(491.992188 0)"/>
     <use xlink:href="#DejaVuSans-Bold-6f" transform="translate(550.195312 0)"/>
    </g>
   </g>
   <g id="text_26">
    <!-- AlexTies -->
    <g style="fill: #ff0000" transform="translate(1241.143046 684.583735) scale(0.1 -0.1)">
     <defs>
      <path id="DejaVuSans-Bold-78" d="M 1422 1791 
L 159 3500 
L 1344 3500 
L 2059 2463 
L 2784 3500 
L 3969 3500 
L 2706 1797 
L 4031 0 
L 2847 0 
L 2059 1106 
L 1281 0 
L 97 0 
L 1422 1791 
z
" transform="scale(0.015625)"/>
      <path id="DejaVuSans-Bold-54" d="M 31 4666 
L 4331 4666 
L 4331 3756 
L 2784 3756 
L 2784 0 
L 1581 0 
L 1581 3756 
L 31 3756 
L 31 4666 
z
" transform="scale(0.015625)"/>
     </defs>
     <use xlink:href="#DejaVuSans-Bold-41"/>
     <use xlink:href="#DejaVuSans-Bold-6c" transform="translate(77.392578 0)"/>
     <use xlink:href="#DejaVuSans-Bold-65" transform="translate(111.669922 0)"/>
     <use xlink:href="#DejaVuSans-Bold-78" transform="translate(179.492188 0)"/>
     <use xlink:href="#DejaVuSans-Bold-54" transform="translate(243.994141 0)"/>
     <use xlink:href="#DejaVuSans-Bold-69" transform="translate(312.207031 0)"/>
     <use xlink:href="#DejaVuSans-Bold-65" transform="translate(346.484375 0)"/>
     <use xlink:href="#DejaVuSans-Bold-73" transform="translate(414.306641 0)"/>
    </g>
   </g>
   <g id="text_27">
    <!-- alessandrocarmeli -->
    <g style="fill: #008000" transform="translate(1241.143046 662.611681) scale(0.1 -0.1)">
     <use xlink:href="#DejaVuSans-Bold-61"/>
     <use xlink:href="#DejaVuSans-Bold-6c" transform="translate(67.480469 0)"/>
     <use xlink:href="#DejaVuSans-Bold-65" transform="translate(101.757812 0)"/>
     <use xlink:href="#DejaVuSans-Bold-73" transform="translate(169.580078 0)"/>
     <use xlink:href="#DejaVuSans-Bold-73" transform="translate(229.101562 0)"/>
     <use xlink:href="#DejaVuSans-Bold-61" transform="translate(288.623047 0)"/>
     <use xlink:href="#DejaVuSans-Bold-6e" transform="translate(356.103516 0)"/>
     <use xlink:href="#DejaVuSans-Bold-64" transform="translate(427.294922 0)"/>
     <use xlink:href="#DejaVuSans-Bold-72" transform="translate(498.876953 0)"/>
     <use xlink:href="#DejaVuSans-Bold-6f" transform="translate(548.193359 0)"/>
     <use xlink:href="#DejaVuSans-Bold-63" transform="translate(616.894531 0)"/>
     <use xlink:href="#DejaVuSans-Bold-61" transform="translate(676.171875 0)"/>
     <use xlink:href="#DejaVuSans-Bold-72" transform="translate(743.652344 0)"/>
     <use xlink:href="#DejaVuSans-Bold-6d" transform="translate(792.96875 0)"/>
     <use xlink:href="#DejaVuSans-Bold-65" transform="translate(897.167969 0)"/>
     <use xlink:href="#DejaVuSans-Bold-6c" transform="translate(964.990234 0)"/>
     <use xlink:href="#DejaVuSans-Bold-69" transform="translate(999.267578 0)"/>
    </g>
   </g>
   <g id="text_28">
    <!-- Yiyi -->
    <g style="fill: #0000ff" transform="translate(1241.143046 640.600566) scale(0.1 -0.1)">
     <defs>
      <path id="DejaVuSans-Bold-59" d="M -63 4666 
L 1253 4666 
L 2316 3003 
L 3378 4666 
L 4697 4666 
L 2919 1966 
L 2919 0 
L 1716 0 
L 1716 1966 
L -63 4666 
z
" transform="scale(0.015625)"/>
     </defs>
     <use xlink:href="#DejaVuSans-Bold-59"/>
     <use xlink:href="#DejaVuSans-Bold-69" transform="translate(72.412109 0)"/>
     <use xlink:href="#DejaVuSans-Bold-79" transform="translate(106.689453 0)"/>
     <use xlink:href="#DejaVuSans-Bold-69" transform="translate(171.875 0)"/>
    </g>
   </g>
   <g id="text_29">
    <!-- MarcoR -->
    <g transform="translate(1241.143046 613.310019) scale(0.1 -0.1)">
     <defs>
      <path id="DejaVuSans-Bold-52" d="M 2297 2597 
Q 2675 2597 2839 2737 
Q 3003 2878 3003 3200 
Q 3003 3519 2839 3656 
Q 2675 3794 2297 3794 
L 1791 3794 
L 1791 2597 
L 2297 2597 
z
M 1791 1766 
L 1791 0 
L 588 0 
L 588 4666 
L 2425 4666 
Q 3347 4666 3776 4356 
Q 4206 4047 4206 3378 
Q 4206 2916 3982 2619 
Q 3759 2322 3309 2181 
Q 3556 2125 3751 1926 
Q 3947 1728 4147 1325 
L 4800 0 
L 3519 0 
L 2950 1159 
Q 2778 1509 2601 1637 
Q 2425 1766 2131 1766 
L 1791 1766 
z
" transform="scale(0.015625)"/>
     </defs>
     <use xlink:href="#DejaVuSans-Bold-4d"/>
     <use xlink:href="#DejaVuSans-Bold-61" transform="translate(99.511719 0)"/>
     <use xlink:href="#DejaVuSans-Bold-72" transform="translate(166.992188 0)"/>
     <use xlink:href="#DejaVuSans-Bold-63" transform="translate(216.308594 0)"/>
     <use xlink:href="#DejaVuSans-Bold-6f" transform="translate(275.585938 0)"/>
     <use xlink:href="#DejaVuSans-Bold-52" transform="translate(344.287109 0)"/>
    </g>
   </g>
   <g id="text_30">
    <!-- toponomastica_comune_arenzano -->
    <g style="fill: #ffff00" transform="translate(1241.143046 591.198903) scale(0.1 -0.1)">
     <use xlink:href="#DejaVuSans-Bold-74"/>
     <use xlink:href="#DejaVuSans-Bold-6f" transform="translate(47.802734 0)"/>
     <use xlink:href="#DejaVuSans-Bold-70" transform="translate(116.503906 0)"/>
     <use xlink:href="#DejaVuSans-Bold-6f" transform="translate(188.085938 0)"/>
     <use xlink:href="#DejaVuSans-Bold-6e" transform="translate(256.787109 0)"/>
     <use xlink:href="#DejaVuSans-Bold-6f" transform="translate(327.978516 0)"/>
     <use xlink:href="#DejaVuSans-Bold-6d" transform="translate(396.679688 0)"/>
     <use xlink:href="#DejaVuSans-Bold-61" transform="translate(500.878906 0)"/>
     <use xlink:href="#DejaVuSans-Bold-73" transform="translate(568.359375 0)"/>
     <use xlink:href="#DejaVuSans-Bold-74" transform="translate(627.880859 0)"/>
     <use xlink:href="#DejaVuSans-Bold-69" transform="translate(675.683594 0)"/>
     <use xlink:href="#DejaVuSans-Bold-63" transform="translate(709.960938 0)"/>
     <use xlink:href="#DejaVuSans-Bold-61" transform="translate(769.238281 0)"/>
     <use xlink:href="#DejaVuSans-Bold-5f" transform="translate(836.71875 0)"/>
     <use xlink:href="#DejaVuSans-Bold-63" transform="translate(886.71875 0)"/>
     <use xlink:href="#DejaVuSans-Bold-6f" transform="translate(945.996094 0)"/>
     <use xlink:href="#DejaVuSans-Bold-6d" transform="translate(1014.697266 0)"/>
     <use xlink:href="#DejaVuSans-Bold-75" transform="translate(1118.896484 0)"/>
     <use xlink:href="#DejaVuSans-Bold-6e" transform="translate(1190.087891 0)"/>
     <use xlink:href="#DejaVuSans-Bold-65" transform="translate(1261.279297 0)"/>
     <use xlink:href="#DejaVuSans-Bold-5f" transform="translate(1329.101562 0)"/>
     <use xlink:href="#DejaVuSans-Bold-61" transform="translate(1379.101562 0)"/>
     <use xlink:href="#DejaVuSans-Bold-72" transform="translate(1446.582031 0)"/>
     <use xlink:href="#DejaVuSans-Bold-65" transform="translate(1495.898438 0)"/>
     <use xlink:href="#DejaVuSans-Bold-6e" transform="translate(1563.720703 0)"/>
     <use xlink:href="#DejaVuSans-Bold-7a" transform="translate(1634.912109 0)"/>
     <use xlink:href="#DejaVuSans-Bold-61" transform="translate(1693.115234 0)"/>
     <use xlink:href="#DejaVuSans-Bold-6e" transform="translate(1760.595703 0)"/>
     <use xlink:href="#DejaVuSans-Bold-6f" transform="translate(1831.787109 0)"/>
    </g>
   </g>
   <g id="text_31">
    <!-- Clown Pennywise -->
    <g style="fill: #ff00ff" transform="translate(1241.143046 569.32685) scale(0.1 -0.1)">
     <defs>
      <path id="DejaVuSans-Bold-77" d="M 225 3500 
L 1313 3500 
L 1900 1088 
L 2491 3500 
L 3425 3500 
L 4013 1113 
L 4603 3500 
L 5691 3500 
L 4769 0 
L 3547 0 
L 2956 2406 
L 2369 0 
L 1147 0 
L 225 3500 
z
" transform="scale(0.015625)"/>
      <path id="DejaVuSans-Bold-20" transform="scale(0.015625)"/>
     </defs>
     <use xlink:href="#DejaVuSans-Bold-43"/>
     <use xlink:href="#DejaVuSans-Bold-6c" transform="translate(73.388672 0)"/>
     <use xlink:href="#DejaVuSans-Bold-6f" transform="translate(107.666016 0)"/>
     <use xlink:href="#DejaVuSans-Bold-77" transform="translate(176.367188 0)"/>
     <use xlink:href="#DejaVuSans-Bold-6e" transform="translate(268.75 0)"/>
     <use xlink:href="#DejaVuSans-Bold-20" transform="translate(339.941406 0)"/>
     <use xlink:href="#DejaVuSans-Bold-50" transform="translate(374.755859 0)"/>
     <use xlink:href="#DejaVuSans-Bold-65" transform="translate(448.046875 0)"/>
     <use xlink:href="#DejaVuSans-Bold-6e" transform="translate(515.869141 0)"/>
     <use xlink:href="#DejaVuSans-Bold-6e" transform="translate(587.060547 0)"/>
     <use xlink:href="#DejaVuSans-Bold-79" transform="translate(658.251953 0)"/>
     <use xlink:href="#DejaVuSans-Bold-77" transform="translate(723.4375 0)"/>
     <use xlink:href="#DejaVuSans-Bold-69" transform="translate(815.820312 0)"/>
     <use xlink:href="#DejaVuSans-Bold-73" transform="translate(850.097656 0)"/>
     <use xlink:href="#DejaVuSans-Bold-65" transform="translate(909.619141 0)"/>
    </g>
   </g>
   <g id="text_32">
    <!-- Cybermanx -->
    <g style="fill: #00ffff" transform="translate(1241.143046 547.354797) scale(0.1 -0.1)">
     <use xlink:href="#DejaVuSans-Bold-43"/>
     <use xlink:href="#DejaVuSans-Bold-79" transform="translate(73.388672 0)"/>
     <use xlink:href="#DejaVuSans-Bold-62" transform="translate(138.574219 0)"/>
     <use xlink:href="#DejaVuSans-Bold-65" transform="translate(210.15625 0)"/>
     <use xlink:href="#DejaVuSans-Bold-72" transform="translate(277.978516 0)"/>
     <use xlink:href="#DejaVuSans-Bold-6d" transform="translate(327.294922 0)"/>
     <use xlink:href="#DejaVuSans-Bold-61" transform="translate(431.494141 0)"/>
     <use xlink:href="#DejaVuSans-Bold-6e" transform="translate(498.974609 0)"/>
     <use xlink:href="#DejaVuSans-Bold-78" transform="translate(570.166016 0)"/>
    </g>
   </g>
   <g id="text_33">
    <!-- Martj9 -->
    <g style="fill: #ff0000" transform="translate(1241.143046 486.607756) scale(0.1 -0.1)">
     <defs>
      <path id="DejaVuSans-Bold-39" d="M 641 103 
L 641 966 
Q 928 831 1190 764 
Q 1453 697 1709 697 
Q 2247 697 2547 995 
Q 2847 1294 2900 1881 
Q 2688 1725 2447 1647 
Q 2206 1569 1925 1569 
Q 1209 1569 770 1986 
Q 331 2403 331 3084 
Q 331 3838 820 4291 
Q 1309 4744 2131 4744 
Q 3044 4744 3544 4128 
Q 4044 3513 4044 2388 
Q 4044 1231 3459 570 
Q 2875 -91 1856 -91 
Q 1528 -91 1228 -42 
Q 928 6 641 103 
z
M 2125 2350 
Q 2441 2350 2600 2554 
Q 2759 2759 2759 3169 
Q 2759 3575 2600 3781 
Q 2441 3988 2125 3988 
Q 1809 3988 1650 3781 
Q 1491 3575 1491 3169 
Q 1491 2759 1650 2554 
Q 1809 2350 2125 2350 
z
" transform="scale(0.015625)"/>
     </defs>
     <use xlink:href="#DejaVuSans-Bold-4d"/>
     <use xlink:href="#DejaVuSans-Bold-61" transform="translate(99.511719 0)"/>
     <use xlink:href="#DejaVuSans-Bold-72" transform="translate(166.992188 0)"/>
     <use xlink:href="#DejaVuSans-Bold-74" transform="translate(216.308594 0)"/>
     <use xlink:href="#DejaVuSans-Bold-6a" transform="translate(264.111328 0)"/>
     <use xlink:href="#DejaVuSans-Bold-39" transform="translate(298.388672 0)"/>
    </g>
   </g>
   <g id="text_34">
    <!-- Cascafico -->
    <g style="fill: #008000" transform="translate(1241.143046 371.16934) scale(0.1 -0.1)">
     <use xlink:href="#DejaVuSans-Bold-43"/>
     <use xlink:href="#DejaVuSans-Bold-61" transform="translate(73.388672 0)"/>
     <use xlink:href="#DejaVuSans-Bold-73" transform="translate(140.869141 0)"/>
     <use xlink:href="#DejaVuSans-Bold-63" transform="translate(200.390625 0)"/>
     <use xlink:href="#DejaVuSans-Bold-61" transform="translate(259.667969 0)"/>
     <use xlink:href="#DejaVuSans-Bold-66" transform="translate(327.148438 0)"/>
     <use xlink:href="#DejaVuSans-Bold-69" transform="translate(370.654297 0)"/>
     <use xlink:href="#DejaVuSans-Bold-63" transform="translate(404.931641 0)"/>
     <use xlink:href="#DejaVuSans-Bold-6f" transform="translate(464.208984 0)"/>
    </g>
   </g>
   <g id="text_35">
    <!-- giopera -->
    <g style="fill: #0000ff" transform="translate(1241.143046 107.58392) scale(0.1 -0.1)">
     <defs>
      <path id="DejaVuSans-Bold-67" d="M 2919 594 
Q 2688 288 2409 144 
Q 2131 0 1766 0 
Q 1125 0 706 504 
Q 288 1009 288 1791 
Q 288 2575 706 3076 
Q 1125 3578 1766 3578 
Q 2131 3578 2409 3434 
Q 2688 3291 2919 2981 
L 2919 3500 
L 4044 3500 
L 4044 353 
Q 4044 -491 3511 -936 
Q 2978 -1381 1966 -1381 
Q 1638 -1381 1331 -1331 
Q 1025 -1281 716 -1178 
L 716 -306 
Q 1009 -475 1290 -558 
Q 1572 -641 1856 -641 
Q 2406 -641 2662 -400 
Q 2919 -159 2919 353 
L 2919 594 
z
M 2181 2772 
Q 1834 2772 1640 2515 
Q 1447 2259 1447 1791 
Q 1447 1309 1634 1061 
Q 1822 813 2181 813 
Q 2531 813 2725 1069 
Q 2919 1325 2919 1791 
Q 2919 2259 2725 2515 
Q 2531 2772 2181 2772 
z
" transform="scale(0.015625)"/>
     </defs>
     <use xlink:href="#DejaVuSans-Bold-67"/>
     <use xlink:href="#DejaVuSans-Bold-69" transform="translate(71.582031 0)"/>
     <use xlink:href="#DejaVuSans-Bold-6f" transform="translate(105.859375 0)"/>
     <use xlink:href="#DejaVuSans-Bold-70" transform="translate(174.560547 0)"/>
     <use xlink:href="#DejaVuSans-Bold-65" transform="translate(246.142578 0)"/>
     <use xlink:href="#DejaVuSans-Bold-72" transform="translate(313.964844 0)"/>
     <use xlink:href="#DejaVuSans-Bold-61" transform="translate(363.28125 0)"/>
    </g>
   </g>
  </g>
 </g>
 <defs>
  <clipPath id="pffd3549b21">
   <rect x="50.137685" y="10.8" width="1167.652315" height="2069.399373"/>
  </clipPath>
 </defs>
</svg>
